<?xml version="1.0" encoding="UTF-8"?>
<svg width="115px" height="115px" viewBox="0 0 115 115" version="1.1" xmlns="http://www.w3.org/2000/svg" xmlns:xlink="http://www.w3.org/1999/xlink">
    <title>Group 4</title>
    <defs>
        <circle id="path-1" cx="47.5" cy="47.5" r="47.5"></circle>
        <filter x="-16.8%" y="-14.7%" width="133.7%" height="133.7%" filterUnits="objectBoundingBox" id="filter-2">
            <feOffset dx="0" dy="2" in="SourceAlpha" result="shadowOffsetOuter1"></feOffset>
            <feGaussianBlur stdDeviation="5" in="shadowOffsetOuter1" result="shadowBlurOuter1"></feGaussianBlur>
            <feColorMatrix values="0 0 0 0 0.180392157   0 0 0 0 0.407843137   0 0 0 0 0.815686275  0 0 0 0.101960784 0" type="matrix" in="shadowBlurOuter1"></feColorMatrix>
        </filter>
        <polygon id="path-3" points="0 0.021248456 29.2978123 0.021248456 29.2978123 29.1562221 0 29.1562221"></polygon>
    </defs>
    <g id="Page-1" stroke="none" stroke-width="1" fill="none" fill-rule="evenodd">
        <g id="LANDING_DESKTOP" transform="translate(-730.000000, -767.000000)">
            <g id="Group-18" transform="translate(165.000000, 683.000000)">
                <g id="Group-9" transform="translate(0.000000, 92.000000)">
                    <g id="Group-6" transform="translate(575.000000, 0.000000)">
                        <g id="Group-4">
                            <g id="Oval-Copy">
                                <use fill="black" fill-opacity="1" filter="url(#filter-2)" xlink:href="#path-1"></use>
                                <use fill="#FFFFFF" fill-rule="evenodd" xlink:href="#path-1"></use>
                            </g>
                            <g id="Group-2-Copy" transform="translate(28.112245, 30.051020)">
                                <g id="Group-7">
                                    <mask id="mask-4" fill="white">
                                        <use xlink:href="#path-3"></use>
                                    </mask>
                                    <g id="Clip-6"></g>
                                    <path d="M19.0919753,22.9367309 L16.835651,22.9367309 C16.5250638,22.9130153 16.2236116,23.0458229 16.0226434,23.2877225 C14.4011958,25.0663961 12.7706132,26.8403266 11.1308957,28.6000278 C10.4686142,29.3067541 9.4774758,29.3589285 8.92481336,28.6474591 C8.67360315,28.3012106 8.53657941,27.879072 8.51830958,27.4427041 C8.47263499,26.0339946 8.49090483,24.620542 8.51830958,23.2118324 C8.56855162,22.9699328 8.41325804,22.7327763 8.17575021,22.685345 C8.16661529,22.6806019 8.15291292,22.6806019 8.143778,22.6806019 C3.75445065,21.4853332 1.21494389,18.440244 0.301452242,13.9769589 C-0.575499735,10.1492533 0.488718029,6.12233617 3.12870888,3.30017401 C4.89174775,1.25588511 7.39928231,0.0748458214 10.0392732,0.0416439136 C11.5967764,-0.00578738324 13.1542797,0.0416439136 14.7072155,0.0416439136 C16.1368299,0.0416439136 17.5573094,0.0179282652 18.9823564,0.0416439136 C22.8738308,0.117533989 25.7604643,1.99581334 27.7199039,5.42035298 C30.7846684,10.799062 29.2363,17.9896466 24.3628221,21.295608 C22.8007514,22.3675554 20.9646332,22.9367309 19.0919753,22.9367309 Z" id="Fill-5" fill="#E5E5E5" mask="url(#mask-4)"></path>
                                </g>
                                <path d="M32.7249395,30.0212009 C32.5152109,30.0587123 32.3800524,30.2603356 32.4219982,30.4713367 C32.4219982,30.4807146 32.4219982,30.4900924 32.4266588,30.4947813 L32.4266588,33.2706187 C32.4919077,33.8754887 32.14236,34.4522251 31.578423,34.6726041 C31.028468,34.8882942 30.3992821,34.7148044 30.0404131,34.241224 C28.889236,33.0127284 27.7194163,31.774855 26.5309541,30.5698039 C26.3258861,30.3869363 26.0742117,30.2790912 25.8038948,30.2556467 C24.6527177,30.1478016 23.4782374,30.236891 22.3736666,29.9743118 C20.1691857,29.4585312 18.5938907,28.042479 17.3821253,25.8996451 C17.6757453,25.7777333 17.9833473,25.6980218 18.29561,25.6511326 C19.7637103,25.632377 21.2364714,25.6933329 22.6766079,25.2947751 C26.7360221,24.1741246 29.5184218,21.5952216 31.0750743,17.7128004 C31.6157081,16.3436374 31.8627218,14.8713182 32.2728578,13.3708656 C33.0838085,13.4740217 33.8621348,13.7553566 34.5519089,14.2008035 C37.7071596,16.090436 39.3337216,19.7853006 38.6020017,23.4051426 C37.9029063,26.7342719 36.0293306,29.03184 32.7249395,30.0212009 Z" id="Fill-8" fill="#6E91F0"></path>
                            </g>
                        </g>
                    </g>
                </g>
            </g>
        </g>
    </g>
</svg>