<?xml version="1.0" encoding="UTF-8"?>
<svg width="115px" height="115px" viewBox="0 0 115 115" version="1.1" xmlns="http://www.w3.org/2000/svg" xmlns:xlink="http://www.w3.org/1999/xlink">
    <title>Group 3</title>
    <defs>
        <ellipse id="path-1" cx="47.5" cy="47.5" rx="47.5" ry="47.0052083"></ellipse>
        <filter x="-16.8%" y="-14.9%" width="133.7%" height="134.0%" filterUnits="objectBoundingBox" id="filter-2">
            <feOffset dx="0" dy="2" in="SourceAlpha" result="shadowOffsetOuter1"></feOffset>
            <feGaussianBlur stdDeviation="5" in="shadowOffsetOuter1" result="shadowBlurOuter1"></feGaussianBlur>
            <feColorMatrix values="0 0 0 0 0.180392157   0 0 0 0 0.407843137   0 0 0 0 0.815686275  0 0 0 0.101960784 0" type="matrix" in="shadowBlurOuter1"></feColorMatrix>
        </filter>
        <polygon id="path-3" points="0 0.0210886007 29.4674312 0.0210886007 29.4674312 28.9368755 0 28.9368755"></polygon>
    </defs>
    <g id="Page-1" stroke="none" stroke-width="1" fill="none" fill-rule="evenodd">
        <g id="LANDING_DESKTOP" transform="translate(-155.000000, -767.000000)">
            <g id="Group-18" transform="translate(165.000000, 683.000000)">
                <g id="Group-9" transform="translate(0.000000, 92.000000)">
                    <g id="Group-5">
                        <g id="Group-3">
                            <g id="Oval">
                                <use fill="black" fill-opacity="1" filter="url(#filter-2)" xlink:href="#path-1"></use>
                                <use fill="#FFFFFF" fill-rule="evenodd" xlink:href="#path-1"></use>
                            </g>
                            <g id="Group-2" transform="translate(28.000000, 30.182292)">
                                <g id="Group-7">
                                    <mask id="mask-4" fill="white">
                                        <use xlink:href="#path-3"></use>
                                    </mask>
                                    <g id="Clip-6"></g>
                                    <path d="M19.2025078,22.7641745 L16.9331205,22.7641745 C16.6207353,22.7406373 16.3175378,22.8724458 16.1154061,23.1125255 C14.4845711,24.8778179 12.8445483,26.6384029 11.1953377,28.3848655 C10.529222,29.086275 9.5323454,29.1380569 8.97648333,28.43194 C8.72381875,28.0882964 8.58600171,27.6693337 8.5676261,27.2362486 C8.52168709,25.838137 8.5400627,24.435318 8.5676261,23.0372064 C8.61815902,22.7971266 8.46196637,22.5617543 8.2230835,22.5146798 C8.2138957,22.5099724 8.20011399,22.5099724 8.19092619,22.5099724 C3.77618695,21.3236959 1.22197777,18.3015153 0.303197492,13.8718082 C-0.578831576,10.0728989 0.491547449,6.07627693 3.14682246,3.27534631 C4.9200684,1.2464369 7.44212026,0.0742827452 10.0973953,0.0413306203 C11.6639156,-0.0057438439 13.230436,0.0413306203 14.7923625,0.0413306203 C16.2302536,0.0413306203 17.658957,0.0177933882 19.0922542,0.0413306203 C23.0062582,0.116649763 25.9096039,1.98079855 27.8803876,5.37957486 C30.9628954,10.7178191 29.4055628,17.8543079 24.50387,21.135398 C22.9327558,22.1992809 21.0860074,22.7641745 19.2025078,22.7641745 Z" id="Fill-5" fill="#6E91F0" mask="url(#mask-4)"></path>
                                </g>
                                <path d="M32.9143997,29.795347 C32.7034569,29.8325761 32.5675159,30.0326826 32.6097045,30.2420964 C32.6097045,30.2514036 32.6097045,30.2607109 32.6143921,30.2653646 L32.6143921,33.0203189 C32.6800188,33.6206383 32.3284474,34.193036 31.7612455,34.411757 C31.2081065,34.6258244 30.5752779,34.4536397 30.2143313,33.9836222 C29.0564894,32.7643687 27.8798971,31.535808 26.6845543,30.3398228 C26.4782991,30.1583309 26.2251677,30.0512972 25.9532858,30.028029 C24.7954439,29.9209953 23.614164,30.0094144 22.5031984,29.7488106 C20.2859547,29.2369103 18.7015395,27.8315113 17.4827586,25.7047982 C17.7780786,25.5838036 18.0874614,25.5046918 18.4015319,25.4581554 C19.8781318,25.4395408 21.3594194,25.5000381 22.8078936,25.1044788 C26.8908095,23.9922591 29.689318,21.4327576 31.2549826,17.5795444 C31.7987464,16.2206818 32.0471902,14.7594391 32.4597007,13.2702746 C33.2753463,13.3726546 34.0581787,13.651873 34.7519463,14.0939687 C37.9254642,15.9693853 39.5614432,19.6364529 38.825487,23.2290622 C38.1223442,26.533146 36.2379214,28.8134292 32.9143997,29.795347 Z" id="Fill-8" fill-opacity="0.1" fill="#000000"></path>
                            </g>
                        </g>
                    </g>
                </g>
            </g>
        </g>
    </g>
</svg>
