<?xml version="1.0" encoding="UTF-8"?>
<svg width="34px" height="34px" viewBox="0 0 34 34" version="1.1" xmlns="http://www.w3.org/2000/svg" xmlns:xlink="http://www.w3.org/1999/xlink">
    <!-- Generator: Sketch 63.1 (92452) - https://sketch.com -->
    <title>AIR Copy</title>
    <desc>Created with Sketch.</desc>
    <g id="Page-1" stroke="none" stroke-width="1" fill="none" fill-rule="evenodd">
        <g id="4_PERSONNALISATION" transform="translate(-81.000000, -1473.000000)">
            <g id="AIR-Copy" transform="translate(81.000000, 1473.000000)">
                <g id="Group-34">
                    <g id="noun_Airplane_2871541-Copy" fill="#207FEF" fill-rule="nonzero">
                        <path d="M31.7204545,25.2295455 L30.7545455,26.1954545 L29.4795455,23.1045455 L31.1795455,21.4045455 C31.4886364,21.0954545 31.4886364,20.6318182 31.1795455,20.3227273 C30.8704545,20.0136364 30.4068182,20.0136364 30.0977273,20.3227273 L28.8613636,21.5590909 L27.5863636,18.4681818 L29.5181818,16.5363636 C29.8272727,16.2272727 29.8272727,15.725 29.5181818,15.4545455 C29.2090909,15.1454545 28.7454545,15.1454545 28.4363636,15.4545455 L26.9295455,16.9227273 L25.6545455,13.8318182 L30.0590909,9.42727273 L32.8022727,6.68409091 C34.3090909,5.17727273 34.3090909,2.74318182 32.8022727,1.23636364 C31.2954545,-0.270454545 28.8613636,-0.270454545 27.3545455,1.23636364 L20.2068182,8.30681818 L17.1159091,7.03181818 L18.5840909,5.525 C18.8931818,5.21590909 18.8931818,4.75227273 18.5840909,4.44318182 C18.275,4.13409091 17.8113636,4.13409091 17.5022727,4.44318182 L15.5704545,6.41363636 L12.4795455,5.13863636 L13.7159091,3.90227273 C14.025,3.59318182 14.025,3.12954545 13.7159091,2.82045455 C13.4068182,2.51136364 12.9431818,2.51136364 12.6340909,2.82045455 L10.9340909,4.52045455 L7.84318182,3.24545455 L8.80909091,2.27954545 C9.11818182,1.97045455 9.11818182,1.50681818 8.80909091,1.19772727 C8.5,0.888636364 8.03636364,0.888636364 7.72727273,1.19772727 L6.29772727,2.62727273 L3.67045455,1.54545455 C3.47727273,1.46818182 3.24545455,1.46818182 3.05227273,1.54545455 C2.85909091,1.62272727 2.70454545,1.81590909 2.62727273,2.00909091 L1.54545455,5.29318182 C1.42954545,5.60227273 1.54545455,5.91136364 1.77727273,6.14318182 L12.9818182,15.6090909 L8.42272727,20.1295455 L3.09090909,19.8204545 C2.85909091,19.8204545 2.66590909,19.8977273 2.51136364,20.0522727 L0.347727273,22.2545455 C0.193181818,22.4090909 0.115909091,22.6022727 0.115909091,22.7954545 C0.115909091,22.9886364 0.193181818,23.1818182 0.347727273,23.3363636 L4.17272727,27.1613636 C4.32727273,27.3159091 4.55909091,27.3931818 4.79090909,27.3931818 L6.87727273,27.2 L6.68409091,29.2863636 C6.64545455,29.5181818 6.76136364,29.75 6.91590909,29.9045455 L10.7409091,33.7295455 C10.8954545,33.8840909 11.0886364,33.9613636 11.2818182,33.9613636 C11.475,33.9613636 11.6681818,33.8840909 11.8227273,33.7295455 L14.025,31.5272727 C14.1795455,31.3727273 14.2568182,31.1409091 14.2568182,30.9477273 L13.9477273,25.6159091 L18.4295455,21.1340909 L27.8954545,32.3386364 C28.0886364,32.5704545 28.4363636,32.6863636 28.7454545,32.5704545 L32.0295455,31.4886364 C32.2227273,31.4113636 32.3772727,31.2568182 32.4931818,31.0636364 C32.5704545,30.8704545 32.5704545,30.6386364 32.4931818,30.4454545 L31.4113636,27.8181818 L32.8409091,26.3886364 C33.15,26.0795455 33.15,25.6159091 32.8409091,25.3068182 C32.4931818,24.9204545 31.9909091,24.9204545 31.7204545,25.2295455 Z M28.4363636,2.27954545 C29.325,1.39090909 30.7931818,1.39090909 31.7204545,2.27954545 C32.6090909,3.16818182 32.6090909,4.63636364 31.7204545,5.56363636 L29.5181818,7.76590909 L26.2340909,4.48181818 L28.4363636,2.27954545 Z M28.6681818,30.9090909 L19.0090909,19.4727273 C18.8545455,19.3181818 18.6613636,19.2022727 18.4295455,19.2022727 C18.2363636,19.2022727 18.0045455,19.2795455 17.85,19.4340909 L12.5568182,24.7272727 C12.4022727,24.8818182 12.325,25.1136364 12.325,25.3068182 L12.6340909,30.6386364 L11.2045455,32.0681818 L8.19090909,29.0545455 L8.42272727,26.3886364 C8.42272727,26.1568182 8.34545455,25.925 8.19090909,25.7704545 C8.03636364,25.6159091 7.80454545,25.5386364 7.57272727,25.5386364 L4.94545455,25.7704545 L1.93181818,22.7954545 L3.32272727,21.4045455 L8.65454545,21.7136364 C8.88636364,21.7136364 9.07954545,21.6363636 9.23409091,21.4818182 L14.5659091,16.15 C14.7204545,15.9954545 14.7977273,15.8022727 14.7977273,15.5704545 C14.7977273,15.3386364 14.6818182,15.1454545 14.5272727,14.9909091 L3.09090909,5.33181818 L3.74772727,3.32272727 L20.0909091,9.96818182 C20.3613636,10.0840909 20.7090909,10.0068182 20.9409091,9.81363636 L25.1522727,5.60227273 L28.4363636,8.88636364 L24.225,13.0590909 C23.9931818,13.2909091 23.9545455,13.6 24.0704545,13.9090909 L30.6772727,30.2522727 L28.6681818,30.9090909 Z" id="Shape"></path>
                    </g>
                    <path d="M31.776064,25.2308131 L30.8049129,26.2008559 L29.5229934,23.096719 L31.2322194,21.3894437 C31.5429877,21.07903 31.5429877,20.6134094 31.2322194,20.3029957 C30.921451,19.992582 30.4552985,19.992582 30.1445301,20.3029957 L28.9014567,21.5446505 L27.6195373,18.4405136 L29.5618395,16.500428 C29.8726078,16.1900143 29.8726078,15.685592 29.5618395,15.41398 C29.2510711,15.1035663 28.7849186,15.1035663 28.4741502,15.41398 L26.9591545,16.8884451 L25.6772351,13.7843081 L30.1056841,9.36091298 L32.8637532,6.60599144 C34.3787489,5.09272468 34.3787489,2.64821683 32.8637532,1.13495007 C31.3487575,-0.37831669 28.9014567,-0.37831669 27.386461,1.13495007 L20.1999429,8.23566334 L17.0922594,6.95520685 L18.568409,5.44194009 C18.8791774,5.13152639 18.8791774,4.66590585 18.568409,4.35549215 C18.2576407,4.04507846 17.7914881,4.04507846 17.4807198,4.35549215 L15.5384176,6.33437946 L12.4307341,5.05392297 L13.6738075,3.81226819 C13.9845758,3.50185449 13.9845758,3.03623395 13.6738075,2.72582026 C13.3630391,2.41540656 12.8968866,2.41540656 12.5861183,2.72582026 L10.8768923,4.43309558 L7.7692088,3.15263909 L8.7403599,2.18259629 C9.05112825,1.8721826 9.05112825,1.40656205 8.7403599,1.09614836 C8.42959155,0.785734665 7.96343902,0.785734665 7.65267067,1.09614836 L6.21536704,2.5318117 L3.57383605,1.44536377 C3.37960583,1.36776034 3.14652956,1.36776034 2.95229934,1.44536377 C2.75806912,1.52296719 2.60268495,1.71697575 2.52499286,1.91098431 L1.43730363,5.20912981 C1.3207655,5.51954351 1.43730363,5.8299572 1.67037989,6.06276748 L12.9357326,15.5691869 L8.35189946,20.1089872 L2.99114539,19.7985735 C2.75806912,19.7985735 2.5638389,19.8761769 2.40845473,20.0313837 L0.233076264,22.2430813 C0.077692088,22.3982882 0,22.5922967 0,22.7863053 C0,22.9803138 0.077692088,23.1743224 0.233076264,23.3295292 L4.07883462,27.1708987 C4.23421879,27.3261056 4.46729506,27.403709 4.70037132,27.403709 L6.7980577,27.2097004 L6.60382748,29.3049929 C6.56498143,29.5378031 6.68151957,29.7706134 6.83690374,29.9258203 L10.6826621,33.7671897 C10.8380463,33.9223966 11.0322765,34 11.2265067,34 C11.4207369,34 11.6149672,33.9223966 11.7703513,33.7671897 L13.9845758,31.5554922 C14.13996,31.4002853 14.2176521,31.167475 14.2176521,30.9734665 L13.9068837,25.6188302 L18.4130249,21.1178317 L27.9303056,32.3703281 C28.1245358,32.6031384 28.4741502,32.7195435 28.7849186,32.6031384 L32.0868323,31.5166904 C32.2810626,31.439087 32.4364467,31.2838802 32.5529849,31.0898716 C32.6306769,30.8958631 32.6306769,30.6630528 32.5529849,30.4690442 L31.4652956,27.8305278 L32.9025993,26.3948645 C33.2133676,26.0844508 33.2133676,25.6188302 32.9025993,25.3084165 C32.5529849,24.9203994 32.0479863,24.9203994 31.776064,25.2308131 Z" id="Path" fill="#0B019F"></path>
                    <path d="M28.933558,30.8038036 L19.2140106,19.2958594 C19.0584978,19.1403467 18.8641069,19.0237121 18.6308377,19.0237121 C18.4364468,19.0237121 18.2031777,19.1014685 18.0476649,19.2569812 L12.7213529,24.5832932 C12.5658402,24.738806 12.4880838,24.9720751 12.4880838,25.1664661 L12.7991093,30.5316562 L11.3606163,31.9701493 L8.32811748,28.9376505 L8.56138662,26.2550554 C8.56138662,26.0217862 8.48363024,25.7885171 8.32811748,25.6330043 C8.17260472,25.4774916 7.93933558,25.3997352 7.70606644,25.3997352 L5.06234954,25.6330043 L2.02985075,22.6393837 L3.42946558,21.2397689 L8.79465575,21.5507944 C9.02792489,21.5507944 9.22231584,21.473038 9.3778286,21.3175253 L14.7430188,15.9523351 C14.8985315,15.7968223 14.9762879,15.6024314 14.9762879,15.3691623 C14.9762879,15.1358931 14.8596533,14.9415022 14.7041406,14.7859894 L3.19619644,5.06644198 L3.85712566,3.04477612 L20.3025999,9.73182475 C20.5747472,9.84845932 20.9246509,9.77070294 21.1579201,9.57631199 L25.3956428,5.33858931 L28.7002889,8.64323544 L24.4625662,12.8420799 C24.2292971,13.0753491 24.1904189,13.3863746 24.3070534,13.6974001 L30.9552239,30.1428743 L28.933558,30.8038036 Z" id="Path" fill="#FE0000"></path>
                </g>
                <path d="M28.4363636,2.27954545 C29.325,1.39090909 30.7931818,1.39090909 31.7204545,2.27954545 C32.6090909,3.16818182 32.6090909,4.63636364 31.7204545,5.56363636 L29.5181818,7.76590909 L26.2340909,4.48181818 L28.4363636,2.27954545 Z" id="Path" fill="#FFFFFF"></path>
            </g>
        </g>
    </g>
</svg>