<?xml version="1.0" encoding="UTF-8"?>
<svg width="34px" height="34px" viewBox="0 0 34 34" version="1.1" xmlns="http://www.w3.org/2000/svg" xmlns:xlink="http://www.w3.org/1999/xlink">
    <!-- Generator: Sketch 63.1 (92452) - https://sketch.com -->
    <title>MARINE Copy</title>
    <desc>Created with Sketch.</desc>
    <g id="Page-1" stroke="none" stroke-width="1" fill="none" fill-rule="evenodd">
        <g id="4_PERSONNALISATION" transform="translate(-47.000000, -1439.000000)">
            <g id="MARINE-Copy" transform="translate(47.000000, 1439.000000)">
                <path d="M33.7775704,32.1026786 C33.4749718,31.7991071 33.0210739,31.7991071 32.7184753,32.1026786 C32.2267525,32.5959821 31.3189567,32.5959821 30.8272339,32.1026786 C30.1085622,31.3816964 29.1251167,31.1540179 28.2173209,31.34375 C30.2220367,28.6116071 31.3567815,25.1964286 31.3567815,21.6294643 C31.3567815,21.3258929 31.1676574,21.0223214 30.8650588,20.9084821 L27.1960505,19.5803571 L27.1960505,11.3839286 C27.1960505,10.1316964 26.1747802,9.10714286 24.9265609,9.10714286 L24.1700644,9.10714286 L24.1700644,5.69196429 C24.1700644,4.43973214 23.1487941,3.41517857 21.9005748,3.41517857 L17.7398438,3.41517857 L17.7398438,0.758928571 C17.7398438,0.341517857 17.3994204,0 16.9833473,0 C16.5672742,0 16.2268507,0.341517857 16.2268507,0.758928571 L16.2268507,3.41517857 L12.0661198,3.41517857 C10.8179005,3.41517857 9.79663017,4.43973214 9.79663017,5.69196429 L9.79663017,9.10714286 L9.04013363,9.10714286 C7.79191434,9.10714286 6.77064402,10.1316964 6.77064402,11.3839286 L6.77064402,19.5803571 L3.10163581,20.9084821 C2.79903719,21.0223214 2.60991306,21.2879464 2.60991306,21.6294643 C2.60991306,25.1964286 3.70683304,28.6116071 5.74937369,31.3058036 C5.56024956,31.2678571 5.37112542,31.2299107 5.18200129,31.2299107 C4.42550475,31.2299107 3.70683304,31.5334821 3.17728546,32.0647321 C2.68556271,32.5580357 1.77776686,32.5580357 1.28604411,32.0647321 C0.9834455,31.7611607 0.529547577,31.7611607 0.226948961,32.0647321 C-0.0756496538,32.3683036 -0.0756496538,32.8236607 0.226948961,33.1272321 C0.756496538,33.6584821 1.47516825,33.9620536 2.23166479,33.9620536 C2.98816133,33.9620536 3.70683304,33.6584821 4.23638061,33.1272321 C4.72810336,32.6339286 5.63589921,32.6339286 6.12762196,33.1272321 C6.77064402,33.7723214 7.67843986,34.0758929 8.58623571,33.9241071 C8.62406053,33.9241071 8.62406053,33.9241071 8.66188536,33.9241071 C8.66188536,33.9241071 8.69971019,33.9241071 8.69971019,33.9241071 C8.69971019,33.9241071 8.73753502,33.9241071 8.73753502,33.9241071 C9.26708259,33.8102679 9.75880534,33.5446429 10.1370536,33.1651786 C10.6287764,32.671875 11.5365722,32.671875 12.028295,33.1651786 C12.5578425,33.6964286 13.2765142,34 14.0330108,34 C14.7895073,34 15.508179,33.6964286 16.0377266,33.1651786 C16.5672742,32.6339286 17.3994204,32.6339286 17.928968,33.1651786 C19.0258879,34.265625 20.8414796,34.265625 21.9383996,33.1651786 C22.4679472,32.6339286 23.3000934,32.6339286 23.829641,33.1651786 C24.2078892,33.5446429 24.7374368,33.8102679 25.2669844,33.9241071 C25.2669844,33.9241071 25.2669844,33.9241071 25.3048092,33.9241071 C25.4939333,33.9620536 25.6830575,33.9620536 25.8343568,33.9620536 C26.5908533,33.9620536 27.309525,33.6584821 27.8390726,33.1272321 C28.3686202,32.5959821 29.2007664,32.5959821 29.7303139,33.1272321 C30.2598615,33.6584821 30.9785332,33.9620536 31.7350298,33.9620536 C32.4915263,33.9620536 33.210198,33.6584821 33.7397456,33.1272321 C34.080169,32.8616071 34.080169,32.40625 33.7775704,32.1026786 Z" id="Path" fill="#0B019F"></path>
                <path d="M20.6564286,32.1490347 C20.1264286,32.6741313 19.2935714,32.6741313 18.7635714,32.1490347 C17.6657143,31.0613348 15.8485714,31.0613348 14.7507143,32.1490347 C14.2585714,32.6366244 13.35,32.6366244 12.8578571,32.1490347 C12.3278571,31.6239382 11.6085714,31.3238831 10.8514286,31.3238831 C10.0942857,31.3238831 9.375,31.6239382 8.845,32.1490347 C8.73142857,32.2615554 8.61785714,32.3365692 8.46642857,32.411583 C5.665,29.8611142 4.03714286,26.2229454 3.88571429,22.3222284 L16,17.9714286 L16,28.1733039 C16,28.5858798 16.3407143,28.9234418 16.7571429,28.9234418 C17.1735714,28.9234418 17.5142857,28.5858798 17.5142857,28.1733039 L17.5142857,17.9714286 L29.6285714,22.2847215 C29.4771429,26.2229454 27.8492857,29.8611142 25.0478571,32.3740761 C24.9342857,32.2990623 24.7828571,32.2240485 24.6692857,32.1115279 C23.5714286,31.0238279 21.7542857,31.0238279 20.6564286,32.1490347 Z" id="Path" fill="#FE0000"></path>
                <path d="M8.25714286,11.429601 C8.25714286,11.0204633 8.59925466,10.6857143 9.0173913,10.6857143 L24.9826087,10.6857143 C25.4007453,10.6857143 25.7428571,11.0204633 25.7428571,11.429601 L25.7428571,18.9428571 L17.266087,15.9301158 C17.2280745,15.9301158 17.2280745,15.9301158 17.1900621,15.9301158 C17.1900621,15.9301158 17.1520497,15.9301158 17.1520497,15.9301158 C17.0760248,15.9301158 16.9619876,15.9301158 16.8859627,15.9301158 C16.8859627,15.9301158 16.8479503,15.9301158 16.8479503,15.9301158 C16.8099379,15.9301158 16.8099379,15.9301158 16.7719255,15.9301158 L8.25714286,18.9428571 L8.25714286,11.429601 Z" id="Path" fill="#FFFFFF"></path>
                <path d="M12.1428571,13.6971429 C12.1428571,13.7335714 12.1428571,13.8064286 12.1428571,13.8428571 C12.1428571,14.025 12.07,14.2071429 11.9242857,14.3528571 C11.7785714,14.4985714 11.5964286,14.5714286 11.4142857,14.5714286 C11.2321429,14.5714286 11.05,14.4985714 10.9042857,14.3528571 C10.7585714,14.2071429 10.6857143,14.025 10.6857143,13.8428571 C10.6857143,13.8064286 10.6857143,13.7335714 10.6857143,13.6971429 C10.6857143,13.6607143 10.7221429,13.6242857 10.7221429,13.5514286 C10.7221429,13.515 10.7585714,13.4785714 10.795,13.4421429 C10.8314286,13.4057143 10.8314286,13.3692857 10.8678571,13.3328571 C11.1592857,13.0414286 11.6328571,13.0414286 11.8878571,13.3328571 C11.9242857,13.3692857 11.9607143,13.4057143 11.9607143,13.4421429 C11.9971429,13.4785714 11.9971429,13.515 12.0335714,13.5514286 C12.1064286,13.6242857 12.1064286,13.6607143 12.1428571,13.6971429 Z" id="Path" fill="#0B019F"></path>
                <path d="M16.0285714,13.7286497 C16.0285714,13.7652923 16.0285714,13.8385774 16.0285714,13.87522 C16.0285714,14.0584328 15.9538462,14.2416456 15.8043956,14.3882158 C15.767033,14.4248583 15.7296703,14.4615009 15.6923077,14.4615009 C15.6549451,14.4981435 15.6175824,14.534786 15.5802198,14.534786 C15.5428571,14.5714286 15.5054945,14.5714286 15.4307692,14.5714286 C15.3934066,14.5714286 15.3186813,14.5714286 15.2813187,14.5714286 C15.0945055,14.5714286 14.9076923,14.4981435 14.7582418,14.3515732 C14.7208791,14.3149307 14.6835165,14.2782881 14.6835165,14.2416456 C14.6461538,14.205003 14.6461538,14.1683604 14.6087912,14.1317179 C14.5714286,14.0950753 14.5714286,14.0584328 14.5714286,13.9851476 C14.5714286,13.9485051 14.5714286,13.87522 14.5714286,13.8385774 C14.5714286,13.8019349 14.5714286,13.7286497 14.5714286,13.6920072 C14.5714286,13.6553646 14.6087912,13.6187221 14.6087912,13.545437 C14.6087912,13.5087944 14.6461538,13.4721518 14.6835165,13.4355093 C14.7208791,13.3988667 14.7208791,13.3622242 14.7582418,13.3255816 C14.9450549,13.1423688 15.2065934,13.0690837 15.4307692,13.1423688 C15.4681319,13.1423688 15.5054945,13.1790114 15.5802198,13.1790114 C15.6175824,13.1790114 15.6549451,13.2156539 15.7296703,13.2522965 C15.8043956,13.2889391 15.8043956,13.2889391 15.8417582,13.3255816 C15.8791209,13.3622242 15.9164835,13.3988667 15.9164835,13.4355093 C15.9538462,13.4721518 15.9538462,13.5087944 15.9912088,13.545437 C15.9912088,13.6553646 15.9912088,13.6920072 16.0285714,13.7286497 Z" id="Path" fill="#0B019F"></path>
                <path d="M18.1956044,14.3528571 C18.0461538,14.2071429 17.9714286,14.025 17.9714286,13.8428571 C17.9714286,13.8064286 17.9714286,13.7335714 17.9714286,13.6971429 C17.9714286,13.6607143 18.0087912,13.6242857 18.0087912,13.5514286 C18.0461538,13.515 18.0461538,13.4785714 18.0835165,13.4421429 C18.1208791,13.4057143 18.1582418,13.3692857 18.1582418,13.3328571 C18.4197802,13.0414286 18.9428571,13.0414286 19.2043956,13.3328571 C19.3538462,13.4785714 19.4285714,13.6607143 19.4285714,13.8428571 C19.4285714,13.8792857 19.4285714,13.9521429 19.4285714,13.9885714 C19.4285714,14.025 19.3912088,14.0614286 19.3912088,14.1342857 C19.3912088,14.1707143 19.3538462,14.2071429 19.3164835,14.2435714 C19.2791209,14.28 19.2417582,14.3164286 19.2417582,14.3528571 C19.0923077,14.4985714 18.9054945,14.5714286 18.7186813,14.5714286 C18.5318681,14.5714286 18.3450549,14.4985714 18.1956044,14.3528571 Z" id="Path" fill="#0B019F"></path>
                <path d="M22.0757143,14.375201 C21.93,14.2258318 21.8571429,14.0391203 21.8571429,13.8524088 C21.8571429,13.6656973 21.93,13.4789858 22.0757143,13.3296166 C22.2578571,13.1429051 22.5128571,13.0682205 22.7314286,13.1429051 C22.7678571,13.1429051 22.8042857,13.1802474 22.8771429,13.1802474 C22.9135714,13.1802474 22.95,13.2175897 22.9864286,13.254932 C23.0228571,13.2922743 23.0592857,13.2922743 23.0957143,13.3296166 C23.2414286,13.4789858 23.3142857,13.6656973 23.3142857,13.8524088 C23.3142857,14.0391203 23.2414286,14.2258318 23.0957143,14.375201 C23.0592857,14.4125433 23.0228571,14.4498856 22.9864286,14.4498856 C22.95,14.4872279 22.9135714,14.5245702 22.8771429,14.5245702 C22.8407143,14.5619125 22.8042857,14.5619125 22.7314286,14.5619125 C22.695,14.5619125 22.6221429,14.5619125 22.5857143,14.5619125 C22.4035714,14.5992548 22.2214286,14.5245702 22.0757143,14.375201 Z" id="Path" fill="#0B019F"></path>
            </g>
        </g>
    </g>
</svg>