<?xml version="1.0" encoding="UTF-8"?>
<svg width="34px" height="21px" viewBox="0 0 34 21" version="1.1" xmlns="http://www.w3.org/2000/svg" xmlns:xlink="http://www.w3.org/1999/xlink">
    <!-- Generator: Sketch 63.1 (92452) - https://sketch.com -->
    <title>TERRE</title>
    <desc>Created with Sketch.</desc>
    <g id="Page-1" stroke="none" stroke-width="1" fill="none" fill-rule="evenodd">
        <g id="4_PERSONNALISATION" transform="translate(-47.000000, -1348.000000)">
            <g id="TERRE" transform="translate(47.000000, 1348.000000)">
                <g id="noun_Truck_2871575">
                    <path d="M31.5754561,9.13432836 L31.5754561,6.76616915 C31.5754561,5.11221669 30.2222222,3.75898286 28.5682698,3.75898286 L24.0574903,3.75898286 L24.0574903,3.00718629 C24.0574903,1.35323383 22.7042565,0 21.050304,0 L3.00718629,0 C1.35323383,0 0,1.35323383 0,3.00718629 L0,17.2913212 C0,17.7048093 0.338308458,18.0431177 0.751796573,18.0431177 L3.87175235,18.0431177 C4.21006081,19.3211719 5.37534549,20.2985075 6.76616915,20.2985075 C8.15699281,20.2985075 9.3222775,19.3211719 9.66058596,18.0431177 L11.3521282,18.0431177 C11.6904367,19.3211719 12.8557214,20.2985075 14.2465451,20.2985075 C15.6373687,20.2985075 16.8026534,19.3211719 17.1409619,18.0431177 L24.0950802,18.0431177 C24.4333886,19.3211719 25.5986733,20.2985075 26.989497,20.2985075 C28.3803206,20.2985075 29.5456053,19.3211719 29.8839138,18.0431177 L33.0790492,18.0431177 C33.4925373,18.0431177 33.8308458,17.7048093 33.8308458,17.2913212 L33.8308458,12.0287452 C33.8308458,10.6379215 32.8535102,9.43504699 31.5754561,9.13432836 Z M6.76616915,18.7949143 C5.93919292,18.7949143 5.26257601,18.1182974 5.26257601,17.2913212 C5.26257601,16.4643449 5.93919292,15.787728 6.76616915,15.787728 C7.59314538,15.787728 8.2697623,16.4643449 8.2697623,17.2913212 C8.2697623,18.1182974 7.59314538,18.7949143 6.76616915,18.7949143 Z M14.2841349,18.7949143 C13.4571587,18.7949143 12.7805417,18.1182974 12.7805417,17.2913212 C12.7805417,16.4643449 13.4571587,15.787728 14.2841349,15.787728 C15.1111111,15.787728 15.787728,16.4643449 15.787728,17.2913212 C15.787728,18.1182974 15.1111111,18.7949143 14.2841349,18.7949143 Z M22.5538972,16.5395246 L17.1785517,16.5395246 C16.8402432,15.2614704 15.6749585,14.2841349 14.2841349,14.2841349 C12.8933112,14.2841349 11.7280265,15.2614704 11.3897181,16.5395246 L9.69817579,16.5395246 C9.35986733,15.2614704 8.19458264,14.2841349 6.80375898,14.2841349 C5.41293532,14.2841349 4.24765064,15.2614704 3.90934218,16.5395246 L1.50359315,16.5395246 L1.50359315,9.02155887 L5.26257601,9.02155887 C5.67606412,9.02155887 6.01437258,8.68325041 6.01437258,8.2697623 C6.01437258,7.85627418 5.67606412,7.51796573 5.26257601,7.51796573 L1.50359315,7.51796573 L1.50359315,5.26257601 L5.26257601,5.26257601 C5.67606412,5.26257601 6.01437258,4.92426755 6.01437258,4.51077944 C6.01437258,4.09729132 5.67606412,3.75898286 5.26257601,3.75898286 L1.50359315,3.75898286 L1.50359315,3.00718629 C1.50359315,2.18021006 2.18021006,1.50359315 3.00718629,1.50359315 L21.050304,1.50359315 C21.8772803,1.50359315 22.5538972,2.18021006 22.5538972,3.00718629 L22.5538972,16.5395246 Z M24.0574903,5.26257601 L28.5682698,5.26257601 C29.395246,5.26257601 30.0718629,5.93919292 30.0718629,6.76616915 L30.0718629,9.02155887 L24.0574903,9.02155887 L24.0574903,5.26257601 Z M27.0646766,18.7949143 C26.2377004,18.7949143 25.5610835,18.1182974 25.5610835,17.2913212 C25.5610835,16.4643449 26.2377004,15.787728 27.0646766,15.787728 C27.8916528,15.787728 28.5682698,16.4643449 28.5682698,17.2913212 C28.5682698,18.1182974 27.8916528,18.7949143 27.0646766,18.7949143 Z M32.3272526,16.5395246 L29.9590934,16.5395246 C29.620785,15.2614704 28.4555003,14.2841349 27.0646766,14.2841349 C25.673853,14.2841349 24.5085683,15.2614704 24.1702598,16.5395246 L24.0574903,16.5395246 L24.0574903,10.525152 L30.8236595,10.525152 C31.6506357,10.525152 32.3272526,11.2017689 32.3272526,12.0287452 L32.3272526,16.5395246 Z" id="Shape" fill="#0B019F" fill-rule="nonzero"></path>
                    <path d="M31.5754561,9.13432836 L31.5754561,6.76616915 C31.5754561,5.11221669 30.2222222,3.75898286 28.5682698,3.75898286 L24.0574903,3.75898286 L24.0574903,3.00718629 C24.0574903,1.35323383 22.7042565,0 21.050304,0 L3.00718629,0 C1.35323383,0 0,1.35323383 0,3.00718629 L0,17.2913212 C0,17.7048093 0.338308458,18.0431177 0.751796573,18.0431177 L3.87175235,18.0431177 C4.21006081,19.3211719 5.37534549,20.2985075 6.76616915,20.2985075 C8.15699281,20.2985075 9.3222775,19.3211719 9.66058596,18.0431177 L11.3521282,18.0431177 C11.6904367,19.3211719 12.8557214,20.2985075 14.2465451,20.2985075 C15.6373687,20.2985075 16.8026534,19.3211719 17.1409619,18.0431177 L24.0950802,18.0431177 C24.4333886,19.3211719 25.5986733,20.2985075 26.989497,20.2985075 C28.3803206,20.2985075 29.5456053,19.3211719 29.8839138,18.0431177 L33.0790492,18.0431177 C33.4925373,18.0431177 33.8308458,17.7048093 33.8308458,17.2913212 L33.8308458,12.0287452 C33.8308458,10.6379215 32.8535102,9.43504699 31.5754561,9.13432836 Z" id="Path" fill="#0B019F"></path>
                    <path d="M24.0574903,5.26257601 L28.5682698,5.26257601 C29.395246,5.26257601 30.0718629,5.93919292 30.0718629,6.76616915 L30.0718629,9.02155887 L24.0574903,9.02155887 L24.0574903,5.26257601 Z" id="Path" fill="#FFFFFF"></path>
                    <path d="M32.3272526,16.5395246 L29.9590934,16.5395246 C29.620785,15.2614704 28.4555003,14.2841349 27.0646766,14.2841349 C25.673853,14.2841349 24.5085683,15.2614704 24.1702598,16.5395246 L24.0574903,16.5395246 L24.0574903,10.525152 L30.8236595,10.525152 C31.6506357,10.525152 32.3272526,11.2017689 32.3272526,12.0287452 L32.3272526,16.5395246 Z" id="Path" fill="#FFFFFF"></path>
                    <path d="M6.76616915,18.7949143 C5.93919292,18.7949143 5.26257601,18.1182974 5.26257601,17.2913212 C5.26257601,16.4643449 5.93919292,15.787728 6.76616915,15.787728 C7.59314538,15.787728 8.2697623,16.4643449 8.2697623,17.2913212 C8.2697623,18.1182974 7.59314538,18.7949143 6.76616915,18.7949143 Z" id="Path" fill="#FFFFFF"></path>
                    <path d="M14.2841349,18.7949143 C13.4571587,18.7949143 12.7805417,18.1182974 12.7805417,17.2913212 C12.7805417,16.4643449 13.4571587,15.787728 14.2841349,15.787728 C15.1111111,15.787728 15.787728,16.4643449 15.787728,17.2913212 C15.787728,18.1182974 15.1111111,18.7949143 14.2841349,18.7949143 Z" id="Path" fill="#FFFFFF"></path>
                    <path d="M27.0646766,18.7949143 C26.2377004,18.7949143 25.5610835,18.1182974 25.5610835,17.2913212 C25.5610835,16.4643449 26.2377004,15.787728 27.0646766,15.787728 C27.8916528,15.787728 28.5682698,16.4643449 28.5682698,17.2913212 C28.5682698,18.1182974 27.8916528,18.7949143 27.0646766,18.7949143 Z" id="Path" fill="#FFFFFF"></path>
                </g>
                <path d="M22.5538972,16.5395246 L17.1785517,16.5395246 C16.8402432,15.2614704 15.6749585,14.2841349 14.2841349,14.2841349 C12.8933112,14.2841349 11.7280265,15.2614704 11.3897181,16.5395246 L9.69817579,16.5395246 C9.35986733,15.2614704 8.19458264,14.2841349 6.80375898,14.2841349 C5.41293532,14.2841349 4.24765064,15.2614704 3.90934218,16.5395246 L1.50359315,16.5395246 L1.50359315,9.02155887 L5.26257601,9.02155887 C5.67606412,9.02155887 6.01437258,8.68325041 6.01437258,8.2697623 C6.01437258,7.85627418 5.67606412,7.51796573 5.26257601,7.51796573 L1.50359315,7.51796573 L1.50359315,5.26257601 L5.26257601,5.26257601 C5.67606412,5.26257601 6.01437258,4.92426755 6.01437258,4.51077944 C6.01437258,4.09729132 5.67606412,3.75898286 5.26257601,3.75898286 L1.50359315,3.75898286 L1.50359315,3.00718629 C1.50359315,2.18021006 2.18021006,1.50359315 3.00718629,1.50359315 L21.050304,1.50359315 C21.8772803,1.50359315 22.5538972,2.18021006 22.5538972,3.00718629 L22.5538972,16.5395246 Z" id="Path" fill="#FE0000" fill-rule="nonzero"></path>
            </g>
        </g>
    </g>
</svg>