<?xml version="1.0" encoding="UTF-8"?>
<svg width="36px" height="35px" viewBox="0 0 36 35" version="1.1" xmlns="http://www.w3.org/2000/svg" xmlns:xlink="http://www.w3.org/1999/xlink">
    <!-- Generator: Sketch 63.1 (92452) - https://sketch.com -->
    <title>Group 4 Copy</title>
    <desc>Created with Sketch.</desc>
    <g id="Page-1" stroke="none" stroke-width="1" fill="none" fill-rule="evenodd">
        <g id="4_PERSONNALISATION" transform="translate(-10.000000, -1380.000000)" stroke="#0B019F" stroke-width="2">
            <g id="Group-4-Copy" transform="translate(11.000000, 1381.000000)">
                <g id="Group-3">
                    <circle id="Oval" fill="#FFFFFF" cx="16.6319166" cy="17.967923" r="13.3600642"></circle>
                    <path d="M9.81555734,29.011481 C6.84452694,26.7865542 4.88867303,23.2896412 4.768834,19.3311949 C4.35302121,19.5137943 3.89422818,19.6170099 3.41065831,19.6170099 C3.12783145,19.6170099 2.85494904,19.5787446 2.59251673,19.5132908 L0.545308741,32.4186047 L9.81555734,32.4186047 L9.81555734,29.011481 Z" id="Fill-6" fill="#E20613"></path>
                    <path d="M33.2638332,29.011481 C30.2928028,26.7865542 28.3369489,23.2896412 28.2171099,19.3311949 C27.8012971,19.5137943 27.342504,19.6170099 26.8589342,19.6170099 C26.5761073,19.6170099 26.3032249,19.5787446 26.0407926,19.5132908 L23.9935846,32.4186047 L33.2638332,32.4186047 L33.2638332,29.011481 Z" id="Fill-6-Copy" fill="#E20613" transform="translate(28.628709, 25.874900) scale(-1, 1) translate(-28.628709, -25.874900) "></path>
                    <path d="M1.69460462,22.6030473 C4.07152305,22.6030473 5.99839615,20.7719745 5.99839615,18.5132318 C5.99839615,16.254489 4.07152305,14.4234162 1.69460462,14.4234162 C-0.682313804,14.4234162 -0.44429047,22.6030473 1.69460462,22.6030473 Z" id="Oval-Copy-21" fill="#FFFFFF" transform="translate(2.999198, 18.513232) rotate(-180.000000) translate(-2.999198, -18.513232) "></path>
                    <path d="M29.5053504,22.6030473 C31.8822688,22.6030473 33.8091419,20.7719745 33.8091419,18.5132318 C33.8091419,16.254489 31.8822688,14.4234162 29.5053504,14.4234162 C27.128432,14.4234162 27.3664553,22.6030473 29.5053504,22.6030473 Z" id="Oval-Copy-23" fill="#FFFFFF" transform="translate(30.809944, 18.513232) scale(-1, 1) rotate(-180.000000) translate(-30.809944, -18.513232) "></path>
                    <path d="M23.4482759,20.4218123 C23.4482759,23.9345523 20.6406011,25.329591 17.1772253,25.329591 C13.7138496,25.329591 10.9061748,23.9345523 10.9061748,20.4218123 L23.4482759,20.4218123 Z" id="default-big-copy" fill="#E20613"></path>
                    <path d="M4.934719,15.1873568 C8.15032637,13.740195 10.8335191,11.3368035 12.6060205,8.33808722 C16.741346,12.2527265 22.2024284,14.8041903 28.2548555,15.2686447 C28.8291684,14.6458306 29.6340921,14.2355119 30.5372895,14.1749675 L30.0903746,11.3735685 C29.8052619,9.58557071 29.1650359,7.91495135 28.2444661,6.43304822 C27.0619469,4.53003299 25.4151403,2.94205076 23.4610798,1.81869162 C21.452858,0.664301401 19.1213724,-6.18006938e-14 16.6321721,-6.18006938e-14 C16.0539418,-6.18006938e-14 15.4845681,0.0374396829 14.9255838,0.106922338 C13.0776315,0.336619852 11.3449846,0.932619129 9.80326437,1.81869162 C9.25415854,2.13456787 8.73008948,2.48805244 8.23293069,2.87391728 C6.96116479,3.86084082 5.87010648,5.06498197 5.01987809,6.43304822 C4.09930829,7.91495135 3.45908223,9.58557071 3.17396958,11.3733999 L3.17396958,11.3735685 L2.7265437,14.1783405 C3.59056787,14.2358492 4.36636721,14.6095714 4.934719,15.1873568" id="long-01" fill="#E20613"></path>
                </g>
            </g>
        </g>
    </g>
</svg>