<?xml version="1.0" encoding="UTF-8"?>
<svg width="36px" height="33px" viewBox="0 0 36 33" version="1.1" xmlns="http://www.w3.org/2000/svg" xmlns:xlink="http://www.w3.org/1999/xlink">
    <!-- Generator: Sketch 63.1 (92452) - https://sketch.com -->
    <title>Group 2 Copy 3</title>
    <desc>Created with Sketch.</desc>
    <g id="Page-1" stroke="none" stroke-width="1" fill="none" fill-rule="evenodd">
        <g id="4_PERSONNALISATION" transform="translate(-24.000000, -1259.000000)" stroke="#0B019F" stroke-width="2">
            <g id="Group-2-Copy-3" transform="translate(25.000000, 1260.000000)">
                <circle id="Oval-Copy-4" cx="16.7258065" cy="17.2741935" r="13.4354839"></circle>
                <path d="M1.70417094,21.9354839 C4.09450745,21.9354839 6.03225806,20.0940744 6.03225806,17.8225806 C6.03225806,15.5510869 4.09450745,13.7096774 1.70417094,13.7096774 C-0.686165576,13.7096774 -0.446798562,21.9354839 1.70417094,21.9354839 Z" id="Oval-Copy-25" fill="#FFFFFF" transform="translate(3.016129, 17.822581) rotate(-180.000000) translate(-3.016129, -17.822581) "></path>
                <path d="M29.6719129,21.9354839 C32.0622494,21.9354839 34,20.0940744 34,17.8225806 C34,15.5510869 32.0622494,13.7096774 29.6719129,13.7096774 C27.2815764,13.7096774 27.5209434,21.9354839 29.6719129,21.9354839 Z" id="Oval-Copy-26" fill="#FFFFFF" transform="translate(30.983871, 17.822581) scale(-1, 1) rotate(-180.000000) translate(-30.983871, -17.822581) "></path>
                <path d="M23.5806452,20.2903226 C23.5806452,23.8228925 20.7571206,25.2258065 17.2741935,25.2258065 C13.7912665,25.2258065 10.9677419,23.8228925 10.9677419,20.2903226 L23.5806452,20.2903226 Z" id="default-big-copy-3" fill="#E20613"></path>
                <path d="M30.6653742,13.9014019 L30.6653742,13.166992 C30.6653742,10.9210701 30.1334469,8.80063223 29.1906563,6.92563139 C29.6160952,6.47572106 30.0152979,5.99487184 30.3827771,5.48204667 L30.9316808,4.71583366 C31.6777852,3.67480028 31.0765804,2.20632617 29.8192976,1.99839604 L18.8312773,0.181124763 C10.6886051,-1.16549503 3.29032258,5.16799094 3.29032258,13.4850232 L3.29032258,13.9109083 C4.22025227,14.0699239 5.02294466,14.6031445 5.5377241,15.3548387 L7.08926454,9.14268852 L16.719344,10.9736144 C20.2821597,11.6508133 23.8902457,10.8706 26.8131023,8.92870889 L28.402711,15.2927881 C28.9301799,14.5580325 29.7359589,14.0426147 30.6653742,13.9014019" id="short-13-copy" fill="#E20613"></path>
            </g>
        </g>
    </g>
</svg>