<?xml version="1.0" encoding="UTF-8"?>
<svg width="23px" height="34px" viewBox="0 0 23 34" version="1.1" xmlns="http://www.w3.org/2000/svg" xmlns:xlink="http://www.w3.org/1999/xlink">
    <!-- Generator: Sketch 63.1 (92452) - https://sketch.com -->
    <title>AIR Copy 2</title>
    <desc>Created with Sketch.</desc>
    <g id="Page-1" stroke="none" stroke-width="1" fill="none" fill-rule="evenodd">
        <g id="4_PERSONNALISATION" transform="translate(-73.000000, -1294.000000)">
            <g id="Group-10" transform="translate(73.000000, 1027.000000)">
                <g id="AIR-Copy-2" transform="translate(-0.000000, 267.000000)">
                    <g id="noun_Airdrop_2871528" fill="#207FEF" fill-rule="nonzero">
                        <path d="M11.2264151,0 C5.05188679,0 0,5.05188679 0,11.2264151 L0,13.8459119 C0,13.8459119 0,13.8833333 0,13.8833333 C0,13.9207547 0,13.9207547 0,13.9581761 C0,13.9955975 0,13.9955975 0.0374213836,14.0330189 C0.0374213836,14.0330189 0.0374213836,14.0704403 0.0374213836,14.0704403 L3.03113208,21.9289308 C2.32012579,22.3031447 1.87106918,23.0515723 1.87106918,23.9122642 L1.87106918,31.3965409 C1.87106918,32.6314465 2.88144654,33.6418239 4.1163522,33.6418239 L18.336478,33.6418239 C19.5713836,33.6418239 20.581761,32.6314465 20.581761,31.3965409 L20.581761,23.9496855 C20.581761,23.0889937 20.095283,22.3779874 19.4216981,21.9663522 L22.4154088,14.1078616 C22.4154088,14.1078616 22.4154088,14.0704403 22.4154088,14.0704403 C22.4154088,14.0330189 22.4154088,14.0330189 22.4528302,13.9955975 C22.4528302,13.9581761 22.4528302,13.9207547 22.4528302,13.9207547 C22.4528302,13.8833333 22.4528302,13.8833333 22.4528302,13.8833333 L22.4528302,11.2638365 C22.4528302,5.05188679 17.4009434,0 11.2264151,0 Z M1.49685535,13.7336478 C1.53427673,12.7606918 2.35754717,11.9748428 3.36792453,11.9748428 C4.41572327,11.9748428 5.23899371,12.7981132 5.23899371,13.8459119 C5.23899371,13.8833333 5.23899371,13.8833333 5.23899371,13.9207547 C5.23899371,13.9581761 5.23899371,13.9581761 5.23899371,13.9955975 L5.23899371,13.9955975 L6.73584906,21.7044025 L4.56540881,21.7044025 L1.49685535,13.7336478 Z M19.0849057,31.4339623 C19.0849057,31.8455975 18.7481132,32.1823899 18.336478,32.1823899 L4.1163522,32.1823899 C3.70471698,32.1823899 3.36792453,31.8455975 3.36792453,31.4339623 L3.36792453,23.9496855 C3.36792453,23.5380503 3.70471698,23.2012579 4.1163522,23.2012579 L18.336478,23.2012579 C18.7481132,23.2012579 19.0849057,23.5380503 19.0849057,23.9496855 L19.0849057,31.4339623 Z M6.73584906,13.8084906 C6.77327044,12.7981132 7.59654088,11.9748428 8.60691824,11.9748428 C9.65471698,11.9748428 10.4779874,12.7981132 10.4779874,13.8459119 L10.4779874,21.7044025 L8.2327044,21.7044025 L6.73584906,13.8084906 Z M11.9748428,21.7044025 L11.9748428,13.8459119 C11.9748428,12.7981132 12.7981132,11.9748428 13.8459119,11.9748428 C14.8562893,11.9748428 15.6795597,12.7981132 15.7169811,13.8084906 L14.2201258,21.7044025 L11.9748428,21.7044025 Z M17.9248428,21.7044025 L15.7169811,21.7044025 L17.2138365,13.9955975 L17.2138365,13.9955975 C17.2138365,13.9581761 17.2138365,13.9581761 17.2138365,13.9207547 C17.2138365,13.8833333 17.2138365,13.8833333 17.2138365,13.8459119 C17.2138365,12.7981132 18.0371069,11.9748428 19.0849057,11.9748428 C20.095283,11.9748428 20.8811321,12.7606918 20.9559748,13.7336478 L17.9248428,21.7044025 Z M19.0849057,10.4779874 C18.0371069,10.4779874 17.1015723,10.9644654 16.4654088,11.7128931 C15.8292453,10.9644654 14.8937107,10.4779874 13.8459119,10.4779874 C12.7981132,10.4779874 11.8625786,10.9644654 11.2264151,11.7128931 C10.5902516,10.9644654 9.65471698,10.4779874 8.60691824,10.4779874 C7.5591195,10.4779874 6.62358491,10.9644654 5.98742138,11.7128931 C5.35125786,10.9644654 4.41572327,10.4779874 3.36792453,10.4779874 C2.69433962,10.4779874 2.02075472,10.7025157 1.49685535,11.0393082 C1.6091195,5.76289308 5.91257862,1.49685535 11.2264151,1.49685535 C16.5402516,1.49685535 20.8437107,5.76289308 20.9559748,11.0393082 C20.4320755,10.7025157 19.7584906,10.4779874 19.0849057,10.4779874 Z" id="Shape"></path>
                    </g>
                    <path d="M11.2264151,1.59536954e-14 C5.05188679,1.59536954e-14 0,5.05188679 0,11.2264151 L0,13.8459119 C0,13.8459119 0,13.8833333 0,13.8833333 C0,13.9207547 0,13.9207547 0,13.9581761 C0,13.9955975 0,13.9955975 0.0374213836,14.0330189 C0.0374213836,14.0330189 0.0374213836,14.0704403 0.0374213836,14.0704403 L3.03113208,21.9289308 C2.32012579,22.3031447 1.87106918,23.0515723 1.87106918,23.9122642 L1.87106918,31.3965409 C1.87106918,32.6314465 2.88144654,33.6418239 4.1163522,33.6418239 L18.336478,33.6418239 C19.5713836,33.6418239 20.581761,32.6314465 20.581761,31.3965409 L20.581761,23.9496855 C20.581761,23.0889937 20.095283,22.3779874 19.4216981,21.9663522 L22.4154088,14.1078616 C22.4154088,14.1078616 22.4154088,14.0704403 22.4154088,14.0704403 C22.4154088,14.0330189 22.4154088,14.0330189 22.4528302,13.9955975 C22.4528302,13.9581761 22.4528302,13.9207547 22.4528302,13.9207547 C22.4528302,13.8833333 22.4528302,13.8833333 22.4528302,13.8833333 L22.4528302,11.2638365 C22.4528302,5.05188679 17.4009434,1.59536954e-14 11.2264151,1.59536954e-14 Z" id="Path" fill="#0B019F"></path>
                    <path d="M1.49685535,13.7336478 C1.53427673,12.7606918 2.35754717,11.9748428 3.36792453,11.9748428 C4.41572327,11.9748428 5.23899371,12.7981132 5.23899371,13.8459119 C5.23899371,13.8833333 5.23899371,13.8833333 5.23899371,13.9207547 C5.23899371,13.9581761 5.23899371,13.9581761 5.23899371,13.9955975 L5.23899371,13.9955975 L6.73584906,21.7044025 L4.56540881,21.7044025 L1.49685535,13.7336478 Z" id="Path" fill="#FFFFFF"></path>
                    <path d="M6.73584906,13.8084906 C6.77327044,12.7981132 7.59654088,11.9748428 8.60691824,11.9748428 C9.65471698,11.9748428 10.4779874,12.7981132 10.4779874,13.8459119 L10.4779874,21.7044025 L8.2327044,21.7044025 L6.73584906,13.8084906 Z" id="Path" fill="#FFFFFF"></path>
                    <path d="M11.9748428,21.7044025 L11.9748428,13.8459119 C11.9748428,12.7981132 12.7981132,11.9748428 13.8459119,11.9748428 C14.8562893,11.9748428 15.6795597,12.7981132 15.7169811,13.8084906 L14.2201258,21.7044025 L11.9748428,21.7044025 Z" id="Path" fill="#FFFFFF"></path>
                    <path d="M17.9248428,21.7044025 L15.7169811,21.7044025 L17.2138365,13.9955975 L17.2138365,13.9955975 C17.2138365,13.9581761 17.2138365,13.9581761 17.2138365,13.9207547 C17.2138365,13.8833333 17.2138365,13.8833333 17.2138365,13.8459119 C17.2138365,12.7981132 18.0371069,11.9748428 19.0849057,11.9748428 C20.095283,11.9748428 20.8811321,12.7606918 20.9559748,13.7336478 L17.9248428,21.7044025 Z" id="Path" fill="#FFFFFF"></path>
                    <path d="M19.0849057,31.4339623 C19.0849057,31.8455975 18.7481132,32.1823899 18.336478,32.1823899 L4.1163522,32.1823899 C3.70471698,32.1823899 3.36792453,31.8455975 3.36792453,31.4339623 L3.36792453,23.9496855 C3.36792453,23.5380503 3.70471698,23.2012579 4.1163522,23.2012579 L18.336478,23.2012579 C18.7481132,23.2012579 19.0849057,23.5380503 19.0849057,23.9496855 L19.0849057,31.4339623 Z" id="Path" fill="#FF0000"></path>
                    <path d="M19.0849057,10.4779874 C18.0371069,10.4779874 17.1015723,10.9644654 16.4654088,11.7128931 C15.8292453,10.9644654 14.8937107,10.4779874 13.8459119,10.4779874 C12.7981132,10.4779874 11.8625786,10.9644654 11.2264151,11.7128931 C10.5902516,10.9644654 9.65471698,10.4779874 8.60691824,10.4779874 C7.5591195,10.4779874 6.62358491,10.9644654 5.98742138,11.7128931 C5.35125786,10.9644654 4.41572327,10.4779874 3.36792453,10.4779874 C2.69433962,10.4779874 2.02075472,10.7025157 1.49685535,11.0393082 C1.6091195,5.76289308 5.91257862,1.49685535 11.2264151,1.49685535 C16.5402516,1.49685535 20.8437107,5.76289308 20.9559748,11.0393082 C20.4320755,10.7025157 19.7584906,10.4779874 19.0849057,10.4779874 Z" id="Path" fill="#FFFFFF"></path>
                </g>
            </g>
        </g>
    </g>
</svg>