<?xml version="1.0" encoding="UTF-8"?>
<svg width="34px" height="26px" viewBox="0 0 34 26" version="1.1" xmlns="http://www.w3.org/2000/svg" xmlns:xlink="http://www.w3.org/1999/xlink">
    <!-- Generator: Sketch 63.1 (92452) - https://sketch.com -->
    <title>TERRE</title>
    <desc>Created with Sketch.</desc>
    <g id="Page-1" stroke="none" stroke-width="1" fill="none" fill-rule="evenodd">
        <g id="4_PERSONNALISATION" transform="translate(-51.000000, -1393.000000)">
            <g id="TERRE" transform="translate(51.000000, 1393.000000)">
                <g id="Group-35" transform="translate(0.000000, 0.021739)">
                    <g id="noun_Tank_2871577" fill="#207FEF" fill-rule="nonzero">
                        <path d="M28.0869565,16.1764706 C27.2,16.1764706 26.423913,16.5808824 25.8695652,17.1691176 C25.3152174,16.5441176 24.5391304,16.1764706 23.6521739,16.1764706 C22.7652174,16.1764706 21.9891304,16.5808824 21.4347826,17.1691176 C20.8804348,16.5441176 20.1043478,16.1764706 19.2173913,16.1764706 C18.3304348,16.1764706 17.5543478,16.5808824 17,17.1691176 C16.4456522,16.5441176 15.6695652,16.1764706 14.7826087,16.1764706 C13.8956522,16.1764706 13.1195652,16.5808824 12.5652174,17.1691176 C12.0108696,16.5441176 11.2347826,16.1764706 10.3478261,16.1764706 C9.46086957,16.1764706 8.68478261,16.5808824 8.13043478,17.1691176 C7.57608696,16.5441176 6.8,16.1764706 5.91304348,16.1764706 C4.28695652,16.1764706 2.95652174,17.5 2.95652174,19.1176471 C2.95652174,20.7352941 4.28695652,22.0588235 5.91304348,22.0588235 C6.8,22.0588235 7.57608696,21.6544118 8.13043478,21.0661765 C8.68478261,21.6911765 9.46086957,22.0588235 10.3478261,22.0588235 C11.2347826,22.0588235 12.0108696,21.6544118 12.5652174,21.0661765 C13.1195652,21.6911765 13.8956522,22.0588235 14.7826087,22.0588235 C15.6695652,22.0588235 16.4456522,21.6544118 17,21.0661765 C17.5543478,21.6911765 18.3304348,22.0588235 19.2173913,22.0588235 C20.1043478,22.0588235 20.8804348,21.6544118 21.4347826,21.0661765 C21.9891304,21.6911765 22.7652174,22.0588235 23.6521739,22.0588235 C24.5391304,22.0588235 25.3152174,21.6544118 25.8695652,21.0661765 C26.423913,21.6911765 27.2,22.0588235 28.0869565,22.0588235 C29.7130435,22.0588235 31.0434783,20.7352941 31.0434783,19.1176471 C31.0434783,17.5 29.7130435,16.1764706 28.0869565,16.1764706 Z M5.91304348,20.5882353 C5.1,20.5882353 4.43478261,19.9264706 4.43478261,19.1176471 C4.43478261,18.3088235 5.1,17.6470588 5.91304348,17.6470588 C6.72608696,17.6470588 7.39130435,18.3088235 7.39130435,19.1176471 C7.39130435,19.9264706 6.72608696,20.5882353 5.91304348,20.5882353 Z M10.3478261,20.5882353 C9.53478261,20.5882353 8.86956522,19.9264706 8.86956522,19.1176471 C8.86956522,18.3088235 9.53478261,17.6470588 10.3478261,17.6470588 C11.1608696,17.6470588 11.826087,18.3088235 11.826087,19.1176471 C11.826087,19.9264706 11.1608696,20.5882353 10.3478261,20.5882353 Z M14.7826087,20.5882353 C13.9695652,20.5882353 13.3043478,19.9264706 13.3043478,19.1176471 C13.3043478,18.3088235 13.9695652,17.6470588 14.7826087,17.6470588 C15.5956522,17.6470588 16.2608696,18.3088235 16.2608696,19.1176471 C16.2608696,19.9264706 15.5956522,20.5882353 14.7826087,20.5882353 Z M19.2173913,20.5882353 C18.4043478,20.5882353 17.7391304,19.9264706 17.7391304,19.1176471 C17.7391304,18.3088235 18.4043478,17.6470588 19.2173913,17.6470588 C20.0304348,17.6470588 20.6956522,18.3088235 20.6956522,19.1176471 C20.6956522,19.9264706 20.0304348,20.5882353 19.2173913,20.5882353 Z M23.6521739,20.5882353 C22.8391304,20.5882353 22.173913,19.9264706 22.173913,19.1176471 C22.173913,18.3088235 22.8391304,17.6470588 23.6521739,17.6470588 C24.4652174,17.6470588 25.1304348,18.3088235 25.1304348,19.1176471 C25.1304348,19.9264706 24.4652174,20.5882353 23.6521739,20.5882353 Z M28.0869565,20.5882353 C27.273913,20.5882353 26.6086957,19.9264706 26.6086957,19.1176471 C26.6086957,18.3088235 27.273913,17.6470588 28.0869565,17.6470588 C28.9,17.6470588 29.5652174,18.3088235 29.5652174,19.1176471 C29.5652174,19.9264706 28.9,20.5882353 28.0869565,20.5882353 Z M28.4565217,13.2720588 L28.4565217,10.2941176 C28.4565217,8.67647059 27.126087,7.35294118 25.5,7.35294118 L21.4347826,7.35294118 L21.4347826,5.14705882 L31.0434783,5.14705882 C32.4847826,5.14705882 33.6304348,4.00735294 33.6304348,2.57352941 C33.6304348,1.13970588 32.4847826,0 31.0434783,0 L18.4782609,0 L18.1086957,0 L14.0434783,0 C12.4173913,0 11.0869565,1.32352941 11.0869565,2.94117647 L11.0869565,7.35294118 L8.5,7.35294118 C6.87391304,7.35294118 5.54347826,8.67647059 5.54347826,10.2941176 L5.54347826,13.2720588 C2.43913043,13.4558824 0,15.9926471 0,19.1176471 C0,22.3529412 2.66086957,25 5.91304348,25 L28.0869565,25 C31.3391304,25 34,22.3529412 34,19.1176471 C34,15.9926471 31.5608696,13.4558824 28.4565217,13.2720588 Z M26.9782609,10.2941176 L26.9782609,13.2352941 L20.326087,13.2352941 L20.326087,8.82352941 L20.6956522,8.82352941 L25.5,8.82352941 C26.3130435,8.82352941 26.9782609,9.48529412 26.9782609,10.2941176 Z M32.1521739,2.57352941 C32.1521739,3.19852941 31.6717391,3.67647059 31.0434783,3.67647059 L21.4347826,3.67647059 L21.4347826,2.94117647 C21.4347826,2.38970588 21.2869565,1.91176471 21.0282609,1.47058824 L31.0434783,1.47058824 C31.6717391,1.47058824 32.1521739,1.94852941 32.1521739,2.57352941 Z M12.5652174,2.94117647 C12.5652174,2.13235294 13.2304348,1.47058824 14.0434783,1.47058824 L18.1086957,1.47058824 L18.4782609,1.47058824 C19.2913043,1.47058824 19.9565217,2.13235294 19.9565217,2.94117647 L19.9565217,7.35294118 L19.5869565,7.35294118 L12.5652174,7.35294118 L12.5652174,2.94117647 Z M7.02173913,10.2941176 C7.02173913,9.48529412 7.68695652,8.82352941 8.5,8.82352941 L11.826087,8.82352941 L18.8478261,8.82352941 L18.8478261,13.2352941 L7.02173913,13.2352941 L7.02173913,10.2941176 Z M28.0869565,23.5294118 L5.91304348,23.5294118 C3.47391304,23.5294118 1.47826087,21.5441176 1.47826087,19.1176471 C1.47826087,16.6911765 3.47391304,14.7058824 5.91304348,14.7058824 L6.2826087,14.7058824 L19.5869565,14.7058824 L27.7173913,14.7058824 L28.0869565,14.7058824 C30.526087,14.7058824 32.5217391,16.6911765 32.5217391,19.1176471 C32.5217391,21.5441176 30.526087,23.5294118 28.0869565,23.5294118 Z M17,4.26470588 C17,4.30147059 17,4.375 17,4.41176471 C17,4.59558824 16.926087,4.77941176 16.7782609,4.92647059 C16.7413043,4.96323529 16.7043478,5 16.6673913,5 C16.6304348,5.03676471 16.5934783,5.03676471 16.5565217,5.07352941 C16.5195652,5.11029412 16.4826087,5.11029412 16.4086957,5.11029412 C16.3717391,5.11029412 16.2978261,5.11029412 16.2608696,5.11029412 C16.223913,5.11029412 16.15,5.11029412 16.1130435,5.11029412 C16.076087,5.11029412 16.0391304,5.07352941 15.9652174,5.07352941 C15.9282609,5.07352941 15.8913043,5.03676471 15.8173913,5 C15.7804348,4.96323529 15.7434783,4.96323529 15.7065217,4.92647059 C15.5956522,4.77941176 15.5217391,4.59558824 15.5217391,4.41176471 C15.5217391,4.22794118 15.5956522,4.04411765 15.7434783,3.89705882 C15.7804348,3.86029412 15.8173913,3.82352941 15.8543478,3.82352941 C15.8913043,3.78676471 15.9282609,3.78676471 16.0021739,3.75 C16.0391304,3.71323529 16.076087,3.71323529 16.15,3.71323529 C16.2608696,3.67647059 16.3347826,3.67647059 16.4456522,3.71323529 C16.4826087,3.71323529 16.5195652,3.75 16.5934783,3.75 C16.6304348,3.75 16.6673913,3.78676471 16.7043478,3.82352941 C16.7413043,3.86029412 16.7782609,3.86029412 16.8152174,3.89705882 C16.8521739,3.93382353 16.8891304,3.97058824 16.8891304,4.00735294 C16.926087,4.04411765 16.926087,4.08088235 16.9630435,4.15441176 C16.9630435,4.19117647 16.9630435,4.22794118 17,4.26470588 Z" id="Shape"></path>
                    </g>
                    <path d="M28.4565217,13.2720588 L28.4565217,10.2941176 C28.4565217,8.67647059 27.126087,7.35294118 25.5,7.35294118 L21.4347826,7.35294118 L21.4347826,5.14705882 L31.0434783,5.14705882 C32.4847826,5.14705882 33.6304348,4.00735294 33.6304348,2.57352941 C33.6304348,1.13970588 32.4847826,0 31.0434783,0 L18.4782609,0 L18.1086957,0 L14.0434783,0 C12.4173913,0 11.0869565,1.32352941 11.0869565,2.94117647 L11.0869565,7.35294118 L8.5,7.35294118 C6.87391304,7.35294118 5.54347826,8.67647059 5.54347826,10.2941176 L5.54347826,13.2720588 C2.43913043,13.4558824 0,15.9926471 0,19.1176471 C0,22.3529412 2.66086957,25 5.91304348,25 L28.0869565,25 C31.3391304,25 34,22.3529412 34,19.1176471 C34,15.9926471 31.5608696,13.4558824 28.4565217,13.2720588 Z" id="Path" fill="#0B019F"></path>
                    <path d="M26.9782609,10.2941176 L26.9782609,13.2352941 L20.326087,13.2352941 L20.326087,8.82352941 L20.6956522,8.82352941 L25.5,8.82352941 C26.3130435,8.82352941 26.9782609,9.48529412 26.9782609,10.2941176 Z" id="Path" fill="#FFFFFF"></path>
                    <path d="M32.1521739,2.57352941 C32.1521739,3.19852941 31.6717391,3.67647059 31.0434783,3.67647059 L21.4347826,3.67647059 L21.4347826,2.94117647 C21.4347826,2.38970588 21.2869565,1.91176471 21.0282609,1.47058824 L31.0434783,1.47058824 C31.6717391,1.47058824 32.1521739,1.94852941 32.1521739,2.57352941 Z" id="Path" fill="#FFFFFF"></path>
                    <path d="M12.5652174,2.94117647 C12.5652174,2.13235294 13.2304348,1.47058824 14.0434783,1.47058824 L18.1086957,1.47058824 L18.4782609,1.47058824 C19.2913043,1.47058824 19.9565217,2.13235294 19.9565217,2.94117647 L19.9565217,7.35294118 L19.5869565,7.35294118 L12.5652174,7.35294118 L12.5652174,2.94117647 Z" id="Path" fill="#FFFFFF"></path>
                    <path d="M7.02173913,10.2941176 C7.02173913,9.48529412 7.68695652,8.82352941 8.5,8.82352941 L11.826087,8.82352941 L18.8478261,8.82352941 L18.8478261,13.2352941 L7.02173913,13.2352941 L7.02173913,10.2941176 Z" id="Path" fill="#FFFFFF"></path>
                    <path d="M28.0869565,23.5294118 L5.91304348,23.5294118 C3.47391304,23.5294118 1.47826087,21.5441176 1.47826087,19.1176471 C1.47826087,16.6911765 3.47391304,14.7058824 5.91304348,14.7058824 L6.2826087,14.7058824 L19.5869565,14.7058824 L27.7173913,14.7058824 L28.0869565,14.7058824 C30.526087,14.7058824 32.5217391,16.6911765 32.5217391,19.1176471 C32.5217391,21.5441176 30.526087,23.5294118 28.0869565,23.5294118 Z" id="Path" fill="#FE0000"></path>
                    <path d="M17,4.26470588 C17,4.30147059 17,4.375 17,4.41176471 C17,4.59558824 16.926087,4.77941176 16.7782609,4.92647059 C16.7413043,4.96323529 16.7043478,5 16.6673913,5 C16.6304348,5.03676471 16.5934783,5.03676471 16.5565217,5.07352941 C16.5195652,5.11029412 16.4826087,5.11029412 16.4086957,5.11029412 C16.3717391,5.11029412 16.2978261,5.11029412 16.2608696,5.11029412 C16.223913,5.11029412 16.15,5.11029412 16.1130435,5.11029412 C16.076087,5.11029412 16.0391304,5.07352941 15.9652174,5.07352941 C15.9282609,5.07352941 15.8913043,5.03676471 15.8173913,5 C15.7804348,4.96323529 15.7434783,4.96323529 15.7065217,4.92647059 C15.5956522,4.77941176 15.5217391,4.59558824 15.5217391,4.41176471 C15.5217391,4.22794118 15.5956522,4.04411765 15.7434783,3.89705882 C15.7804348,3.86029412 15.8173913,3.82352941 15.8543478,3.82352941 C15.8913043,3.78676471 15.9282609,3.78676471 16.0021739,3.75 C16.0391304,3.71323529 16.076087,3.71323529 16.15,3.71323529 C16.2608696,3.67647059 16.3347826,3.67647059 16.4456522,3.71323529 C16.4826087,3.71323529 16.5195652,3.75 16.5934783,3.75 C16.6304348,3.75 16.6673913,3.78676471 16.7043478,3.82352941 C16.7413043,3.86029412 16.7782609,3.86029412 16.8152174,3.89705882 C16.8521739,3.93382353 16.8891304,3.97058824 16.8891304,4.00735294 C16.926087,4.04411765 16.926087,4.08088235 16.9630435,4.15441176 C16.9630435,4.19117647 16.9630435,4.22794118 17,4.26470588 Z" id="Path" fill="#207FEF"></path>
                    <path d="M10.3478261,20.5882353 C9.53478261,20.5882353 8.86956522,19.9264706 8.86956522,19.1176471 C8.86956522,18.3088235 9.53478261,17.6470588 10.3478261,17.6470588 C11.1608696,17.6470588 11.826087,18.3088235 11.826087,19.1176471 C11.826087,19.9264706 11.1608696,20.5882353 10.3478261,20.5882353 Z" id="Path" fill="#FFFFFF"></path>
                    <path d="M14.7826087,20.5882353 C13.9695652,20.5882353 13.3043478,19.9264706 13.3043478,19.1176471 C13.3043478,18.3088235 13.9695652,17.6470588 14.7826087,17.6470588 C15.5956522,17.6470588 16.2608696,18.3088235 16.2608696,19.1176471 C16.2608696,19.9264706 15.5956522,20.5882353 14.7826087,20.5882353 Z" id="Path" fill="#FFFFFF"></path>
                    <path d="M19.2173913,20.5882353 C18.4043478,20.5882353 17.7391304,19.9264706 17.7391304,19.1176471 C17.7391304,18.3088235 18.4043478,17.6470588 19.2173913,17.6470588 C20.0304348,17.6470588 20.6956522,18.3088235 20.6956522,19.1176471 C20.6956522,19.9264706 20.0304348,20.5882353 19.2173913,20.5882353 Z" id="Path" fill="#FFFFFF"></path>
                    <path d="M23.6521739,20.5882353 C22.8391304,20.5882353 22.173913,19.9264706 22.173913,19.1176471 C22.173913,18.3088235 22.8391304,17.6470588 23.6521739,17.6470588 C24.4652174,17.6470588 25.1304348,18.3088235 25.1304348,19.1176471 C25.1304348,19.9264706 24.4652174,20.5882353 23.6521739,20.5882353 Z" id="Path" fill="#FFFFFF"></path>
                    <path d="M28.0869565,20.5882353 C27.273913,20.5882353 26.6086957,19.9264706 26.6086957,19.1176471 C26.6086957,18.3088235 27.273913,17.6470588 28.0869565,17.6470588 C28.9,17.6470588 29.5652174,18.3088235 29.5652174,19.1176471 C29.5652174,19.9264706 28.9,20.5882353 28.0869565,20.5882353 Z" id="Path" fill="#FFFFFF"></path>
                </g>
                <path d="M6,20.5217391 C5.175,20.5217391 4.5,19.8467391 4.5,19.0217391 C4.5,18.1967391 5.175,17.5217391 6,17.5217391 C6.825,17.5217391 7.5,18.1967391 7.5,19.0217391 C7.5,19.8467391 6.825,20.5217391 6,20.5217391 Z" id="Path" fill="#FFFFFF"></path>
            </g>
        </g>
    </g>
</svg>