<?xml version="1.0" encoding="utf-8"?>
<svg width="26.666504px" height="26.666748px" viewBox="0 0 26.666504 26.666748" version="1.1" xmlns:xlink="http://www.w3.org/1999/xlink" xmlns="http://www.w3.org/2000/svg">
  <g id="Icône-Remix" transform="translate(-2.666504 -2.666748)">
    <path d="M16 29.3333C8.636 29.3333 2.66667 23.364 2.66667 16C2.66667 8.636 8.636 2.66667 16 2.66667C23.364 2.66667 29.3333 8.636 29.3333 16C29.3333 23.364 23.364 29.3333 16 29.3333ZM16 26.6667C21.891 26.6667 26.6667 21.891 26.6667 16C26.6667 10.109 21.891 5.33333 16 5.33333C10.109 5.33333 5.33333 10.109 5.33333 16C5.33333 21.891 10.109 26.6667 16 26.6667ZM22.6667 16L17.3333 16L17.3333 9.33333L14.6667 9.33333L14.6667 18.6667L22.6667 18.6667L22.6667 16Z" id="Couleur-icône" fill="#000091" fill-rule="evenodd" stroke="none" />
  </g>
</svg>
