<?xml version="1.0" encoding="utf-8"?>
<svg width="26.666504px" height="24px" viewBox="0 0 26.666504 24" version="1.1" xmlns:xlink="http://www.w3.org/1999/xlink" xmlns="http://www.w3.org/2000/svg">
  <g id="Icône-Remix" transform="translate(-2.666504 -4)">
    <path d="M28 4C28.7364 4 29.3333 4.59695 29.3333 5.33333L29.3333 26.6667C29.3333 27.403 28.7364 28 28 28L4 28C3.26362 28 2.66667 27.403 2.66667 26.6667L2.66667 5.33333C2.66667 4.59695 3.26362 4 4 4L28 4ZM26.6667 6.66667L5.33333 6.66667L5.33333 25.3333L26.6667 25.3333L26.6667 6.66667ZM12 17.3333L12 22.6667L9.33333 22.6667L9.33333 17.3333L12 17.3333ZM17.3333 9.33333L17.3333 22.6667L14.6667 22.6667L14.6667 9.33333L17.3333 9.33333ZM22.6667 13.3333L22.6667 22.6667L20 22.6667L20 13.3333L22.6667 13.3333Z" id="Couleur-icône" fill="#000091" fill-rule="evenodd" stroke="none" />
  </g>
</svg>
