<?xml version="1.0" encoding="utf-8"?>
<svg width="32px" height="32px" viewBox="0 0 32 32" version="1.1" xmlns:xlink="http://www.w3.org/1999/xlink" xmlns="http://www.w3.org/2000/svg">
  <g id="1.-FondamentauxIcônesTaillesMD">
    <g id="Icône-Remix">
      <path d="M29.3333 8.13733C30.0697 8.13733 30.6667 8.73429 30.6667 9.47067L30.6667 24C30.6667 24.7364 30.0697 25.3333 29.3333 25.3333L22.4 25.3333L18.6667 30L14.9333 25.3333L8 25.3333C7.26362 25.3333 6.66667 24.7364 6.66667 24L6.66667 9.47067C6.66667 8.73429 7.26362 8.13733 8 8.13733L29.3333 8.13733ZM28 10.804L9.33333 10.804L9.33333 22.6667L16.2147 22.6667L18.6667 25.7307L21.1187 22.6667L28 22.6667L28 10.804ZM25.3333 2.66667L25.3333 5.33333L4 5.33333L4 20L1.33333 20L1.33333 4C1.33333 3.26362 1.93029 2.66667 2.66667 2.66667L25.3333 2.66667Z" id="Couleur-icône" fill="#000091" fill-rule="evenodd" stroke="none" />
    </g>
  </g>
</svg>
