<?xml version="1.0" encoding="utf-8"?>
<svg width="26.666504px" height="26px" viewBox="0 0 26.666504 26" version="1.1" xmlns:xlink="http://www.w3.org/1999/xlink" xmlns="http://www.w3.org/2000/svg">
  <g id="Icône-Remix" transform="translate(-2.666504 -2.666748)">
    <path d="M28 2.66667C28.7364 2.66667 29.3333 3.26362 29.3333 4L29.3333 22.6667C29.3333 23.403 28.7364 24 28 24L8.60667 24L2.66667 28.6667L2.66667 4C2.66667 3.26362 3.26362 2.66667 4 2.66667L28 2.66667ZM26.6667 5.33333L5.33333 5.33333L5.33333 23.18L7.684 21.3333L26.6667 21.3333L26.6667 5.33333ZM17.3333 17.3333L17.3333 20L14.6667 20L14.6667 17.3333L17.3333 17.3333ZM16.6122 6.7043C19.05 7.02671 20.8197 9.18504 20.6581 11.6388C20.4965 14.0925 18.459 16.0001 16 16L14.6667 16L14.6667 13.3333L16 13.3333C17.0535 13.3333 17.9264 12.5159 17.9956 11.4647C18.0647 10.4134 17.3066 9.48874 16.2621 9.3506C15.2177 9.21246 14.2452 9.90823 14.0387 10.9413L11.4227 10.4173C11.9045 8.00596 14.1744 6.38188 16.6122 6.7043Z" id="Couleur-icône" fill="#000091" fill-rule="evenodd" stroke="none" />
  </g>
</svg>
