<svg xmlns="http://www.w3.org/2000/svg" xmlns:xlink="http://www.w3.org/1999/xlink" viewBox="0 0 1707.146 732"><g fill="#20459a"><path d="M695.677 246.2c-5.16 4.382-7.74 10.952-7.74 19.7v7.74h51.84v23.4h-51.84v45.9h-29.16v-76.86c0-16.2 5.068-28.8 15.2-37.8s24.328-13.5 42.57-13.5c7.2 0 13.978.75 20.34 2.25s11.88 3.7 16.56 6.57l-9 23.04c-7.2-4.68-15.84-7.02-25.92-7.02s-17.7 2.193-22.86 6.572zm162.18-.1v96.84h-26.82V331.8c-6.96 8.4-17.04 12.6-30.24 12.6-9.12 0-17.37-2.04-24.75-6.12s-13.17-9.9-17.37-17.46-6.3-16.318-6.3-26.28 2.098-18.72 6.3-26.28 10-13.38 17.37-17.46 15.63-6.12 24.75-6.12c12.358 0 22.02 3.9 28.98 11.7V246.1h28.08zm-34.56 67.95c4.68-4.86 7.02-11.368 7.02-19.53s-2.34-14.67-7.02-19.53-10.56-7.3-17.64-7.3c-7.2 0-13.14 2.43-17.82 7.3s-7.02 11.37-7.02 19.53 2.34 14.67 7.02 19.53 10.62 7.3 17.82 7.3c7.08 0 12.96-2.43 17.64-7.3zm138.687-63.18c7.38 4.14 13.17 9.962 17.37 17.46s6.3 16.23 6.3 26.2-2.102 18.7-6.3 26.2-10 13.32-17.37 17.46-15.57 6.2-24.57 6.2c-13.32 0-23.462-4.2-30.42-12.6v11.16h-26.82V209.4h28.08v46.98c7.08-7.8 16.8-11.7 29.16-11.7 9 0 17.2 2.07 24.57 6.2zm-11.7 63.18c4.618-4.86 6.93-11.368 6.93-19.53s-2.3-14.67-6.93-19.53-10.53-7.3-17.73-7.3-13.1 2.43-17.73 7.3-6.93 11.37-6.93 19.53 2.3 14.67 6.93 19.53 10.53 7.3 17.73 7.3 13.1-2.43 17.73-7.3zm90.897-65.8c5.698-2.4 12.268-3.6 19.7-3.6v25.92c-3.122-.238-5.22-.36-6.3-.36-8.04 0-14.34 2.25-18.9 6.75s-6.84 11.25-6.84 20.25v45.72h-28.08V246.1h26.82v12.78c3.358-4.68 7.9-8.22 13.6-10.62z"/><use xlink:href="#B"/><path d="M1222.9 246.11v131.76h-28.08v-45.18c-6.96 7.802-16.622 11.7-28.98 11.7-9.12 0-17.37-2.04-24.75-6.12s-13.17-9.9-17.37-17.46-6.3-16.318-6.3-26.28 2.1-18.72 6.3-26.28 10-13.38 17.37-17.46 15.63-6.12 24.75-6.12c13.2 0 23.28 4.202 30.24 12.6V246.1h26.82zm-34.56 67.95c4.68-4.86 7.02-11.368 7.02-19.53s-2.34-14.67-7.02-19.53-10.56-7.3-17.64-7.3c-7.2 0-13.14 2.43-17.82 7.3s-7.02 11.37-7.02 19.53 2.34 14.67 7.02 19.53 10.62 7.3 17.82 7.3c7.08 0 12.96-2.43 17.64-7.3z"/><use xlink:href="#C"/><path d="M1427.457 319.64c3.897-1.5 7.528-3.87 10.9-7.1l14.94 16.2c-9.12 10.44-22.44 15.66-39.96 15.66-10.92 0-20.58-2.13-28.98-6.39s-14.88-10.17-19.44-17.73-6.84-16.14-6.84-25.74c0-9.48 2.25-18.028 6.75-25.65s10.68-13.56 18.54-17.82 16.71-6.39 26.55-6.39c9.24 0 17.64 1.952 25.2 5.85s13.6 9.54 18.1 16.92 6.75 16.11 6.75 26.19l-71.64 13.86c2.04 4.8 5.248 8.4 9.63 10.8s9.748 3.6 16.1 3.6c5.04 0 9.508-.75 13.4-2.25zm-34.83-46.89c-4.44 4.563-6.78 10.862-7.02 18.9l47.16-9.18c-1.322-5.04-4.02-9.06-8.1-12.06s-9-4.5-14.76-4.5c-7.08.001-12.84 2.282-17.278 6.84z"/></g><g fill="#d84646"><path d="M745.808 423.47c7.38 7.2 11.07 17.883 11.07 32.04v55.44h-28.08v-51.12c0-7.678-1.682-13.4-5.04-17.2s-8.22-5.67-14.58-5.67c-7.082 0-12.72 2.2-16.92 6.57s-6.3 10.9-6.3 19.53v47.88h-28.08V414.1h26.82v11.34c3.718-4.078 8.34-7.23 13.86-9.45s11.58-3.33 18.18-3.33c11.998 0 21.7 3.6 29.07 10.8zm130.41-9.36v96.84h-26.64v-11.52c-3.72 4.2-8.162 7.4-13.32 9.63s-10.74 3.33-16.738 3.33c-12.723 0-22.8-3.66-30.24-10.98s-11.16-18.18-11.16-32.58V414.1h28.08v50.58c0 15.6 6.54 23.4 19.62 23.4 6.72 0 12.12-2.188 16.2-6.57s6.12-10.9 6.12-19.53V414.1h28.08zm175.41 9.27c7.138 7.142 10.7 17.852 10.7 32.13v55.44h-28.08v-51.12c0-7.678-1.592-13.4-4.77-17.2s-7.712-5.67-13.6-5.67c-6.6 0-11.82 2.133-15.66 6.4s-5.76 10.592-5.76 19v48.6h-28.08v-51.12c0-15.238-6.12-22.86-18.36-22.86-6.48 0-11.642 2.133-15.48 6.4s-5.76 10.592-5.76 19v48.6h-28.08v-96.84h26.82v11.16c3.6-4.078 8-7.2 13.23-9.36s10.95-3.24 17.2-3.24c6.84 0 13.02 1.35 18.54 4.05s9.96 6.633 13.32 11.8c3.96-5.04 8.97-8.938 15.03-11.7s12.7-4.14 19.9-4.14c12.12-.002 21.75 3.57 28.892 10.708zm95.58 64.26c3.897-1.5 7.528-3.87 10.9-7.1l14.94 16.2c-9.12 10.44-22.44 15.66-39.96 15.66-10.92 0-20.58-2.13-28.98-6.4s-14.88-10.17-19.44-17.73-6.84-16.14-6.84-25.74c0-9.478 2.25-18.028 6.75-25.65s10.68-13.56 18.54-17.82 16.7-6.4 26.55-6.4c9.24 0 17.64 1.952 25.2 5.85s13.6 9.54 18.1 16.92 6.75 16.1 6.75 26.2l-71.64 13.86c2.04 4.8 5.248 8.4 9.63 10.8s9.748 3.6 16.1 3.6c5.04-.001 9.508-.75 13.4-2.25zm-34.83-46.9c-4.44 4.563-6.78 10.862-7.02 18.9l47.16-9.18c-1.322-5.04-4.02-9.06-8.1-12.06s-9-4.5-14.76-4.5c-7.08.001-12.84 2.282-17.278 6.84zm24.66-64.98h30.24l-32.58 25.92h-21.96l24.3-25.92zm98.368 40.5c5.698-2.4 12.268-3.6 19.7-3.6v25.92c-3.122-.238-5.22-.36-6.3-.36-8.04 0-14.34 2.25-18.9 6.75s-6.84 11.25-6.84 20.25v45.72h-28.08V414.1h26.82v12.78c3.358-4.68 7.9-8.22 13.6-10.62z"/><use xlink:href="#B" x="194.224" y="168"/><path d="M1417.113 414.11v131.76h-28.08v-45.18c-6.96 7.802-16.622 11.7-28.98 11.7-9.12 0-17.37-2.04-24.75-6.12s-13.17-9.9-17.37-17.46-6.3-16.318-6.3-26.28 2.1-18.72 6.3-26.28 10-13.38 17.37-17.46 15.63-6.12 24.75-6.12c13.2 0 23.28 4.202 30.24 12.6V414.1h26.82zm-34.56 67.95c4.68-4.86 7.02-11.368 7.02-19.53s-2.34-14.67-7.02-19.53-10.56-7.3-17.64-7.3c-7.2 0-13.14 2.43-17.82 7.3s-7.02 11.37-7.02 19.53 2.34 14.67 7.02 19.53 10.62 7.3 17.82 7.3c7.08 0 12.96-2.43 17.64-7.3z"/><use xlink:href="#C" x="194.223" y="168"/><path d="M1621.68 487.64c3.897-1.5 7.528-3.87 10.9-7.1l14.94 16.2c-9.12 10.44-22.44 15.66-39.96 15.66-10.92 0-20.58-2.13-28.98-6.4s-14.88-10.17-19.44-17.73-6.84-16.14-6.84-25.74c0-9.478 2.25-18.028 6.75-25.65s10.68-13.56 18.54-17.82 16.7-6.4 26.55-6.4c9.24 0 17.64 1.952 25.2 5.85s13.6 9.54 18.1 16.92 6.75 16.1 6.75 26.2l-71.64 13.86c2.04 4.8 5.248 8.4 9.63 10.8s9.748 3.6 16.1 3.6c5.04-.001 9.5-.75 13.4-2.25zm-34.83-46.9c-4.44 4.563-6.78 10.862-7.02 18.9l47.16-9.18c-1.322-5.04-4.02-9.06-8.1-12.06s-9-4.5-14.76-4.5c-7.08.001-12.84 2.282-17.278 6.84zM582.804 516.016l-256.402 148L70 516.016v-296l256.402-148 256.402 148v296z"/></g><path fill="#9a2020" d="M70.868 219.516l-.867.5v296l256.4 148 256.402-148v-296l-.867-.5-255.535 147.5-255.533-147.5z"/><path fill="#470f0f" d="M581.936 219.516L326.4 367.016v297l256.402-148v-296l-.867-.5z"/><use xlink:href="#D" fill="#fff"/><use xlink:href="#D" fill="#f5f5f5"/><path fill="#fff" d="M326.4 172.95c-4.597 0-9.192.165-13.777.5-6.478.46-12.93 1.245-19.328 2.35l-.213.035-.21.047-1.065.24-7.12 1.62v50.76c0 23.635-39.118 45.608-59.578 33.777l-43.326-25.053-4.938 5.9a194.8 194.8 0 0 0-11.191 14.744l-.01.01-.01.01c-2.663 3.9-5.18 7.896-7.555 11.977l168.322 97.16 168.305-97.15c-1.418-2.44-2.88-4.855-4.4-7.23-3.51-5.473-7.3-10.767-11.327-15.86l-.106-.137-.11-.13-3.128-3.563-4.96-5.52-43.096 24.92c-20.313 11.746-59.463-9.577-59.463-33.04v-51.71l-7.437-1.418a194.4 194.4 0 0 0-14.725-2.229l-.053-.01-.053-.012a194.56 194.56 0 0 0-19.445-.977h0zm22.965 19.994l.45.072v1.7l-.45-1.77z"/><path fill="#dfe5f7" d="M494.707 269.868l-168.305 97.148v196.072a194.65 194.65 0 0 0 13.77-.49 194.36 194.36 0 0 0 19.33-2.35l.213-.037.21-.047 1.063-.238 7.12-1.62v-51.658c0-23.395 38.97-44.795 59.223-33.084l43.684 25.26 4.938-5.9c3.96-4.734 7.696-9.655 11.19-14.744l.01-.01.01-.01c3.666-5.368 7.063-10.914 10.176-16.62s5.938-11.57 8.467-17.56l.047-.1.043-.1c1.137-2.903 2.204-5.832 3.2-8.786l2.395-7.097-43.102-24.925c-22.002-12.723-20.39-58.07.06-69.894l43.023-24.877-2.256-7.025-1.208-3.637-.066-.174c-2.353-6.06-5.008-12-7.953-17.795a195.31 195.31 0 0 0-5.283-9.682l-.003.001zM349.816 541.37v1.637l-.506.07.506-1.707z"/><circle fill="#9a2020" cx="326.402" cy="368.015" r="94.732"/><use xlink:href="#E" fill="#d84646"/><use xlink:href="#F" fill="#470f0f"/><circle fill="#20459a" cx="326.402" cy="368.015" r="94.732"/><use xlink:href="#E" fill="#4672d8"/><use xlink:href="#F" fill="#121e44"/><defs ><path id="B" d="M1075.47 228.11c-3.24-2.998-4.86-6.72-4.86-11.16s1.62-8.16 4.86-11.16 7.438-4.5 12.6-4.5 9.36 1.44 12.6 4.32 4.86 6.48 4.86 10.8c0 4.68-1.62 8.55-4.86 11.6s-7.44 4.6-12.6 4.6-9.36-1.5-12.6-4.5zm-1.44 18h28.08v96.84h-28.08v-96.84z"/><path id="C" d="M1342.767 246.11v96.84h-26.64v-11.52c-3.72 4.2-8.162 7.4-13.32 9.63s-10.74 3.33-16.74 3.33c-12.722 0-22.8-3.66-30.24-10.98s-11.16-18.18-11.16-32.58v-54.72h28.08v50.58c0 15.6 6.54 23.4 19.62 23.4 6.72 0 12.12-2.188 16.2-6.57s6.12-10.89 6.12-19.53v-47.88h28.08z"/><path id="D" d="M326.4 172.95c-4.597 0-9.192.165-13.777.5-6.478.46-12.93 1.245-19.328 2.35l-.213.035-.21.047-1.065.24-7.12 1.62v50.76c0 23.635-39.118 45.608-59.578 33.777l-43.326-25.053-4.938 5.9a194.8 194.8 0 0 0-11.191 14.744l-.01.01-.01.01c-3.667 5.368-7.064 10.915-10.178 16.623a195.51 195.51 0 0 0-8.467 17.555l-.047.11-.043.11c-1.138 2.903-2.206 5.83-3.203 8.785l-2.396 7.1 43.12 24.932c21.998 12.72 20.376 58.06-.07 69.883l-43.03 24.882 2.256 7.025 1.146 3.46.062.178.067.174a195.68 195.68 0 0 0 7.953 17.797 194.89 194.89 0 0 0 9.686 16.912 195.16 195.16 0 0 0 11.326 15.86l.107.134.11.133 3.127 3.563 4.96 5.52 43.17-24.963c20.393-11.792 59.387 10.127 59.387 33.684v51.112l7.435 1.42a195.06 195.06 0 0 0 14.725 2.229l.056.01.053.01c6.462.65 12.953.975 19.447.975a194.25 194.25 0 0 0 13.777-.49 194.36 194.36 0 0 0 19.33-2.35l.213-.037.21-.047 1.063-.238 7.12-1.62V506.65c0-23.395 38.97-44.795 59.223-33.084l43.684 25.26 4.938-5.9c3.96-4.734 7.696-9.655 11.19-14.744l.02-.02a194.99 194.99 0 0 0 10.176-16.621 195.45 195.45 0 0 0 8.467-17.559l.047-.11.043-.11c1.137-2.902 2.204-5.83 3.2-8.785l2.395-7.097-43.102-24.924c-22.002-12.724-20.39-58.07.06-69.895l43.023-24.877-2.256-7.025-1.148-3.46-.06-.176-.066-.174c-2.352-6.06-5.008-12-7.953-17.795s-6.178-11.44-9.686-16.912-7.29-10.767-11.326-15.86l-.107-.137-.11-.13-3.127-3.563-4.96-5.52-43.096 24.92c-20.313 11.746-59.463-9.577-59.463-33.04v-51.71l-7.436-1.418c-4.878-.93-9.8-1.674-14.725-2.23l-.053-.01-.053-.012a194.59 194.59 0 0 0-19.445-.977h-.002zm22.965 19.994l.45.072v1.7l-.45-1.77zm.45 348.426v1.637l-.506.07.506-1.707z"/><path id="E" d="M326.4 273.284c-33.467.044-64.427 17.743-81.445 46.56l81.445 47.012 81.443-47c-17.017-28.816-47.976-46.516-81.443-46.56z"/><path id="F" d="M407.845 319.846l-81.443 47v95.892c52.32 0 94.732-42.413 94.732-94.732h0c-.04-16.957-4.628-33.592-13.29-48.17z"/></defs></svg>