<svg xmlns="http://www.w3.org/2000/svg" xmlns:xlink="http://www.w3.org/1999/xlink" width="150" height="52"><defs><path id="A" d="M0 .014h19.393v18.57H0z"/><path id="B" d="M9.375 41.513h0c-.513 0-.932-.4-.932-.888v-1.108c0-.487.418-.888.932-.888s.932.4.932.888v1.108c0 .487-.418.888-.932.888"/><path id="C" d="M16.587 47.282h0c-.513 0-.932-.402-.932-.89v-1.107c0-.5.418-.89.932-.89s.932.4.932.89v1.107c0 .487-.418.89-.932.89"/><path id="D" d="M65.49 24.58c0-2.323-1.81-4.162-4.146-4.162a4.12 4.12 0 0 0-4.164 4.162c0 2.326 1.827 4.165 4.164 4.165s4.146-1.84 4.146-4.165h0zm1-4.885v9.773h-1v-2.2c-.825 1.47-2.337 2.425-4.224 2.425-2.8 0-5.088-2.207-5.088-5.103s2.298-5.1 5.088-5.1c1.887 0 3.4.956 4.224 2.425v-2.2h1z"/><path id="E" d="M106.663 41.08h-3.147v9.504h-2.796V41.08h-3.147v-2.678h9.1z"/></defs><g fill="none" fill-rule="evenodd"><g fill="#fe0000"><path d="M16.012 31.492l-4.93 3.03-1.865 1.132-.05-.7c-.288-5.265-.58-6.42-.852-11.688-.018-.382-.147-.636-.474-.8-1.22-.603-2.435-.59-3.607.113-.183.108-.348.394-.36.61l-.705 8.36-.618 11.085-.384 7.262c-.012.245-.036.84.35 1.25.4.42 1.022.445 1.328.43l31.993-.012c.138.024 1.157.173 1.787-.47.5-.508.558-1.3.585-1.74.006-.1.006-.22.006-.334V31.656c0-.19-.024-.382-.04-.657l-7.058 4.273v-4.267l-7.04 4.21-.255-2.953.102.627c.012-.006.02-.01.033-.012v-1.68c-.31.108-.567.15-.774.272l-4.99 2.974-1.376.803c0-.732-.036-1.323.01-1.908l-.006-1.374"/><path d="M3.842 51.61c-1.165.003-1.724-.505-1.676-1.682l.385-7.267.645-11.448.67-8.01a.89.89 0 0 1 .358-.61c1.17-.705 2.38-.717 3.596-.114.323.164.45.418.472.8.272 5.27.562 6.428.845 11.696.012.197.03.39.054.7l1.858-1.133L16.776 31l-.006.97.006 1.375-.012 1.91 1.374-.804L24 31v4.225L31 31.01v4.27"/></g><g transform="translate(0 .407)"><mask id="F" fill="#fff"><use xlink:href="#A"/></mask><path d="M12.637 14.62h-1.494a.65.65 0 0 0-.538.224L7.368 18.23c-.438.45-1.094.484-1.46.03-.166-.22-.257-.5-.27-.768v-2.697c.033-.154-.07-.305-.227-.336-.006-.003-.015-.003-.02-.003C2.485 13.695.804 11.754.2 8.91a7.33 7.33 0 0 1 1.871-6.805A6.24 6.24 0 0 1 6.645.027h5.92c2.576.048 4.487 1.246 5.784 3.428 2.03 3.428 1.004 8.012-2.222 10.12a6.33 6.33 0 0 1-3.489 1.046z" fill="#6e91f0" mask="url(#F)"/></g><path d="M20.644 19.004c-.134.024-.22.153-.194.288l.003 1.793c.042.387-.182.757-.543.898-.352.138-.755.027-.985-.276l-2.248-2.35a.8.8 0 0 0-.466-.201c-.737-.07-1.5-.012-2.197-.18-1.412-.33-2.42-1.237-3.197-2.6.188-.078.385-.13.585-.16.94-.012 1.884.027 2.806-.228 2.6-.718 4.382-2.37 5.38-4.856.346-.877.504-1.82.767-2.78.52.066 1.018.246 1.46.532 2.02 1.2 3.063 3.577 2.594 5.895-.448 2.132-1.648 3.604-3.764 4.237z" fill="#6e91f0"/><g fill="#fff"><path d="M7.933 46.393v-1.107c0-.5.486-.89 1.082-.89s1.082.4 1.082.89v1.107c0 .487-.486.89-1.082.89s-1.082-.402-1.082-.89z"/><use xlink:href="#B"/><use xlink:href="#C"/><use xlink:href="#B" x="7.212"/><use xlink:href="#C" x="7.933"/><use xlink:href="#B" x="15.145"/><use xlink:href="#C" x="14.413"/><path d="M31 41.513h0c-.513 0-.932-.4-.932-.89v-1.107c0-.5.418-.89.932-.89s.932.4.932.89v1.107c0 .5-.418.89-.932.89"/></g><g fill="#000"><path d="M55.382 28.5v.976h-7.52V15.785h1.04V28.5z"/><use xlink:href="#D"/><path d="M76.446 19.168v.53h2.928v.956h-2.928v8.815h-1.002v-8.815h-1.686v-.956h1.686v-.53c0-2.407 1.356-3.795 3.93-3.598v.938c-2.004-.155-2.928.764-2.928 2.66"/><use xlink:href="#D" x="23.383"/><path d="M102.2 24.58a4.163 4.163 0 1 0-8.325 0c0 2.326 1.827 4.165 4.164 4.165a4.12 4.12 0 0 0 4.161-4.165m.984 0c0 2.896-2.28 5.103-5.088 5.103-1.902 0-3.414-.976-4.22-2.48v2.266h-.98V15.786h.98v6.175c.807-1.505 2.32-2.48 4.22-2.48 2.808 0 5.088 2.207 5.088 5.1m6.614-5.023v.938c-1.7 0-3.282 1.036-3.282 3.538v5.432h-.98v-9.77h.98V21.6c.67-1.544 1.947-2.05 3.282-2.05m1.978 9.914h.98v-9.77h-.98v9.77zm-.294-12.917c0-.4.35-.76.786-.76.43 0 .783.352.783.76 0 .43-.354.782-.783.782-.435 0-.786-.352-.786-.782h0zm12.955 8.033a4.163 4.163 0 1 0-8.325 0 4.163 4.163 0 1 0 8.325 0h0zm.98-4.885v13.682h-.98V27.2c-.807 1.505-2.316 2.48-4.22 2.48-2.8 0-5.088-2.207-5.088-5.103a5.04 5.04 0 0 1 5.088-5.1c1.905 0 3.414.976 4.22 2.48V19.69h.98z"/><path d="M136.48 19.695v9.77h-.98v-1.857c-.744 1.448-2 2.075-3.516 2.075-2.334 0-3.8-1.547-3.8-3.912v-6.076h1.002v6.076c0 1.8 1.04 2.97 2.886 2.97 1.926 0 3.438-1.25 3.438-3.888v-5.16h.98zm3.37 4.435h7.893c-.213-2.383-1.905-3.712-3.83-3.712-2.238 0-3.867 1.54-4.062 3.712m8.916.5l-.02.47h-8.895c.234 2.2 1.926 3.655 4.164 3.655 1.6 0 2.826-.74 3.4-1.78l.86.5c-.804 1.326-2.337 2.207-4.28 2.207-3.024 0-5.166-2.147-5.166-5.103 0-2.873 2.085-5.1 5.085-5.1 2.988 0 4.854 2.466 4.854 5.142M53.534 46.06l-1.437-4.473-1.43 4.473h2.868zm-2.38-8.7l-2.028-2.437h3.147l1.4 2.437h-2.52zm3.216 11.3h-4.545l-.6 1.917h-3.063l4.164-12.183h3.564l4.164 12.183H54.98l-.612-1.917zm8.58-4.177c0-3.586 2.676-6.336 6.366-6.336 2.22 0 4.18 1.096 5.244 2.82l-2.412 1.394c-.54-.94-1.593-1.5-2.832-1.5-2.17 0-3.567 1.445-3.567 3.622s1.398 3.62 3.567 3.62c1.24 0 2.3-.558 2.832-1.496l2.412 1.4c-1.047 1.723-3.006 2.82-5.244 2.82-3.7 0-6.366-2.75-6.366-6.333"/><path d="M85.32 38.402v12.183h-2.8v-4.84h-3.846v4.84H75.88V38.402h2.796v4.664h3.846v-4.664zm8.437 7.658l-1.437-4.473-1.43 4.473h2.868zm.837 2.6H90.05l-.6 1.917h-3.063l4.164-12.183h3.564l4.164 12.183h-3.063l-.612-1.917z"/><use xlink:href="#E"/><path d="M114.2 46.808c0-.68-.453-1.168-1.155-1.168h-2.343v2.332h2.343c.702 0 1.155-.487 1.155-1.165h0zm-3.498-5.796v2.156h1.995c.627 0 1.065-.45 1.065-1.078s-.42-1.078-1.065-1.078h-1.995zm6.297 6.002c0 2.16-1.767 3.57-3.954 3.57h-5.142v-12.18h4.794c2.133 0 3.864 1.374 3.864 3.48a3.05 3.05 0 0 1-1.065 2.383 3.15 3.15 0 0 1 1.503 2.75h0zm10.808-2.52c0-2.177-1.572-3.622-3.564-3.622-1.998 0-3.57 1.445-3.57 3.622s1.572 3.62 3.57 3.62c1.992 0 3.564-1.442 3.564-3.62m-9.933 0c0-3.586 2.853-6.336 6.37-6.336 3.5 0 6.363 2.75 6.363 6.336s-2.853 6.333-6.363 6.333c-3.516 0-6.37-2.75-6.37-6.333"/><use xlink:href="#E" x="33.034"/><path d="M139.964 47.817l2.415-1.394c.435 1.01 1.188 1.7 2.568 1.7 1.33 0 1.662-.523 1.662-.99 0-.75-.7-1.045-2.535-1.55-1.818-.505-3.603-1.377-3.603-3.71 0-2.347 1.995-3.706 4.1-3.706 2 0 3.585.956 4.476 2.75l-2.36 1.374c-.42-.872-.996-1.41-2.115-1.41-.873 0-1.31.433-1.31.923 0 .558.297.94 2.202 1.514 1.854.558 3.933 1.203 3.933 3.777 0 2.35-1.884 3.74-4.545 3.74-2.57 0-4.212-1.215-4.896-3"/></g></g></svg>