<?xml version="1.0" encoding="UTF-8"?>
<svg width="124px" height="43px" viewBox="0 0 124 43" version="1.1" xmlns="http://www.w3.org/2000/svg" xmlns:xlink="http://www.w3.org/1999/xlink">
    <title>Group 46</title>
    <defs>
        <polygon id="path-1" points="0 42.032855 123.67 42.032855 123.67 0 0 0"></polygon>
    </defs>
    <g id="Page-1" stroke="none" stroke-width="1" fill="none" fill-rule="evenodd">
        <g id="Group-46">
            <path d="M13.2054879,25.5079622 C11.8529828,26.3297292 10.5152054,27.1686673 9.17006421,27.9977933 C8.68404603,28.2995167 8.1955732,28.591428 7.64327981,28.9299469 C7.62609735,28.6846433 7.60891489,28.522743 7.59909634,28.3632956 C7.3659058,24.0361409 7.12535134,23.0868161 6.90443399,18.7621144 C6.88725153,18.4481259 6.78170212,18.2371648 6.5166013,18.1047009 C5.51756392,17.6091877 4.52098118,17.6189999 3.56367263,18.1954632 C3.41393976,18.2837725 3.2789347,18.5192639 3.26911616,18.6983355 L2.69227639,25.5643821 C2.52290642,28.6012401 2.35353644,31.6356451 2.18662111,34.6700501 C2.07616243,36.6594619 1.95343057,38.6439677 1.87242753,40.6358326 C1.86260899,40.8369815 1.84297189,41.3251356 2.1596201,41.6661075 C2.48363222,42.0119855 2.99665142,42.0267038 3.24702442,42.0168916 C11.9781693,42.0144386 20.7093141,42.0119855 29.4380043,42.0095325 C29.5509177,42.0242507 30.3830397,42.1493555 30.9009682,41.6219529 C31.3108926,41.2049368 31.3550761,40.5573354 31.3796224,40.1918331 C31.3845317,40.1010708 31.3845317,40.0078555 31.3845317,39.9170932 C31.3845317,35.1606572 31.3845317,30.4017682 31.3845317,25.6453322 C31.3845317,25.4858849 31.3648946,25.3313437 31.3526214,25.1056644 C29.413458,26.2806684 27.5430244,27.418877 25.5744052,28.6159583 L25.5744052,25.1105705 C23.6180593,26.2806684 21.725534,27.418877 19.8109169,28.5693506 C19.7397324,27.7328655 19.6759118,26.9994079 19.6022727,26.1408454 C19.6440015,26.3959611 19.6636386,26.525972 19.6857304,26.6559829 C19.6955489,26.6535299 19.7029128,26.6510768 19.7127314,26.6461707 L19.7127314,25.2651117 C19.4574491,25.353421 19.2488049,25.3877635 19.0769803,25.488338 C17.712202,26.2978397 16.3547876,27.1171536 14.9949185,27.9340144 C14.6488147,28.1400694 14.3027108,28.3363123 13.8657854,28.591428 C13.8657854,27.9928873 13.8363297,27.5047332 13.8756039,27.0239382 L13.8706946,25.8955419" id="Fill-1" fill="#FE0000"></path>
            <path d="M3.24872734,42.032855 C2.28811789,42.0352986 1.83115278,41.6180461 1.87046161,40.651002 C1.95399286,38.6580075 2.07683295,36.6699219 2.18738902,34.6818363 L2.71560138,25.2789277 L3.26838175,18.6986098 C3.27820896,18.521891 3.41578985,18.2862661 3.56319795,18.1979067 C4.52380739,17.618662 5.51881206,17.6088443 6.52118714,18.1046385 C6.78652172,18.239632 6.89216419,18.4482582 6.9093618,18.7624249 C7.13047395,23.0920335 7.36878371,24.0418967 7.60463667,28.3715053 C7.61446387,28.5310431 7.62920468,28.6905808 7.6488591,28.9360235 C8.20163947,28.5973126 8.690543,28.3052358 9.17698972,28.0033413 C10.5208602,27.1737451 13.8866785,25.1046634 13.8866785,25.1046634 L13.8817649,25.9023521 L13.8866785,27.0313883 C13.8866785,27.0313883 13.8768513,27.9984325 13.8768513,28.5973126 C14.3117052,28.3445066 14.660571,28.1481525 15.0045232,27.9419806 C16.3680482,27.1246566 19.8272249,25.1046634 19.8272249,25.1046634 C19.8272249,25.1046634 19.8173977,26.6583155 19.8272249,26.6558611 C19.8173977,26.6583155 19.8173977,26.6583155 19.8272249,26.6558611 L19.8272249,28.5776772 C21.7410734,27.426551 23.6377243,26.2901515 25.5933384,25.1144811 L25.5933384,28.6218568" id="Fill-3" fill="#FE0000"></path>
            <path d="M13.2043784,11.0493576 C12.355281,11.6060817 11.3626045,11.9016874 10.3476484,11.9016874 L9.12475011,11.9016874 C8.95641593,11.8893705 8.79303276,11.9583451 8.68411065,12.0839775 C7.80530721,13.0077453 6.91907728,13.9290497 6.03037183,14.842964 C5.67389946,15.2100077 5.13423988,15.2371049 4.83470407,14.8675978 C4.70102692,14.6853076 4.62428634,14.4685301 4.61685983,14.2418991 C4.59210481,13.510275 4.60200682,12.7737242 4.61685983,12.0445634 C4.64161486,11.9164676 4.55744777,11.795762 4.43119714,11.7686648 C4.42624613,11.7686648 4.41881962,11.7686648 4.41386862,11.7686648 C2.0349106,11.1478928 0.658531139,9.56640239 0.163430614,7.24836108 C-0.31186589,5.26041279 0.264926222,3.16900251 1.69329124,1.70329095 C2.64883525,0.641573837 4.01036169,0.0281920244 5.44120221,0.010948359 C6.2853486,-0.0136854488 7.1270195,0.010948359 7.97116589,0.010948359 C8.74352271,0.010948359 9.51587953,-0.00383192565 10.2882363,0.010948359 C12.3948891,0.0503624514 13.9618822,1.02339786 15.0238729,2.80442216 C16.6849351,5.59789596 15.8457397,9.33238121 13.2043784,11.0493576" id="Fill-5" fill="#6E91F0"></path>
            <path d="M20.0847073,11.7957616 C19.7184313,13.5400118 18.7368115,14.74379 17.0055468,15.2621517 C16.895664,15.2818052 16.8248507,15.3874429 16.8468272,15.497994 C16.8468272,15.5029074 16.8468272,15.5078208 16.8492691,15.5102775 L16.8492691,16.9646382 C16.8834548,17.2815512 16.7003168,17.5837242 16.4048542,17.6991886 C16.116717,17.8121964 15.7870686,17.7212988 15.5990469,17.4731731 C14.9959124,16.8295202 14.3830105,16.1809539 13.7603413,15.5495845 C13.6553422,15.4537736 13.5210409,15.3972697 13.3794142,15.3849862 C12.7762797,15.3284824 12.160936,15.3751595 11.5822199,15.2375848 C10.4272295,14.9673489 9.60432934,14.2254284 8.96700906,13.1027209 C9.12084499,13.0388469 9.28200644,12.9970832 9.44560973,12.9725163 C10.2147894,12.9626895 10.9864109,12.9946265 11.7409395,12.7858078 C13.8677823,12.1986588 15.3255608,10.8474791 16.1411354,8.81333942 C16.4243889,8.09598582 16.5562483,7.32458504 16.7686884,6.53844411 C17.1935685,6.5924913 17.6037977,6.73989272 17.9627482,6.97327831 C19.6183158,7.96332454 20.4680762,9.89919658 20.0847073,11.7957616" id="Fill-7" fill="#6E91F0"></path>
            <path d="M7.5659139,38.4834139 L7.5659139,38.4834139 C7.13362934,38.4834139 6.78148742,38.1194052 6.78148742,37.678107 L6.78148742,36.6733432 C6.78148742,36.232045 7.13362934,35.8680363 7.5659139,35.8680363 C7.99819846,35.8680363 8.35034038,36.232045 8.35034038,36.6733432 L8.35034038,37.678107 C8.35034038,38.1194052 7.99819846,38.4834139 7.5659139,38.4834139" id="Fill-9" fill="#FFFFFF"></path>
            <path d="M7.5659139,33.9999094 L7.5659139,33.9999094 C7.13362934,33.9999094 6.78148742,33.6359007 6.78148742,33.1946024 L6.78148742,32.1898387 C6.78148742,31.7485404 7.13362934,31.3845317 7.5659139,31.3845317 C7.99819846,31.3845317 8.35034038,31.7485404 8.35034038,32.1898387 L8.35034038,33.1946024 C8.35034038,33.6359007 7.99819846,33.9999094 7.5659139,33.9999094" id="Fill-11" fill="#FFFFFF"></path>
            <path d="M13.9175453,38.4834139 L13.9175453,38.4834139 C13.4852608,38.4834139 13.1331188,38.1194052 13.1331188,37.678107 L13.1331188,36.6733432 C13.1331188,36.232045 13.4852608,35.8680363 13.9175453,35.8680363 C14.3498299,35.8680363 14.7019718,36.232045 14.7019718,36.6733432 L14.7019718,37.678107 C14.7019718,38.1194052 14.3498299,38.4834139 13.9175453,38.4834139" id="Fill-13" fill="#FFFFFF"></path>
            <path d="M13.9175453,33.9999094 L13.9175453,33.9999094 C13.4852608,33.9999094 13.1331188,33.6359007 13.1331188,33.1946024 L13.1331188,32.1898387 C13.1331188,31.7485404 13.4852608,31.3845317 13.9175453,31.3845317 C14.3498299,31.3845317 14.7019718,31.7485404 14.7019718,32.1898387 L14.7019718,33.1946024 C14.7019718,33.6359007 14.3498299,33.9999094 13.9175453,33.9999094" id="Fill-15" fill="#FFFFFF"></path>
            <path d="M19.8955514,38.4834139 L19.8955514,38.4834139 C19.4632668,38.4834139 19.1111249,38.1194052 19.1111249,37.678107 L19.1111249,36.6733432 C19.1111249,36.232045 19.4632668,35.8680363 19.8955514,35.8680363 C20.3278359,35.8680363 20.6799778,36.232045 20.6799778,36.6733432 L20.6799778,37.678107 C20.6799778,38.1194052 20.3278359,38.4834139 19.8955514,38.4834139" id="Fill-17" fill="#FFFFFF"></path>
            <path d="M19.8955514,33.9999094 L19.8955514,33.9999094 C19.4632668,33.9999094 19.1111249,33.6359007 19.1111249,33.1946024 L19.1111249,32.1898387 C19.1111249,31.7485404 19.4632668,31.3845317 19.8955514,31.3845317 C20.3278359,31.3845317 20.6799778,31.7485404 20.6799778,32.1898387 L20.6799778,33.1946024 C20.6799778,33.6359007 20.3278359,33.9999094 19.8955514,33.9999094" id="Fill-19" fill="#FFFFFF"></path>
            <path d="M25.499932,38.4834139 L25.499932,38.4834139 C25.0676475,38.4834139 24.7155055,38.1194052 24.7155055,37.678107 L24.7155055,36.6733432 C24.7155055,36.232045 25.0676475,35.8680363 25.499932,35.8680363 C25.9322166,35.8680363 26.2843585,36.232045 26.2843585,36.6733432 L26.2843585,37.678107 C26.2843585,38.1194052 25.9322166,38.4834139 25.499932,38.4834139" id="Fill-21" fill="#FFFFFF"></path>
            <path d="M25.499932,33.9999094 L25.499932,33.9999094 C25.0676475,33.9999094 24.7155055,33.6359007 24.7155055,33.1946024 L24.7155055,32.1898387 C24.7155055,31.7485404 25.0676475,31.3845317 25.499932,31.3845317 C25.9322166,31.3845317 26.2843585,31.7485404 26.2843585,32.1898387 L26.2843585,33.1946024 C26.2843585,33.6359007 25.9322166,33.9999094 25.499932,33.9999094" id="Fill-23" fill="#FFFFFF"></path>
            <polygon id="Fill-25" fill="#000000" points="46.5163595 23.1120973 46.5163595 23.9120242 40.3515408 23.9120242 40.3515408 12.7032628 41.2048284 12.7032628 41.2048284 23.1120973"></polygon>
            <polygon id="Fill-27" fill="#000000" points="46.9190343 16.0658912 46.1880362 16.0658912 46.7903203 12.7032628 47.7787463 12.7032628"></polygon>
            <path d="M56.6042447,16.0658912 L56.6042447,24.1062647 L55.8100378,24.1062647 L55.8100378,22.5802647 C55.2077035,23.7696109 54.19005,24.2856495 52.9635225,24.2856495 C51.0739415,24.2856495 49.8789879,23.0152116 49.8789879,21.0690087 L49.8789879,16.0658912 L50.6901962,16.0658912 L50.6901962,21.0690087 C50.6901962,22.5483195 51.5329785,23.5140489 53.0266704,23.5140489 C54.585939,23.5140489 55.8100378,22.484429 55.8100378,20.312152 L55.8100378,16.0658912 L56.6042447,16.0658912 Z" id="Fill-29" fill="#000000"></path>
            <path d="M64.6371903,22.0001054 C64.6371903,23.3212434 63.4688181,24.2856495 61.7360628,24.2856495 C60.1171742,24.2856495 59.0478166,23.5303621 58.6591843,22.49953 L59.3547618,22.0960539 C59.6468549,22.9669717 60.5206586,23.5131405 61.7360628,23.5131405 C62.8697799,23.5131405 63.827746,23.0137159 63.827746,22.0001054 C63.827746,19.8105098 58.9166222,21.0652219 58.9166222,18.1670829 C58.9166222,16.8951493 60.0206349,15.8790785 61.6717033,15.8790785 C62.9836466,15.8790785 63.9886447,16.5088948 64.4267843,17.4905225 L63.746059,17.876777 C63.406934,17.0403023 62.5628346,16.6540478 61.6717033,16.6540478 C60.6196732,16.6540478 59.7285419,17.2002166 59.7285419,18.1670829 C59.7285419,20.3246957 64.6371903,19.0527621 64.6371903,22.0001054" id="Fill-31" fill="#000000"></path>
            <mask id="mask-2" fill="white">
                <use xlink:href="#path-1"></use>
            </mask>
            <g id="Clip-34"></g>
            <path d="M66.5565039,23.9120242 L67.3506446,23.9120242 L67.3506446,15.9061156 L66.5565039,15.9061156 L66.5565039,23.9120242 Z M66.3185045,13.3271952 C66.3185045,12.9919845 66.6050752,12.7032628 66.9547885,12.7032628 C67.3045019,12.7032628 67.5910726,12.9919845 67.5910726,13.3271952 C67.5910726,13.6795335 67.3045019,13.9682551 66.9547885,13.9682551 C66.6050752,13.9682551 66.3185045,13.6795335 66.3185045,13.3271952 L66.3185045,13.3271952 Z" id="Fill-33" fill="#000000" mask="url(#mask-2)"></path>
            <path d="M76.5932024,19.0981767 L76.5932024,24.0988369 L75.782287,24.0988369 L75.782287,19.0981767 C75.782287,17.6164086 74.9373811,16.6531365 73.4442284,16.6531365 C71.8879505,16.6531365 70.6642937,17.6827565 70.6642937,19.8550334 L70.6642937,24.0988369 L69.8679456,24.0988369 L69.8679456,16.0584634 L70.6642937,16.0584634 L70.6642937,17.5844634 C71.2688385,16.3951172 72.2861246,15.8790785 73.5073535,15.8790785 C75.4011082,15.8790785 76.5932024,17.1519739 76.5932024,19.0981767" id="Fill-35" fill="#000000" mask="url(#mask-2)"></path>
            <path d="M79.1205587,19.712101 L85.6482328,19.712101 C85.4720774,17.7488456 84.0727584,16.6515876 82.4799167,16.6515876 C80.6290444,16.6515876 79.2818278,17.9235212 79.1205587,19.712101 M86.4942749,20.115577 C86.4942749,20.2435084 86.4769075,20.3739001 86.4769075,20.5018315 L79.1205587,20.5018315 C79.3140816,22.3223942 80.7134005,23.5131405 82.5642728,23.5131405 C83.896603,23.5131405 84.9014331,22.9005458 85.375316,22.0468495 L86.0873808,22.4675471 C85.4224562,23.5598847 84.1546335,24.2856495 82.5469053,24.2856495 C80.0459949,24.2856495 78.2745166,22.5142913 78.2745166,20.0811339 C78.2745166,17.7144025 79.9988547,15.8790785 82.4799167,15.8790785 C84.9510544,15.8790785 86.4942749,17.9087599 86.4942749,20.115577" id="Fill-36" fill="#000000" mask="url(#mask-2)"></path>
            <path d="M45.0723785,37.7474161 L43.8985313,34.0666434 L42.7295853,37.7474161 L45.0723785,37.7474161 Z M43.1290364,30.587355 L41.4724169,28.5823414 L44.0431179,28.5823414 L45.1875577,30.587355 L43.1290364,30.587355 Z M45.7561016,39.8949429 L42.0434115,39.8949429 L41.5459355,41.4724169 L39.043852,41.4724169 L42.4453133,31.4473486 L45.3566505,31.4473486 L48.7581118,41.4724169 L46.2560282,41.4724169 L45.7561016,39.8949429 Z" id="Fill-37" fill="#000000" mask="url(#mask-2)"></path>
            <path d="M52.6811782,36.4297071 C52.6811782,33.4685301 54.8771686,31.197719 57.905272,31.197719 C59.7270578,31.197719 61.3346606,32.1025916 62.2086254,33.5252387 L60.2292798,34.6766706 C59.7861427,33.9000088 58.9220254,33.438943 57.905272,33.438943 C56.1253381,33.438943 54.9781054,34.6322899 54.9781054,36.4297071 C54.9781054,38.2271243 56.1253381,39.4180057 57.905272,39.4180057 C58.9220254,39.4180057 59.8009139,38.9569398 60.2292798,38.1827437 L62.2086254,39.3317099 C61.3494318,40.754357 59.741829,41.6592296 57.905272,41.6592296 C54.8771686,41.6592296 52.6811782,39.3884186 52.6811782,36.4297071" id="Fill-38" fill="#000000" mask="url(#mask-2)"></path>
            <polygon id="Fill-39" fill="#000000" mask="url(#mask-2)" points="70.9888218 31.3845317 70.9888218 41.4724169 68.7180414 41.4724169 68.7180414 37.4644606 65.597848 37.4644606 65.597848 41.4724169 63.3295015 41.4724169 63.3295015 31.3845317 65.597848 31.3845317 65.597848 35.2466093 68.7180414 35.2466093 68.7180414 31.3845317"></polygon>
            <path d="M77.9514117,37.7240753 L76.7775645,34.020239 L75.6086185,37.7240753 L77.9514117,37.7240753 Z M78.6351349,39.8850585 L74.9224447,39.8850585 L74.4249688,41.4724169 L71.9228852,41.4724169 L75.3243465,31.3845317 L78.2356837,31.3845317 L81.637145,41.4724169 L79.1350614,41.4724169 L78.6351349,39.8850585 Z" id="Fill-40" fill="#000000" mask="url(#mask-2)"></path>
            <polygon id="Fill-41" fill="#000000" mask="url(#mask-2)" points="88.5492145 33.602383 85.9621979 33.602383 85.9621979 41.4724169 83.6637236 41.4724169 83.6637236 33.602383 81.0767069 33.602383 81.0767069 31.3845317 88.5492145 31.3845317"></polygon>
            <path d="M94.8431755,38.344678 C94.8431755,37.7809432 94.4710289,37.3779223 93.8943248,37.3779223 L91.9695133,37.3779223 L91.9695133,39.3089611 L93.8943248,39.3089611 C94.4710289,39.3089611 94.8431755,38.9059402 94.8431755,38.344678 L94.8431755,38.344678 Z M91.9695133,33.545515 L91.9695133,35.330675 L93.6084373,35.330675 C94.1235277,35.330675 94.4833516,34.9573244 94.4833516,34.438095 C94.4833516,33.9188656 94.138315,33.545515 93.6084373,33.545515 L91.9695133,33.545515 Z M97.1425982,38.5152819 C97.1425982,40.3029145 95.6909798,41.4724169 93.8943248,41.4724169 L89.6700906,41.4724169 L89.6700906,31.3845317 L93.6084373,31.3845317 C95.3607305,31.3845317 96.7827743,32.5218913 96.7827743,34.2650185 C96.7827743,35.1007306 96.4500604,35.7633662 95.90786,36.2380902 C96.6521533,36.7152867 97.1425982,37.4916583 97.1425982,38.5152819 L97.1425982,38.5152819 Z" id="Fill-42" fill="#000000" mask="url(#mask-2)"></path>
            <path d="M105.864691,36.4297071 C105.864691,34.6322899 104.573024,33.438943 102.936257,33.438943 C101.294559,33.438943 100.002892,34.6322899 100.002892,36.4297071 C100.002892,38.2271243 101.294559,39.4180057 102.936257,39.4180057 C104.573024,39.4180057 105.864691,38.2271243 105.864691,36.4297071 M97.7030363,36.4297071 C97.7030363,33.4685301 100.047263,31.197719 102.936257,31.197719 C105.82032,31.197719 108.164547,33.4685301 108.164547,36.4297071 C108.164547,39.3884186 105.82032,41.6592296 102.936257,41.6592296 C100.047263,41.6592296 97.7030363,39.3884186 97.7030363,36.4297071" id="Fill-43" fill="#000000" mask="url(#mask-2)"></path>
            <polygon id="Fill-44" fill="#000000" mask="url(#mask-2)" points="115.637054 33.602383 113.050038 33.602383 113.050038 41.4724169 110.751563 41.4724169 110.751563 33.602383 108.164547 33.602383 108.164547 31.3845317 115.637054 31.3845317"></polygon>
            <path d="M116.01068,39.173912 L117.969928,38.0224801 C118.322836,38.8558505 118.933731,39.4180057 120.053302,39.4180057 C121.131496,39.4180057 121.401653,38.9865269 121.401653,38.5994288 C121.401653,37.980565 120.834567,37.7364713 119.345052,37.3197861 C117.87014,36.9031009 116.422,36.1831478 116.422,34.2575198 C116.422,32.3195638 118.040509,31.197719 119.756372,31.197719 C121.38705,31.197719 122.664821,31.9867088 123.387674,33.4685301 L121.472235,34.6027028 C121.131496,33.8827497 120.664197,33.438943 119.756372,33.438943 C119.048122,33.438943 118.69278,33.7964539 118.69278,34.2008112 C118.69278,34.661877 118.933731,34.9774729 120.479225,35.4508667 C121.983343,35.9119326 123.67,36.4445007 123.67,38.5698417 C123.67,40.5102633 122.141543,41.6592296 119.98272,41.6592296 C117.896912,41.6592296 116.565597,40.6557333 116.01068,39.173912" id="Fill-45" fill="#000000" mask="url(#mask-2)"></path>
        </g>
    </g>
</svg>