<?xml version="1.0" encoding="UTF-8" standalone="no"?>
<!-- Created with Inkscape (http://www.inkscape.org/) -->

<svg
   xmlns:dc="http://purl.org/dc/elements/1.1/"
   xmlns:cc="http://creativecommons.org/ns#"
   xmlns:rdf="http://www.w3.org/1999/02/22-rdf-syntax-ns#"
   xmlns:svg="http://www.w3.org/2000/svg"
   xmlns="http://www.w3.org/2000/svg"
   xmlns:sodipodi="http://sodipodi.sourceforge.net/DTD/sodipodi-0.dtd"
   xmlns:inkscape="http://www.inkscape.org/namespaces/inkscape"
   width="639.64624"
   height="857.38934"
   id="svg3977"
   version="1.1"
   inkscape:version="0.48.1 "
   sodipodi:docname="AJAX.svg">
  <defs
     id="defs3979" />
  <sodipodi:namedview
     id="base"
     pagecolor="#ffffff"
     bordercolor="#666666"
     borderopacity="1.0"
     inkscape:pageopacity="0.0"
     inkscape:pageshadow="2"
     inkscape:zoom="0.38911589"
     inkscape:cx="668.1995"
     inkscape:cy="50.023383"
     inkscape:document-units="px"
     inkscape:current-layer="layer1"
     showgrid="false"
     inkscape:window-width="1280"
     inkscape:window-height="1004"
     inkscape:window-x="-8"
     inkscape:window-y="-8"
     inkscape:window-maximized="1"
     fit-margin-top="0"
     fit-margin-left="0"
     fit-margin-right="0"
     fit-margin-bottom="0" />
  <metadata
     id="metadata3982">
    <rdf:RDF>
      <cc:Work
         rdf:about="">
        <dc:format>image/svg+xml</dc:format>
        <dc:type
           rdf:resource="http://purl.org/dc/dcmitype/StillImage" />
        <dc:title />
      </cc:Work>
    </rdf:RDF>
  </metadata>
  <g
     inkscape:label="Layer 1"
     inkscape:groupmode="layer"
     id="layer1"
     transform="translate(-52.224136,-97.486419)">
    <g
       id="g3884"
       transform="matrix(1.092739,0,0,1.1205575,1568.3324,413.27042)">
      <g
         style="stroke:none"
         transform="translate(-404.24079,-19.502845)"
         id="g3879">
        <path
           style="fill:#808080;stroke:none"
           d="m -694.12399,334.08779 c 106.37915,-389.374363 144.49835,-432.540296 144.49835,-432.540296 l -147.15783,-163.854374 -140.06588,155.04499 140.06588,-135.66436 z"
           id="path3855"
           inkscape:connector-curvature="0"
           sodipodi:nodetypes="cccccc" />
        <path
           style="fill:#d40000;stroke:none"
           d="m -653.64299,266.3406 c 23.04882,-41.66517 110.59,-76.01677 110.59,-76.01677 57.62204,-21.27583 61.16802,-14.18389 61.16802,-14.18389 l 0.46787,19.95172 c -3.44765,2.50738 -16.29798,5.6416 -16.29798,5.6416 1.2537,21.31274 -2.50738,20.37247 -2.50738,20.37247 l -15.67113,6.26846 c 6.26845,-0.31342 6.8953,5.95503 6.8953,5.95503 0.62685,15.98455 0.62685,15.98455 0.62685,15.98455 36.35702,-10.34295 53.59526,-7.20872 53.59526,-7.20872 3.14278,8.27598 1.70223,17.36253 1.70223,17.36253 50.30847,-4.98652 55.18418,2.10542 55.18418,2.10542 0.8865,12.85415 -9.75142,30.36239 -9.75142,30.36239 -59.1734,-7.75682 -107.04403,18.61635 -107.04403,18.61635 -3.54596,2.65948 -9.97304,-14.62713 -9.97304,-14.62713 -16.1785,5.7622 -30.58401,13.07577 -30.58401,13.07577 -4.21084,0.66487 -6.42707,-6.87032 -6.42707,-6.87032 -6.87032,-11.4136 -4.43247,-17.28662 -4.43247,-17.28662 l 0,0 c -22.82719,7.09195 -30.584,16.84337 -30.584,16.84337 -21.9407,-23.27044 -7.97844,-31.91375 -7.97844,-31.91375 16.1785,-14.84875 16.1785,-15.07038 16.1785,-15.07038 -43.8814,24.93261 -48.31387,35.2381 -48.31387,35.2381 -13.51902,-7.75682 -16.84337,-24.60018 -16.84337,-24.60018 z"
           id="path3857"
           inkscape:connector-curvature="0"
           sodipodi:nodetypes="cccccccccccccccccccccccc" />
        <path
           style="fill:#000080;stroke:none"
           d="m -979.3531,278.89707 c 0,0 24.8218,1.55137 90.64391,27.03804 0,0 16.84336,11.08116 20.83258,5.31896 6.87032,-10.4163 7.09194,-14.62714 7.09194,-14.62714 34.79485,12.41091 31.69213,14.40551 31.69213,14.40551 6.87032,2.88111 10.19467,-2.65948 10.19467,-2.65948 l 0,0 c 10.19467,-15.73525 10.19467,-17.06498 10.19467,-17.06498 15.292,9.75142 22.60557,16.84336 22.60557,16.84336 3.54597,0.88649 5.7622,-0.22162 5.7622,-0.22162 16.1785,-17.28661 17.50824,-20.38934 17.50824,-20.38934 2.8811,-3.98922 -7.53519,-14.84876 -7.53519,-14.84876 27.7029,17.72986 27.92452,24.15694 27.92452,24.15694 3.98922,1.10811 7.09195,-2.21624 7.09195,-2.21624 17.50823,-20.61096 13.96226,-27.03803 13.96226,-27.03803 -20.16484,-32.94399 -101.23708,-86.55329 -162.00659,-85.54657 -3.32435,6.42707 -2.65948,19.05959 -2.65948,19.05959 58.95178,19.0596 63.16263,28.36778 63.16263,28.36778 -38.1192,-8.64331 -41.0003,-5.54058 -41.0003,-5.54058 -4.87571,4.87571 -3.54597,21.71908 -3.54597,21.71908 -22.8272,-7.97844 -42.55166,-6.20545 -42.55166,-6.20545 -5.09734,6.42707 -4.21085,19.28122 -4.21085,19.28122 -45.87601,-7.97844 -67.59508,-2.21623 -67.59508,-2.21623 0,0 -4.43247,15.51362 2.43785,22.38394 z"
           id="path3877"
           inkscape:connector-curvature="0"
           sodipodi:nodetypes="cccccccccccccccccccccccc" />
      </g>
    </g>
    <g
       id="g3920"
       transform="matrix(1.092739,0,0,1.1205575,2516.6681,454.27713)"
       style="fill:#000000">
      <g
         style="font-size:77.98314667px;font-style:normal;font-variant:normal;font-weight:normal;font-stretch:normal;line-height:125%;letter-spacing:0px;word-spacing:32.05107117px;fill:#000000;fill-opacity:1;stroke:none;font-family:Segoe UI;-inkscape-font-specification:Segoe UI"
         id="text3890">
        <path
           d="m -2103.6955,322.8596 15.6119,34.11763 c 0.6854,1.49774 1.2565,2.2339 1.7135,2.20851 0.4569,-0.0254 0.9265,-0.54577 1.4089,-1.56119 l 14.3933,-30.5764 c 1.3454,-2.89386 2.31,-4.70889 2.8939,-5.44511 0.5838,-0.73612 1.3454,-1.1042 2.2847,-1.10426 0.3553,6e-5 0.9138,0.0381 1.6754,0.11424 0.7361,0.0762 1.4977,0.11428 2.2847,0.11423 1.0407,5e-5 2.3227,-0.0888 3.8458,-0.26654 0.7869,-0.0761 1.3708,-0.11418 1.7516,-0.11424 0.8884,6e-5 1.3327,0.35545 1.3327,1.06618 0,0.58391 -0.3427,0.90122 -1.0281,0.95194 -2.3862,0.17775 -4.0553,0.97738 -5.0072,2.3989 -0.952,1.42161 -1.428,3.8205 -1.4279,7.19668 l 0.038,2.58929 0.9138,23.68433 0.038,1.56119 c 0,3.50316 0.6155,6.09879 1.8468,7.78689 1.2311,1.68812 3.2556,2.68448 6.0734,2.9891 0.7107,0.10154 1.0661,0.46963 1.0662,1.10425 -10e-5,0.6854 -0.8632,1.0281 -2.5893,1.0281 -0.5078,0 -1.3201,-0.0635 -2.437,-0.19039 -3.097,-0.33 -5.2929,-0.49501 -6.5874,-0.49501 -2.6655,0 -4.8867,0.12693 -6.6636,0.38078 -1.6755,0.25385 -2.8178,0.38078 -3.427,0.38078 -0.6347,0 -0.952,-0.31732 -0.952,-0.95195 0,-0.48231 0.3681,-0.82501 1.1043,-1.02809 1.4469,-0.40616 2.4686,-1.05348 3.0652,-1.94197 0.5965,-0.88847 0.8948,-2.2085 0.8949,-3.96008 -1e-4,-0.8377 -0.013,-1.43425 -0.038,-1.78965 l -1.1804,-25.2836 c -0.026,-0.68536 -0.1905,-1.02806 -0.495,-1.0281 -0.3809,4e-5 -0.9013,0.69813 -1.5612,2.09428 l -14.3172,30.38601 -0.5331,1.14233 c -0.7362,1.57388 -1.3455,2.37351 -1.8278,2.3989 -0.5585,0.0254 -1.4977,-1.3708 -2.8177,-4.18855 l -1.942,-3.96008 -12.2229,-27.18749 -0.2666,-0.57116 c -0.1015,-0.17766 -0.2538,-0.26651 -0.4569,-0.26655 -0.4062,4e-5 -0.6093,0.52043 -0.6092,1.56119 l -0.038,1.21849 -0.495,19.22924 -0.038,1.52311 0.3427,3.5793 c 0.7108,3.73162 2.7035,6.01628 5.9782,6.85399 1.1423,0.27924 1.7135,0.71078 1.7135,1.29464 0,0.66001 -0.4443,0.99002 -1.3327,0.99002 -0.6854,0 -1.4978,-0.0635 -2.437,-0.19039 l -2.7035,-0.38077 c -0.6854,-0.10155 -1.6755,-0.15232 -2.9701,-0.15232 -2.31,0 -4.1124,0.12693 -5.407,0.38078 -0.8377,0.1777 -1.4724,0.26655 -1.9039,0.26655 -0.7869,0 -1.1804,-0.33001 -1.1804,-0.99003 0,-0.45693 0.3046,-0.78693 0.9139,-0.99002 1.9546,-0.66001 3.3825,-1.83407 4.2837,-3.52218 0.9012,-1.68811 1.3517,-4.02989 1.3518,-7.02534 l 1.0281,-25.01706 0.1142,-2.5512 c 0,-3.04618 -0.7425,-5.43872 -2.2276,-7.17765 -1.485,-1.73883 -3.5222,-2.60827 -6.1114,-2.60832 -0.9647,5e-5 -1.447,-0.35534 -1.447,-1.06618 0,-0.73612 0.5458,-1.1042 1.6374,-1.10425 0.2284,5e-5 0.5203,0.0127 0.8757,0.0381 l 2.2086,0.15231 c 0.4061,0.0254 0.9265,0.0381 1.5611,0.0381 1.1931,6e-5 2.3608,-0.0761 3.5032,-0.22846 1.7262,-0.20303 2.8431,-0.30457 3.3508,-0.30462 1.6754,5e-5 2.8685,0.79968 3.5793,2.39889 z"
           style="font-weight:bold;text-align:center;line-height:125%;writing-mode:lr-tb;text-anchor:middle;fill:#000000;font-family:Goudy Old Style;-inkscape-font-specification:Goudy Old Style Bold"
           id="path3036"
           inkscape:connector-curvature="0" />
        <path
           d="m -2022.5899,324.83964 17.3253,39.79121 c 0.8631,2.00543 1.8785,3.50315 3.0462,4.49317 1.1677,0.99002 2.6781,1.65003 4.5313,1.98004 0.4569,0.0762 0.6853,0.43155 0.6854,1.06617 -10e-5,0.6854 -0.292,1.01541 -0.8758,0.99002 -0.3301,-0.0254 -0.8124,-0.10154 -1.447,-0.22846 -1.9547,-0.43155 -5.1024,-0.64732 -9.4432,-0.64732 -4.3663,0 -7.3364,0.19039 -8.9102,0.57116 -0.3808,0.10154 -0.7108,0.15231 -0.99,0.15231 -0.7109,0 -1.0663,-0.35539 -1.0662,-1.06617 -1e-4,-0.35539 0.2792,-0.62194 0.8377,-0.79963 1.2184,-0.35539 2.2275,-0.99002 3.0272,-1.90389 0.7996,-0.91386 1.1994,-1.87849 1.1994,-2.89391 0,-1.42156 -1.1043,-4.54392 -3.3127,-9.36711 -0.6855,-1.47232 -1.4407,-2.31638 -2.2657,-2.53217 -0.825,-0.21575 -3.7507,-0.32364 -8.7769,-0.32366 l -5.1786,0 -3.4269,0.60924 c -0.9393,0.43157 -2.0055,2.10699 -3.1986,5.02626 l -1.1804,2.93198 c -0.3554,0.83772 -0.5331,1.68812 -0.5331,2.55121 0,3.19853 2.2339,5.05165 6.7017,5.55935 0.9646,0.12692 1.4343,0.49501 1.4089,1.10425 -0.051,0.66001 -0.5077,0.99002 -1.3708,0.99002 -0.457,0 -1.1043,-0.0761 -1.942,-0.22847 -1.6754,-0.33 -3.1731,-0.49501 -4.4931,-0.49501 -1.1932,0 -3.1224,0.12693 -5.7879,0.38078 -1.98,0.20308 -3.2112,0.30462 -3.6935,0.30462 -0.7108,0 -1.0662,-0.30462 -1.0662,-0.91386 0,-0.5077 0.3554,-0.88848 1.0662,-1.14233 1.3708,-0.43155 2.4687,-1.22483 3.2937,-2.37986 0.825,-1.15502 2.0499,-3.58564 3.6745,-7.29188 l 10.3952,-23.98896 c 0.8377,-1.90385 1.4216,-3.21118 1.7516,-3.922 l 3.5412,-7.27284 c 1.2185,-2.38616 1.8277,-3.57926 1.8278,-3.57931 -10e-5,0.0762 -10e-5,0.11429 0,0.11423 -10e-5,6e-5 0.203,-0.47592 0.6092,-1.42791 0.4062,-0.95189 0.7488,-1.42786 1.0281,-1.42791 0.4061,5e-5 1.1042,1.06622 2.0943,3.19852 z m 1.4469,23.83665 -4.9882,-11.65178 c -1.1931,-2.79233 -2.0435,-4.18851 -2.5512,-4.18855 -0.3046,4e-5 -0.8631,0.90121 -1.6754,2.70352 l -0.7235,1.59926 -4.4551,10.16675 -0.4188,0.95194 c -0.1777,0.3808 -0.2666,0.71081 -0.2666,0.99002 0,0.86312 0.9139,1.29467 2.7416,1.29465 l 11.271,0 c 0.9646,2e-5 1.4469,-0.26653 1.447,-0.79964 -1e-4,-0.1269 -0.064,-0.34267 -0.1904,-0.64732 z"
           style="font-weight:bold;text-align:center;line-height:125%;writing-mode:lr-tb;text-anchor:middle;fill:#000000;font-family:Goudy Old Style;-inkscape-font-specification:Goudy Old Style Bold"
           id="path3038"
           inkscape:connector-curvature="0" />
        <path
           d="m -1979.9429,357.81494 c 0,4.82318 0.4442,8.09152 1.3327,9.80501 0.8885,1.7135 2.64,2.69717 5.2547,2.95102 1.0662,0.10154 1.5993,0.5077 1.5993,1.21849 0,0.71078 -0.4316,1.06617 -1.2947,1.06617 -0.2792,0 -0.7996,-0.0381 -1.5611,-0.11423 -2.1832,-0.1777 -4.2901,-0.26654 -6.3209,-0.26654 -1.7009,0 -3.2113,0.0508 -4.5313,0.15231 l -3.1985,0.30462 -2.5512,0.22846 c -0.7108,0.0762 -1.2058,0.11424 -1.485,0.11424 -0.9139,0 -1.3708,-0.3427 -1.3708,-1.0281 0,-0.55847 0.2538,-0.91386 0.7615,-1.06618 1.7262,-0.53308 2.9193,-1.25021 3.5793,-2.15139 0.66,-0.90116 0.99,-2.27831 0.99,-4.13143 l 0,-3.61738 0.038,-1.48503 0,-27.56826 c 0,-3.04618 -0.3808,-5.08968 -1.1423,-6.13051 -1.2439,-1.70076 -3.2747,-2.72886 -6.0925,-3.0843 -1.0407,-0.15226 -1.5611,-0.58381 -1.5611,-1.29464 0,-0.71073 0.3554,-1.06612 1.0661,-1.06618 0.2793,6e-5 0.7362,0.0381 1.3708,0.11424 1.9547,0.20313 4.0997,0.30467 6.4352,0.30462 2.5639,5e-5 5.6735,-0.13957 9.329,-0.41886 4.2901,-0.32995 7.2474,-0.49495 8.8721,-0.49501 4.8232,6e-5 8.8213,1.31374 11.9945,3.94105 3.1731,2.62741 4.7597,5.93382 4.7597,9.91924 0,2.51317 -0.7045,4.79783 -2.1133,6.85399 -1.4089,2.05622 -3.3445,3.61741 -5.8069,4.68356 -0.5077,0.2031 -0.7489,0.45696 -0.7234,0.76155 0.025,0.25388 0.1522,0.5585 0.3807,0.91387 0.2285,0.35541 0.5712,0.95196 1.0281,1.78965 l 3.389,6.01628 3.922,6.96822 c 1.3453,2.36082 2.5448,3.99816 3.5983,4.91202 1.0534,0.91387 2.291,1.3708 3.7126,1.3708 0.5838,0 1.1296,-0.0508 1.6373,-0.15231 0.3046,-0.0762 0.5838,-0.11423 0.8377,-0.11424 0.4569,10e-6 0.6854,0.29194 0.6854,0.87579 0,0.73617 -1.0345,1.57388 -3.1033,2.51313 -2.0689,0.93925 -3.903,1.40888 -5.5022,1.40888 -2.6147,0 -5.0263,-1.28195 -7.2348,-3.84585 -2.2085,-2.5639 -5.0771,-7.41245 -8.6056,-14.54569 -1.3708,-2.81773 -2.5004,-4.60103 -3.3889,-5.34992 -0.8885,-0.74883 -2.3354,-1.12326 -4.3408,-1.12329 l -2.3609,0 -1.7135,0.30462 c -0.3807,0.20311 -0.5711,0.81235 -0.5711,1.82773 z m 0,-29.77677 0,13.17489 c 0,1.62468 0.2094,2.65277 0.6283,3.08429 0.4188,0.43158 1.4152,0.64735 2.9891,0.64732 4.5185,3e-5 7.3172,-0.0825 8.3961,-0.2475 1.0788,-0.16498 2.0879,-0.67903 3.0272,-1.54215 1.8531,-1.67539 2.7796,-3.98543 2.7797,-6.93014 -10e-5,-3.83312 -1.2503,-6.99991 -3.7507,-9.50039 -2.5005,-2.50039 -5.68,-3.75061 -9.5385,-3.75065 -1.7262,4e-5 -2.9129,0.36178 -3.5602,1.08521 -0.6474,0.72352 -0.971,2.0499 -0.971,3.97912 z"
           style="font-weight:bold;text-align:center;line-height:125%;writing-mode:lr-tb;text-anchor:middle;fill:#000000;font-family:Goudy Old Style;-inkscape-font-specification:Goudy Old Style Bold"
           id="path3040"
           inkscape:connector-curvature="0" />
        <path
           d="m -1925.9868,360.74692 0.3046,3.80777 c 0.3046,1.95466 1.0471,3.45239 2.2276,4.49317 1.1804,1.0408 2.7225,1.56119 4.6264,1.56119 1.2439,0 1.8658,0.38078 1.8658,1.14233 0,0.73617 -0.825,1.10425 -2.475,1.10425 -0.7108,0 -1.7262,-0.0635 -3.0463,-0.19039 -3.3,-0.35539 -5.9782,-0.53308 -8.0343,-0.53308 -2.5386,0 -4.544,0.13962 -6.0163,0.41885 -1.2693,0.25385 -2.1832,0.38078 -2.7416,0.38078 -0.5585,0 -0.9139,-0.26655 -1.0662,-0.79963 l -0.076,-0.30463 1.1043,-0.87578 c 1.8277,-0.66001 3.0399,-1.46599 3.6364,-2.41794 0.5966,-0.95193 0.8948,-2.53216 0.8948,-4.74067 l 0.038,-3.38892 0,-30.34793 c 0,-2.33539 -0.4061,-3.99811 -1.2185,-4.98818 -0.8123,-0.98997 -2.2973,-1.64999 -4.4551,-1.98004 -1.2946,-0.20303 -2.126,-0.39977 -2.494,-0.59021 -0.3681,-0.19033 -0.5522,-0.51399 -0.5522,-0.97098 0,-0.71073 0.3047,-1.05343 0.9139,-1.0281 0.4569,0.0254 1.1423,0.12698 2.0562,0.30463 0.9139,0.20313 2.4497,0.30467 4.6074,0.30462 1.4216,5e-5 3.1858,-0.0888 5.2928,-0.26655 l 2.7797,-0.22846 c 2.6146,-0.20303 4.62,-0.30457 6.0162,-0.30462 0.8377,5e-5 1.2566,0.30467 1.2566,0.91386 0,0.45698 -0.063,0.76161 -0.1904,0.91387 -0.1269,0.15236 -0.4442,0.26659 -0.9519,0.34269 -1.8278,0.30468 -3.0018,0.81238 -3.5222,1.52311 -0.5204,0.71084 -0.7806,2.15779 -0.7806,4.34086 z"
           style="font-weight:bold;text-align:center;line-height:125%;writing-mode:lr-tb;text-anchor:middle;fill:#000000;font-family:Goudy Old Style;-inkscape-font-specification:Goudy Old Style Bold"
           id="path3042"
           inkscape:connector-curvature="0" />
        <path
           d="m -1893.9254,329.21858 20.1812,22.61816 1.2946,1.44695 c 1.7262,1.92929 2.8812,2.89392 3.4651,2.89391 0.5331,1e-5 0.825,-0.77423 0.8758,-2.32274 0.2284,-5.61009 0.3427,-10.95366 0.3427,-16.03072 0,-5.96547 -0.6029,-10.0017 -1.8087,-12.10871 -1.2058,-2.10692 -3.573,-3.28733 -7.1015,-3.54123 -0.8377,-0.0507 -1.2566,-0.34265 -1.2565,-0.87578 -10e-5,-0.65997 0.368,-0.98997 1.1042,-0.99002 0.9138,5e-5 2.3862,0.12697 4.417,0.38077 1.32,0.15237 2.4116,0.22852 3.2747,0.22847 1.7515,5e-5 4.5312,-0.24111 8.339,-0.72348 0.5077,-0.0507 0.8758,-0.0761 1.1043,-0.0761 0.8122,5e-5 1.2184,0.35544 1.2185,1.06617 -1e-4,0.63468 -0.4063,1.01546 -1.2185,1.14233 -3.2748,0.6093 -4.9121,3.51589 -4.912,8.7198 l 0,1.86581 -0.5331,23.79856 -0.1523,3.27469 -0.038,4.22662 0.038,2.89391 0.1523,4.75971 c -10e-5,0.71079 -0.2539,1.05349 -0.7616,1.0281 -0.457,-0.0254 -0.9266,-0.30462 -1.4089,-0.83771 l -34.6888,-38.49656 c -0.6092,-0.65998 -1.0281,-0.98998 -1.2565,-0.99002 -0.6093,4e-5 -0.9139,0.5712 -0.9139,1.71349 l -0.038,1.10426 0,14.77415 c 0,7.89479 0.3935,13.1749 1.1804,15.84033 0.8377,2.84313 3.3128,4.45509 7.4252,4.83586 0.7615,0.0762 1.1423,0.39348 1.1423,0.95195 0,0.76155 -0.3935,1.14233 -1.1804,1.14233 -0.3046,0 -0.7996,-0.0508 -1.485,-0.15231 -2.1324,-0.35539 -4.4932,-0.53309 -7.0825,-0.53309 -2.5639,0 -4.8485,0.19039 -6.8539,0.57117 -0.8885,0.15231 -1.5359,0.22846 -1.942,0.22846 -0.6854,0 -1.0281,-0.30462 -1.0281,-0.91386 0,-0.50771 0.3681,-0.8631 1.1042,-1.06618 1.8532,-0.53309 3.2049,-1.63099 4.0553,-3.29372 0.8504,-1.66272 1.2756,-4.05527 1.2756,-7.17765 l 0.2666,-9.06249 0,-16.52573 c 0,-7.81858 -2.8813,-11.93096 -8.6437,-12.33718 -0.7869,-0.0507 -1.1804,-0.36803 -1.1804,-0.95194 0,-0.71073 0.4316,-1.06612 1.2947,-1.06618 l 2.6273,0.11424 1.5993,-0.0381 c 1.98,5e-5 4.0997,-0.11418 6.359,-0.3427 0.8377,-0.0761 1.5358,-0.11418 2.0942,-0.11423 0.787,5e-5 1.4089,0.1714 1.8658,0.51405 0.457,0.34275 1.4216,1.38988 2.894,3.14141 l 2.6273,3.08429 c 1.0408,1.21853 1.6627,1.9547 1.8658,2.20851 z"
           style="font-weight:bold;text-align:center;line-height:125%;writing-mode:lr-tb;text-anchor:middle;fill:#000000;font-family:Goudy Old Style;-inkscape-font-specification:Goudy Old Style Bold"
           id="path3044"
           inkscape:connector-curvature="0" />
        <path
           d="m -1839.2077,329.37089 0,8.26286 c 0,2.36085 0.1713,3.85858 0.514,4.49317 0.3427,0.63466 1.1741,0.95197 2.4941,0.95195 l 1.1424,-0.0381 1.6754,-0.0381 3.2366,0 c 2.5131,3e-5 4.455,-1.38346 5.8259,-4.15047 l 0.8758,-1.86581 c 0.2284,-0.45689 0.6092,-0.69805 1.1423,-0.72347 0.5584,-0.0254 0.8377,0.31735 0.8377,1.02809 0,0.20312 -0.038,0.76159 -0.1142,1.67542 -0.051,0.66005 -0.076,1.21852 -0.076,1.67542 0,0.81236 0.1142,2.71624 0.3427,5.71166 0.1523,1.95468 0.2284,3.65548 0.2285,5.10241 l 0.038,1.94196 c -10e-5,0.35541 -0.038,0.59657 -0.1143,0.72348 -0.1016,0.15233 -0.3046,0.24118 -0.6092,0.26654 -0.6347,0.0508 -1.0282,-0.43152 -1.1804,-1.44695 -0.3301,-2.15771 -1.0916,-3.79505 -2.2847,-4.91202 -0.66,-0.60922 -1.466,-1.00269 -2.4179,-1.18041 -0.952,-0.17767 -2.7353,-0.26652 -5.3499,-0.26655 l -2.5893,0 c -1.2185,3e-5 -2.0499,0.18407 -2.4941,0.55213 -0.4443,0.36811 -0.7426,1.11063 -0.8948,2.22755 -0.1524,1.26928 -0.2285,3.2747 -0.2285,6.01627 l 0,3.427 c 0,3.57931 0.2792,6.1559 0.8377,7.72977 0.4315,1.14234 0.9392,1.91659 1.5231,2.32274 0.5838,0.40617 1.485,0.60925 2.7035,0.60925 10.3064,0 17.0461,-3.13506 20.2193,-9.4052 0.1776,-0.30461 0.33,-0.46961 0.4569,-0.49501 0.2538,-0.0507 0.4886,0.0317 0.7045,0.24751 0.2157,0.21578 0.3236,0.48867 0.3236,0.81867 0,2.48775 -0.6727,4.89934 -2.0181,7.23476 -1.117,1.98005 -2.5132,3.39527 -4.1885,4.24567 -1.6755,0.8504 -3.8967,1.2756 -6.6636,1.2756 -1.6247,0 -3.4271,-0.10154 -5.4071,-0.30462 l -4.417,-0.41886 c -1.6247,-0.15231 -3.8205,-0.22846 -6.5874,-0.22846 -1.8532,0 -4.6709,0.11423 -8.4533,0.3427 -1.0408,0.0762 -1.7896,0.11423 -2.2466,0.11423 -0.6092,0 -0.9392,-0.27924 -0.99,-0.83771 -0.025,-0.45693 0.2539,-0.79963 0.8377,-1.0281 1.447,-0.55847 2.4306,-1.14867 2.951,-1.77061 0.5204,-0.62193 0.9329,-1.73253 1.2376,-3.3318 0.2792,-1.3454 0.4188,-3.17313 0.4188,-5.48319 l 0,-30.19562 c 0,-2.84309 -0.4633,-4.77236 -1.3898,-5.78781 -0.9266,-1.01536 -2.8495,-1.72614 -5.7688,-2.13236 -0.6854,-0.10149 -1.0281,-0.46957 -1.0281,-1.10425 0,-0.58381 0.4189,-0.87573 1.2566,-0.87579 0.1777,6e-5 0.5584,0.0254 1.1423,0.0762 0.4569,0.0254 1.0789,0.0381 1.8658,0.0381 l 3.8459,0.15231 14.4314,0.15231 c 8.3009,5e-5 13.416,-0.11418 15.3453,-0.3427 0.2031,-0.0253 0.3808,-0.038 0.5331,-0.0381 0.7361,5e-5 1.1042,0.41891 1.1043,1.25657 -10e-5,0.5839 0.076,1.62469 0.2284,3.12237 0.2031,2.20855 0.3046,3.79512 0.3047,4.75971 -10e-5,1.92931 -0.4951,2.91933 -1.4851,2.97006 -0.4823,0.0254 -0.7235,-0.53305 -0.7234,-1.67542 -1e-4,-2.51308 -0.9203,-4.33446 -2.7607,-5.46415 -1.8404,-1.12959 -4.8168,-1.69441 -8.9292,-1.69446 l -4.6455,0 -2.5893,0.30463 c -1.2946,0.40621 -1.9419,1.68815 -1.9419,3.84584 z"
           style="font-weight:bold;text-align:center;line-height:125%;writing-mode:lr-tb;text-anchor:middle;fill:#000000;font-family:Goudy Old Style;-inkscape-font-specification:Goudy Old Style Bold"
           id="path3046"
           inkscape:connector-curvature="0" />
      </g>
      <g
         style="font-size:75.50480652px;font-style:normal;font-variant:normal;font-weight:normal;font-stretch:normal;line-height:125%;letter-spacing:0px;word-spacing:31.03247452px;fill:#000000;fill-opacity:1;stroke:none;font-family:Segoe UI;-inkscape-font-specification:Segoe UI"
         id="text3890-1">
        <path
           d="m -2165.1116,403.71622 19.5398,21.89935 1.2535,1.40096 c 1.6713,1.86798 2.7896,2.80196 3.355,2.80194 0.5161,2e-5 0.7987,-0.74962 0.8479,-2.24892 0.2212,-5.4318 0.3318,-10.60555 0.3318,-15.52125 0,-5.77588 -0.5838,-9.68384 -1.7512,-11.72389 -1.1675,-2.03996 -3.4594,-3.18286 -6.8758,-3.42869 -0.8111,-0.0491 -1.2167,-0.33176 -1.2166,-0.84795 -1e-4,-0.63899 0.3563,-0.95851 1.0691,-0.95856 0.8848,5e-5 2.3104,0.12294 4.2767,0.36868 1.278,0.14752 2.3349,0.22125 3.1706,0.2212 1.6959,5e-5 4.3872,-0.23344 8.074,-0.70048 0.4915,-0.0491 0.8479,-0.0737 1.0692,-0.0737 0.7864,5e-5 1.1797,0.34415 1.1797,1.03229 0,0.61451 -0.3933,0.98319 -1.1797,1.10603 -3.1707,0.58993 -4.756,3.40415 -4.756,8.44268 l 0,1.80651 -0.5161,23.04224 -0.1475,3.17061 -0.037,4.0923 0.037,2.80194 0.1475,4.60844 c -10e-5,0.6882 -0.2458,1.02001 -0.7374,0.99543 -0.4424,-0.0246 -0.8971,-0.29494 -1.3641,-0.81109 l -33.5863,-37.27312 c -0.5899,-0.639 -0.9955,-0.95852 -1.2167,-0.95856 -0.5899,4e-5 -0.8848,0.55305 -0.8848,1.65904 l -0.037,1.06916 0,14.30462 c -1e-4,7.6439 0.3809,12.7562 1.1428,15.33692 0.8111,2.75278 3.2075,4.31351 7.1892,4.68218 0.7374,0.0737 1.106,0.38097 1.1061,0.92169 -1e-4,0.73735 -0.381,1.10603 -1.1429,1.10603 -0.295,0 -0.7743,-0.0492 -1.4379,-0.14747 -2.0646,-0.3441 -4.3504,-0.51615 -6.8573,-0.51615 -2.4825,0 -4.6945,0.18434 -6.6362,0.55301 -0.8603,0.14747 -1.487,0.22121 -1.8803,0.22121 -0.6636,0 -0.9954,-0.29494 -0.9954,-0.88482 0,-0.49157 0.3564,-0.83567 1.0692,-1.03229 1.7942,-0.51615 3.103,-1.57916 3.9264,-3.18905 0.8233,-1.60988 1.235,-3.92639 1.235,-6.94954 l 0.2581,-8.77448 0,-16.00053 c 0,-7.5701 -2.7896,-11.5518 -8.3689,-11.9451 -0.762,-0.0491 -1.1429,-0.35634 -1.1429,-0.92169 0,-0.68815 0.4178,-1.03224 1.2535,-1.03229 l 2.5438,0.1106 1.5485,-0.0369 c 1.9171,5e-5 3.9694,-0.11055 6.1569,-0.33181 0.811,-0.0737 1.4869,-0.11055 2.0277,-0.1106 0.7619,5e-5 1.3641,0.16596 1.8065,0.49771 0.4424,0.33186 1.3764,1.34572 2.8019,3.04158 l 2.5439,2.98627 c 1.0077,1.17981 1.6098,1.89258 1.8065,2.13832 z"
           style="font-weight:bold;text-align:center;line-height:125%;writing-mode:lr-tb;text-anchor:middle;fill:#000000;font-family:Goudy Old Style;-inkscape-font-specification:Goudy Old Style Bold"
           id="path3049"
           inkscape:connector-curvature="0" />
        <path
           d="m -2101.3676,399.47645 16.7748,38.52662 c 0.8356,1.9417 1.8187,3.39183 2.9494,4.35038 1.1306,0.95856 2.593,1.5976 4.3872,1.91711 0.4424,0.0737 0.6636,0.41784 0.6637,1.03229 -10e-5,0.66362 -0.2827,0.98314 -0.848,0.95856 -0.3196,-0.0246 -0.7866,-0.0983 -1.401,-0.2212 -1.8925,-0.41784 -4.9403,-0.62675 -9.1431,-0.62675 -4.2275,0 -7.1032,0.18434 -8.627,0.55301 -0.3687,0.0983 -0.6883,0.14747 -0.9586,0.14747 -0.6882,0 -1.0323,-0.3441 -1.0323,-1.03229 0,-0.3441 0.2703,-0.60217 0.8111,-0.77422 1.1797,-0.3441 2.1567,-0.95855 2.931,-1.84338 0.7742,-0.88482 1.1613,-1.81879 1.1613,-2.80193 0,-1.37639 -1.0692,-4.39953 -3.2075,-9.06943 -0.6636,-1.42553 -1.3948,-2.24276 -2.1936,-2.45169 -0.7988,-0.2089 -3.6315,-0.31336 -8.498,-0.31338 l -5.014,0 -3.318,0.58988 c -0.9095,0.41785 -1.9418,2.04002 -3.0969,4.86652 l -1.1429,2.83881 c -0.3441,0.81109 -0.5162,1.63447 -0.5162,2.47013 0,3.09688 2.1629,4.8911 6.4887,5.38266 0.934,0.1229 1.3887,0.47928 1.3641,1.06916 -0.049,0.63904 -0.4916,0.95856 -1.3272,0.95856 -0.4424,0 -1.0692,-0.0737 -1.8803,-0.22121 -1.6221,-0.31952 -3.0723,-0.47927 -4.3503,-0.47928 -1.1552,1e-5 -3.0232,0.1229 -5.6039,0.36868 -1.9171,0.19663 -3.1092,0.29494 -3.5762,0.29494 -0.6881,0 -1.0322,-0.29494 -1.0322,-0.88482 0,-0.49157 0.3441,-0.86024 1.0322,-1.10603 1.3273,-0.41783 2.3903,-1.1859 3.1891,-2.30422 0.7988,-1.11831 1.9847,-3.47169 3.5577,-7.06014 l 10.0649,-23.22658 c 0.811,-1.84334 1.3763,-3.10913 1.6959,-3.79736 l 3.4287,-7.04171 c 1.1797,-2.31032 1.7696,-3.4655 1.7696,-3.46555 0,0.0738 0,0.11065 0,0.1106 0,5e-5 0.1966,-0.46079 0.5899,-1.38253 0.3932,-0.92164 0.725,-1.38249 0.9954,-1.38254 0.3932,5e-5 1.0691,1.03235 2.0277,3.09688 z m 1.401,23.07911 -4.8296,-11.28148 c -1.1552,-2.70359 -1.9786,-4.0554 -2.4702,-4.05544 -0.2949,4e-5 -0.8357,0.87257 -1.6221,2.6176 l -0.7005,1.54844 -4.3135,9.84364 -0.4056,0.92169 c -0.172,0.3687 -0.2581,0.68822 -0.258,0.95856 -1e-4,0.83569 0.8848,1.25352 2.6544,1.2535 l 10.9128,0 c 0.934,2e-5 1.401,-0.25805 1.401,-0.77422 0,-0.12287 -0.061,-0.33179 -0.1843,-0.62675 z"
           style="font-weight:bold;text-align:center;line-height:125%;writing-mode:lr-tb;text-anchor:middle;fill:#000000;font-family:Goudy Old Style;-inkscape-font-specification:Goudy Old Style Bold"
           id="path3051"
           inkscape:connector-curvature="0" />
        <path
           d="m -2048.7944,404.26924 0,27.76129 c 0,4.15375 0.6022,7.09701 1.8065,8.82978 1.2043,1.73278 3.3304,2.69748 6.3781,2.89411 0.8848,0.0737 1.3272,0.50386 1.3273,1.29036 -10e-5,0.5653 -0.3811,0.84796 -1.1429,0.84796 -0.1721,0 -0.4794,-0.0123 -0.9217,-0.0369 l -2.7651,-0.1106 -4.6084,-0.29494 c -0.3688,-0.0246 -0.8603,-0.0369 -1.4748,-0.0369 -1.4255,0 -2.7036,0.0369 -3.8342,0.1106 l -8.1477,0.47928 c -0.8603,0.0983 -1.4502,0.14747 -1.7697,0.14747 -0.7619,0 -1.1306,-0.31952 -1.106,-0.95856 0.025,-0.54072 0.1475,-0.89096 0.3687,-1.05072 0.2212,-0.15976 0.7005,-0.26422 1.4378,-0.31338 1.9171,-0.12289 3.398,-0.81723 4.4426,-2.08302 1.0445,-1.26578 1.5668,-2.99241 1.5668,-5.17989 l -0.037,-1.73278 0,-32.73841 c 0,-1.94165 -1.0446,-2.91249 -3.1338,-2.91254 -4.9157,5e-5 -8.2706,0.35643 -10.0648,1.06916 -1.3027,0.54077 -2.1691,1.14908 -2.5992,1.82495 -0.4301,0.67594 -1.0138,2.35342 -1.7512,5.03242 l -0.2949,1.03229 c -0.2704,1.00775 -0.6882,1.51161 -1.2535,1.51157 -0.8111,4e-5 -1.1921,-0.38092 -1.1429,-1.14289 0.024,-0.68816 0.1474,-1.64671 0.3686,-2.87567 l 0.3687,-3.20748 0.4424,-3.28122 0.2581,-2.24892 c 0.098,-0.95851 0.6145,-1.43778 1.5484,-1.43783 0.2458,5e-5 0.6637,0.0246 1.2535,0.0737 0.9586,0.0738 2.3227,0.11065 4.0923,0.1106 l 7.521,0.0737 8.9589,0.1106 c 5.7758,5e-5 11.8959,-0.15971 18.36,-0.47928 1.278,-0.0491 2.1014,-0.0737 2.4701,-0.0737 1.3518,5e-5 2.0646,0.56535 2.1384,1.69591 l 0.1843,2.65446 c 0.024,0.41788 0.1474,1.4133 0.3687,2.98628 0.172,1.30269 0.258,2.34727 0.258,3.13374 0,0.81113 -0.3318,1.21667 -0.9954,1.21663 -0.5653,4e-5 -0.9586,-0.46695 -1.1797,-1.40097 -0.5162,-2.28575 -1.5055,-3.9325 -2.9679,-4.94025 -1.4624,-1.00767 -3.5823,-1.51153 -6.3596,-1.51157 -3.736,4e-5 -6.0648,0.28884 -6.9864,0.86638 -0.9218,0.57764 -1.3826,2.00933 -1.3826,4.29508 z"
           style="font-weight:bold;text-align:center;line-height:125%;writing-mode:lr-tb;text-anchor:middle;fill:#000000;font-family:Goudy Old Style;-inkscape-font-specification:Goudy Old Style Bold"
           id="path3053"
           inkscape:connector-curvature="0" />
        <path
           d="m -2011.5213,434.24258 0.295,3.68676 c 0.2949,1.89254 1.0138,3.34266 2.1567,4.35037 1.1429,1.00772 2.636,1.51158 4.4794,1.51157 1.2044,1e-5 1.8065,0.36868 1.8066,1.10603 -10e-5,0.71277 -0.7989,1.06916 -2.3964,1.06916 -0.6883,0 -1.6714,-0.0614 -2.9494,-0.18434 -3.1952,-0.34409 -5.7883,-0.51614 -7.7791,-0.51614 -2.4578,0 -4.3995,0.13518 -5.8251,0.40554 -1.2289,0.24578 -2.1137,0.36868 -2.6544,0.36868 -0.5408,0 -0.8849,-0.25808 -1.0323,-0.77422 l -0.074,-0.29494 1.0692,-0.84796 c 1.7696,-0.63903 2.9432,-1.4194 3.5208,-2.34109 0.5776,-0.92168 0.8664,-2.45169 0.8664,-4.59001 l 0.037,-3.28122 0,-29.38346 c 0,-2.26117 -0.3933,-3.87105 -1.1798,-4.82965 -0.7865,-0.95851 -2.2243,-1.59755 -4.3135,-1.91712 -1.2535,-0.19658 -2.0584,-0.38706 -2.4148,-0.57144 -0.3564,-0.18429 -0.5346,-0.49767 -0.5346,-0.94013 0,-0.68814 0.295,-1.01995 0.8848,-0.99542 0.4425,0.0246 1.1061,0.12294 1.9909,0.29494 0.8848,0.19667 2.3718,0.29499 4.461,0.29494 1.3764,5e-5 3.0845,-0.086 5.1246,-0.25807 l 2.6913,-0.22121 c 2.5316,-0.19658 4.4732,-0.29489 5.8251,-0.29494 0.811,5e-5 1.2166,0.29499 1.2166,0.88482 0,0.44246 -0.062,0.7374 -0.1843,0.88482 -0.1229,0.14752 -0.4302,0.25812 -0.9217,0.33181 -1.7697,0.29499 -2.9064,0.78656 -3.4103,1.4747 -0.5038,0.68825 -0.7558,2.08921 -0.7558,4.20291 z"
           style="font-weight:bold;text-align:center;line-height:125%;writing-mode:lr-tb;text-anchor:middle;fill:#000000;font-family:Goudy Old Style;-inkscape-font-specification:Goudy Old Style Bold"
           id="path3055"
           inkscape:connector-curvature="0" />
        <path
           d="m -1972.2204,394.38873 c 7.6684,5e-5 13.8621,2.23053 18.5812,6.69146 4.719,4.46102 7.0786,10.31681 7.0786,17.5674 0,7.88969 -2.4333,14.575 -7.2998,20.05597 -4.7436,5.35809 -11.2815,8.03713 -19.6135,8.03713 -7.9634,0 -14.3292,-2.3288 -19.0974,-6.98641 -4.7682,-4.65759 -7.1523,-10.88206 -7.1523,-18.67343 0,-3.34263 0.6021,-6.66685 1.8065,-9.97268 1.2043,-3.30575 2.8388,-6.07696 4.9034,-8.31364 2.3841,-2.62984 5.4133,-4.68828 9.0878,-6.17532 3.6745,-1.48694 7.5763,-2.23043 11.7055,-2.23048 z m -2.6914,2.76506 c -4.9402,5e-5 -8.799,1.83114 -11.5764,5.49327 -2.7773,3.66222 -4.166,8.76223 -4.166,15.30005 0,7.71763 1.745,13.99126 5.2352,18.8209 3.4901,4.82966 8.0248,7.24448 13.6041,7.24448 5.0386,0 9.0694,-1.99699 12.0926,-5.99098 3.0231,-3.99398 4.5347,-9.33363 4.5347,-16.01897 0,-3.85878 -0.7005,-7.62541 -2.1015,-11.29991 -1.401,-3.67443 -3.2689,-6.59311 -5.6038,-8.75605 -3.3919,-3.19514 -7.3981,-4.79274 -12.0189,-4.79279 z"
           style="font-weight:bold;text-align:center;line-height:125%;writing-mode:lr-tb;text-anchor:middle;fill:#000000;font-family:Goudy Old Style;-inkscape-font-specification:Goudy Old Style Bold"
           id="path3057"
           inkscape:connector-curvature="0" />
        <path
           d="m -1921.933,403.71622 19.5398,21.89935 1.2535,1.40096 c 1.6713,1.86798 2.7896,2.80196 3.3549,2.80194 0.5161,2e-5 0.7988,-0.74962 0.848,-2.24892 0.2212,-5.4318 0.3318,-10.60555 0.3318,-15.52125 0,-5.77588 -0.5838,-9.68384 -1.7512,-11.72389 -1.1675,-2.03996 -3.4595,-3.18286 -6.8758,-3.42869 -0.8111,-0.0491 -1.2167,-0.33176 -1.2166,-0.84795 -10e-5,-0.63899 0.3563,-0.95851 1.0691,-0.95856 0.8848,5e-5 2.3103,0.12294 4.2767,0.36868 1.278,0.14752 2.3349,0.22125 3.1706,0.2212 1.6958,5e-5 4.3872,-0.23344 8.074,-0.70048 0.4915,-0.0491 0.8479,-0.0737 1.0691,-0.0737 0.7865,5e-5 1.1797,0.34415 1.1798,1.03229 -10e-5,0.61451 -0.3933,0.98319 -1.1798,1.10603 -3.1706,0.58993 -4.7559,3.40415 -4.7559,8.44268 l 0,1.80651 -0.5161,23.04224 -0.1475,3.17061 -0.037,4.0923 0.037,2.80194 0.1475,4.60844 c -1e-4,0.6882 -0.2459,1.02001 -0.7374,0.99543 -0.4424,-0.0246 -0.8971,-0.29494 -1.3641,-0.81109 l -33.5864,-37.27312 c -0.5899,-0.639 -0.9954,-0.95852 -1.2166,-0.95856 -0.5899,4e-5 -0.8848,0.55305 -0.8848,1.65904 l -0.037,1.06916 0,14.30462 c 0,7.6439 0.381,12.7562 1.1429,15.33692 0.8111,2.75278 3.2075,4.31351 7.1892,4.68218 0.7373,0.0737 1.106,0.38097 1.106,0.92169 0,0.73735 -0.381,1.10603 -1.1429,1.10603 -0.2949,0 -0.7742,-0.0492 -1.4378,-0.14747 -2.0646,-0.3441 -4.3504,-0.51615 -6.8574,-0.51615 -2.4824,0 -4.6945,0.18434 -6.6361,0.55301 -0.8603,0.14747 -1.487,0.22121 -1.8803,0.22121 -0.6636,0 -0.9954,-0.29494 -0.9954,-0.88482 0,-0.49157 0.3564,-0.83567 1.0691,-1.03229 1.7943,-0.51615 3.1031,-1.57916 3.9264,-3.18905 0.8234,-1.60988 1.2351,-3.92639 1.2351,-6.94954 l 0.2581,-8.77448 0,-16.00053 c 0,-7.5701 -2.7897,-11.5518 -8.369,-11.9451 -0.7619,-0.0491 -1.1429,-0.35634 -1.1429,-0.92169 0,-0.68815 0.4179,-1.03224 1.2535,-1.03229 l 2.5439,0.1106 1.5484,-0.0369 c 1.9172,5e-5 3.9694,-0.11055 6.1569,-0.33181 0.8111,-0.0737 1.487,-0.11055 2.0277,-0.1106 0.762,5e-5 1.3641,0.16596 1.8066,0.49771 0.4424,0.33186 1.3763,1.34572 2.8019,3.04158 l 2.5439,2.98627 c 1.0077,1.17981 1.6098,1.89258 1.8065,2.13832 z"
           style="font-weight:bold;text-align:center;line-height:125%;writing-mode:lr-tb;text-anchor:middle;fill:#000000;font-family:Goudy Old Style;-inkscape-font-specification:Goudy Old Style Bold"
           id="path3059"
           inkscape:connector-curvature="0" />
        <path
           d="m -1858.189,399.47645 16.7748,38.52662 c 0.8356,1.9417 1.8187,3.39183 2.9494,4.35038 1.1305,0.95856 2.5929,1.5976 4.3872,1.91711 0.4424,0.0737 0.6636,0.41784 0.6636,1.03229 0,0.66362 -0.2827,0.98314 -0.8479,0.95856 -0.3196,-0.0246 -0.7866,-0.0983 -1.401,-0.2212 -1.8926,-0.41784 -4.9403,-0.62675 -9.1432,-0.62675 -4.2275,0 -7.1031,0.18434 -8.627,0.55301 -0.3687,0.0983 -0.6882,0.14747 -0.9585,0.14747 -0.6883,0 -1.0323,-0.3441 -1.0323,-1.03229 0,-0.3441 0.2703,-0.60217 0.8111,-0.77422 1.1797,-0.3441 2.1567,-0.95855 2.9309,-1.84338 0.7742,-0.88482 1.1613,-1.81879 1.1614,-2.80193 -10e-5,-1.37639 -1.0692,-4.39953 -3.2075,-9.06943 -0.6637,-1.42553 -1.3949,-2.24276 -2.1936,-2.45169 -0.7989,-0.2089 -3.6315,-0.31336 -8.498,-0.31338 l -5.014,0 -3.3181,0.58988 c -0.9094,0.41785 -1.9417,2.04002 -3.0969,4.86652 l -1.1429,2.83881 c -0.3441,0.81109 -0.5161,1.63447 -0.5161,2.47013 0,3.09688 2.1629,4.8911 6.4887,5.38266 0.934,0.1229 1.3887,0.47928 1.3641,1.06916 -0.049,0.63904 -0.4916,0.95856 -1.3272,0.95856 -0.4425,0 -1.0692,-0.0737 -1.8803,-0.22121 -1.6222,-0.31952 -3.0723,-0.47927 -4.3504,-0.47928 -1.1551,1e-5 -3.0231,0.1229 -5.6038,0.36868 -1.9171,0.19663 -3.1092,0.29494 -3.5762,0.29494 -0.6882,0 -1.0323,-0.29494 -1.0323,-0.88482 0,-0.49157 0.3441,-0.86024 1.0323,-1.10603 1.3272,-0.41783 2.3903,-1.1859 3.1891,-2.30422 0.7988,-1.11831 1.9847,-3.47169 3.5577,-7.06014 l 10.0648,-23.22658 c 0.8111,-1.84334 1.3764,-3.10913 1.6959,-3.79736 l 3.4287,-7.04171 c 1.1798,-2.31032 1.7696,-3.4655 1.7697,-3.46555 -10e-5,0.0738 -10e-5,0.11065 0,0.1106 -10e-5,5e-5 0.1966,-0.46079 0.5899,-1.38253 0.3932,-0.92164 0.725,-1.38249 0.9954,-1.38254 0.3932,5e-5 1.0691,1.03235 2.0277,3.09688 z m 1.401,23.07911 -4.8297,-11.28148 c -1.1552,-2.70359 -1.9786,-4.0554 -2.4701,-4.05544 -0.295,4e-5 -0.8357,0.87257 -1.6222,2.6176 l -0.7005,1.54844 -4.3135,9.84364 -0.4055,0.92169 c -0.1721,0.3687 -0.2581,0.68822 -0.2581,0.95856 0,0.83569 0.8848,1.25352 2.6545,1.2535 l 10.9128,0 c 0.9339,2e-5 1.4009,-0.25805 1.401,-0.77422 -10e-5,-0.12287 -0.062,-0.33179 -0.1844,-0.62675 z"
           style="font-weight:bold;text-align:center;line-height:125%;writing-mode:lr-tb;text-anchor:middle;fill:#000000;font-family:Goudy Old Style;-inkscape-font-specification:Goudy Old Style Bold"
           id="path3061"
           inkscape:connector-curvature="0" />
        <path
           d="m -1816.8973,434.24258 c 0,4.59617 0.553,7.17689 1.6591,7.74219 0.6144,0.31953 1.8187,0.47928 3.613,0.47928 8.3566,0 14.28,-2.45783 17.7702,-7.37352 1.0568,-1.49926 1.7204,-2.2489 1.9908,-2.24892 0.4424,2e-5 0.6636,0.50387 0.6636,1.51157 0,3.12147 -1.02,5.91111 -3.06,8.36894 -1.7942,2.1629 -4.2398,3.24435 -7.3366,3.24435 -0.6391,0 -1.8066,-0.0614 -3.5025,-0.18434 -0.4424,-0.0246 -1.9171,-0.1106 -4.4241,-0.25807 l -4.0185,-0.18434 c -1.3519,-0.0737 -2.888,-0.1106 -4.6085,-0.1106 -2.8511,0 -5.9234,0.19663 -9.2169,0.58988 -1.0077,0.12289 -1.6836,0.18434 -2.0277,0.18434 -0.7128,0 -1.0692,-0.31952 -1.0692,-0.95856 0,-0.44241 0.3196,-0.74964 0.9586,-0.92169 1.573,-0.44241 2.6606,-1.2965 3.2628,-2.56229 0.6021,-1.26579 0.9032,-3.33651 0.9032,-6.21219 l 0,-30.8213 c 0,-3.9325 -1.6344,-6.15684 -4.9033,-6.67303 l -2.2121,-0.36868 c -0.934,-0.14742 -1.401,-0.5161 -1.401,-1.10603 0,-0.7373 0.3687,-1.10597 1.1061,-1.10602 0.2457,5e-5 0.6021,0.0369 1.0691,0.1106 0.3441,0.0246 0.8234,0.0738 1.4379,0.14747 l 1.5853,0.1106 c 1.4992,0.14752 2.6175,0.22126 3.3549,0.22121 1.1798,5e-5 3.06,-0.14742 5.6407,-0.44241 1.9171,-0.19658 3.8711,-0.29489 5.862,-0.29494 1.4747,5e-5 2.212,0.34414 2.212,1.03229 0,0.58993 -0.5284,0.90945 -1.5853,0.95856 -2.4824,0.17209 -3.7236,1.88029 -3.7236,5.12459 z"
           style="font-weight:bold;text-align:center;line-height:125%;writing-mode:lr-tb;text-anchor:middle;fill:#000000;font-family:Goudy Old Style;-inkscape-font-specification:Goudy Old Style Bold"
           id="path3063"
           inkscape:connector-curvature="0" />
        <path
           d="m -1774.2784,403.86369 0,8.00027 c 0,2.28582 0.1659,3.73594 0.4977,4.35037 0.3318,0.61449 1.1368,0.92172 2.4149,0.92169 l 1.106,-0.0369 1.6222,-0.0369 3.1337,0 c 2.4332,3e-5 4.3135,-1.33949 5.6407,-4.01857 l 0.848,-1.80651 c 0.2212,-0.44238 0.5898,-0.67587 1.106,-0.70048 0.5407,-0.0245 0.8111,0.30726 0.8111,0.99542 0,0.19666 -0.037,0.73739 -0.1106,1.62217 -0.049,0.63907 -0.074,1.1798 -0.074,1.62218 -10e-5,0.78654 0.1105,2.62991 0.3318,5.53013 0.1474,1.89256 0.2211,3.53931 0.2212,4.94026 l 0.037,1.88025 c -10e-5,0.34411 -0.037,0.57761 -0.1107,0.70048 -0.098,0.14749 -0.2949,0.23351 -0.5898,0.25807 -0.6145,0.0492 -0.9955,-0.41781 -1.1429,-1.40096 -0.3196,-2.08915 -1.0569,-3.67445 -2.2121,-4.75592 -0.6391,-0.58986 -1.4194,-0.97082 -2.3411,-1.1429 -0.9217,-0.17202 -2.6483,-0.25804 -5.1799,-0.25807 l -2.507,0 c -1.1797,3e-5 -1.9847,0.17822 -2.4148,0.53458 -0.4301,0.35641 -0.7189,1.07533 -0.8664,2.15675 -0.1475,1.22894 -0.2212,3.17064 -0.2212,5.82508 l 0,3.31808 c 0,3.46557 0.2704,5.96027 0.8111,7.48412 0.4178,1.10604 0.9094,1.85568 1.4747,2.24893 0.5653,0.39325 1.4378,0.58988 2.6176,0.58988 9.9788,0 16.5044,-3.03543 19.5767,-9.1063 0.172,-0.29492 0.3195,-0.45468 0.4424,-0.47927 0.2457,-0.0491 0.4731,0.0307 0.682,0.23963 0.2089,0.20893 0.3134,0.47315 0.3134,0.79266 0,2.40869 -0.6513,4.74363 -1.954,7.00484 -1.0814,1.91712 -2.4333,3.28736 -4.0554,4.11073 -1.6222,0.82338 -3.7728,1.23507 -6.4518,1.23507 -1.5731,0 -3.3181,-0.0983 -5.2352,-0.29494 l -4.2767,-0.40555 c -1.573,-0.14747 -3.699,-0.2212 -6.378,-0.2212 -1.7943,0 -4.5225,0.1106 -8.1846,0.33181 -1.0078,0.0737 -1.7328,0.1106 -2.1752,0.1106 -0.5899,0 -0.9094,-0.27036 -0.9586,-0.81109 -0.025,-0.44241 0.2458,-0.77422 0.8111,-0.99542 1.401,-0.54072 2.3534,-1.11217 2.8572,-1.71434 0.5039,-0.60217 0.9033,-1.67747 1.1982,-3.22592 0.2704,-1.30265 0.4056,-3.07229 0.4056,-5.30893 l 0,-29.23599 c 0,-2.75274 -0.4486,-4.62069 -1.3457,-5.60387 -0.8971,-0.98309 -2.7589,-1.67129 -5.5854,-2.06459 -0.6637,-0.0983 -0.9955,-0.45465 -0.9955,-1.06916 0,-0.56525 0.4056,-0.8479 1.2167,-0.84795 0.172,5e-5 0.5407,0.0246 1.106,0.0737 0.4424,0.0246 1.0446,0.0369 1.8065,0.0369 l 3.7236,0.14747 13.9728,0.14747 c 8.0372,5e-5 12.9897,-0.11055 14.8577,-0.33181 0.1966,-0.0245 0.3686,-0.0368 0.5161,-0.0369 0.7128,5e-5 1.0692,0.4056 1.0692,1.21663 0,0.56536 0.074,1.57307 0.2212,3.02315 0.1966,2.13836 0.2949,3.67451 0.2949,4.60844 0,1.868 -0.4793,2.82656 -1.4378,2.87568 -0.467,0.0246 -0.7005,-0.51611 -0.7005,-1.62218 0,-2.43322 -0.891,-4.19671 -2.6729,-5.2905 -1.7819,-1.09369 -4.6638,-1.64056 -8.6454,-1.6406 l -4.4979,0 -2.507,0.29494 c -1.2535,0.3933 -1.8802,1.63451 -1.8802,3.72362 z"
           style="font-weight:bold;text-align:center;line-height:125%;writing-mode:lr-tb;text-anchor:middle;fill:#000000;font-family:Goudy Old Style;-inkscape-font-specification:Goudy Old Style Bold"
           id="path3065"
           inkscape:connector-curvature="0" />
      </g>
    </g>
  </g>
</svg>
