<?xml version="1.0" encoding="utf-8"?>
<svg width="80px" height="80px" viewBox="0 0 80 80" version="1.1" xmlns:xlink="http://www.w3.org/1999/xlink" xmlns="http://www.w3.org/2000/svg">
  <g id="timelapse-24px">
    <path d="M0 0L80 0L80 80L0 80L0 0Z" id="Path" fill="none" fill-rule="evenodd" stroke="none" />
    <path d="M40 6.63333C21.6 6.63333 6.66667 21.5667 6.66667 39.9667C6.66667 58.3667 21.6 73.3 40 73.3C58.4 73.3 73.3333 58.3667 73.3333 39.9667C73.3333 21.5667 58.4 6.63333 40 6.63333ZM40 66.6333C25.2667 66.6333 13.3333 54.7 13.3333 39.9667C13.3333 25.2333 25.2667 13.3 40 13.3C54.7333 13.3 66.6667 25.2333 66.6667 39.9667C66.6667 54.7 54.7333 66.6333 40 66.6333Z" id="Shape" fill="#000091" stroke="none" />
    <path d="M54.1333 25.8333C50.2333 21.9333 45.1333 19.9667 40 19.9667L40 39.9667L25.8667 54.1C33.6667 61.9 46.3333 61.9 54.1667 54.1C61.9667 46.3 61.9667 33.6333 54.1333 25.8333Z" id="Path" fill="#E1000F" stroke="none" />
  </g>
</svg>
