<?xml version="1.0" encoding="UTF-8"?>
<svg width="80px" height="80px" viewBox="0 0 80 80" version="1.1" xmlns="http://www.w3.org/2000/svg" xmlns:xlink="http://www.w3.org/1999/xlink">
    <title>F1D8D955-5B15-4D7D-853C-ABD922FB0849</title>
    <g id="Page-1" stroke="none" stroke-width="1" fill="none" fill-rule="evenodd">
        <g id="LANDING_DESKTOP" transform="translate(-289.000000, -1682.000000)">
            <g id="02-Composants/Cartes/Thème-clair/Desktop/Vertical/Sans-icône/Défaut" transform="translate(149.000000, 1637.000000)">
                <g id="volunteer_activism-24px" transform="translate(140.000000, 45.000000)">
                    <rect id="Rectangle" x="0" y="0" width="80" height="80"></rect>
                    <g id="Group" transform="translate(4.800000, 5.600000)" fill-rule="nonzero">
                        <path d="M50,36.6666667 C60.3,27.3 70,18.5333333 70,11 C70,4.83333333 65.1666667,0 59,0 C55.5333333,0 52.1666667,1.63333333 50,4.16666667 C47.8,1.63333333 44.4666667,0 41,0 C34.8333333,0 30,4.83333333 30,11 C30,18.5333333 39.7,27.3 50,36.6666667 Z M41,6.66666667 C42.4666667,6.66666667 43.9666667,7.36666667 44.9333333,8.5 L50,14.4666667 L55.0666667,8.5 C56.0333333,7.36666667 57.5333333,6.66666667 59,6.66666667 C61.4666667,6.66666667 63.3333333,8.53333333 63.3333333,11 C63.3333333,14.7333333 56.5333333,21.5666667 50,27.6333333 C43.4666667,21.5666667 36.6666667,14.7 36.6666667,11 C36.6666667,8.53333333 38.5333333,6.66666667 41,6.66666667 Z" id="Shape" fill="#E1000F"></path>
                        <path d="M60,46.6666667 L53.3333333,46.6666667 C53.3333333,42.6666667 50.8333333,39.0666667 47.1,37.6666667 L26.5666667,30 L0,30 L0,66.6666667 L20,66.6666667 L20,61.8666667 L43.3333333,68.3333333 L70,60 L70,56.6666667 C70,51.1333333 65.5333333,46.6666667 60,46.6666667 Z M6.66666667,60 L6.66666667,36.6666667 L13.3333333,36.6666667 L13.3333333,60 L6.66666667,60 Z M43.2333333,61.3666667 L20,54.9333333 L20,36.6666667 L25.3666667,36.6666667 L44.7666667,43.9 C45.9,44.3333333 46.6666667,45.4333333 46.6666667,46.6666667 C46.6666667,46.6666667 40.0333333,46.5 39,46.1666667 L31.0666667,43.5333333 L28.9666667,49.8666667 L36.9,52.5 C38.6,53.0666667 40.3666667,53.3666667 42.1666667,53.3666667 L60,53.3666667 C61.3,53.3666667 62.4666667,54.1333333 63,55.2333333 L43.2333333,61.3666667 Z" id="Shape" fill="#000091"></path>
                    </g>
                </g>
            </g>
        </g>
    </g>
</svg>