<?xml version="1.0" encoding="UTF-8"?>
<svg width="78px" height="78px" viewBox="0 0 78 78" version="1.1" xmlns="http://www.w3.org/2000/svg" xmlns:xlink="http://www.w3.org/1999/xlink">
    <title>Group</title>
    <g id="Page-1" stroke="none" stroke-width="1" fill="none" fill-rule="evenodd">
        <g id="LANDING_DESKTOP" transform="translate(-180.000000, -1549.000000)">
            <g id="features-copy-2" transform="translate(150.000000, 1521.000000)">
                <g id="Group" transform="translate(31.000000, 29.000000)">
                    <rect id="Rectangle" stroke="#6E91F0" fill-rule="nonzero" x="0" y="0" width="76" height="76" rx="38"></rect>
                    <g id="volunteer_activism-24px" transform="translate(23.000000, 23.000000)">
                        <rect id="Rectangle" x="0" y="0" width="30" height="30"></rect>
                        <g id="Group" transform="translate(1.250000, 2.500000)" fill="#6E91F0" fill-rule="nonzero">
                            <path d="M18.75,13.75 C22.6125,10.2375 26.25,6.95 26.25,4.125 C26.25,1.8125 24.4375,0 22.125,0 C20.825,0 19.5625,0.6125 18.75,1.5625 C17.925,0.6125 16.675,0 15.375,0 C13.0625,0 11.25,1.8125 11.25,4.125 C11.25,6.95 14.8875,10.2375 18.75,13.75 Z M15.375,2.5 C15.925,2.5 16.4875,2.7625 16.85,3.1875 L18.75,5.425 L20.65,3.1875 C21.0125,2.7625 21.575,2.5 22.125,2.5 C23.05,2.5 23.75,3.2 23.75,4.125 C23.75,5.525 21.2,8.0875 18.75,10.3625 C16.3,8.0875 13.75,5.5125 13.75,4.125 C13.75,3.2 14.45,2.5 15.375,2.5 Z" id="Shape"></path>
                            <path d="M22.5,17.5 L20,17.5 C20,16 19.0625,14.65 17.6625,14.125 L9.9625,11.25 L0,11.25 L0,25 L7.5,25 L7.5,23.2 L16.25,25.625 L26.25,22.5 L26.25,21.25 C26.25,19.175 24.575,17.5 22.5,17.5 Z M2.5,22.5 L2.5,13.75 L5,13.75 L5,22.5 L2.5,22.5 Z M16.2125,23.0125 L7.5,20.6 L7.5,13.75 L9.5125,13.75 L16.7875,16.4625 C17.2125,16.625 17.5,17.0375 17.5,17.5 C17.5,17.5 15.0125,17.4375 14.625,17.3125 L11.65,16.325 L10.8625,18.7 L13.8375,19.6875 C14.475,19.9 15.1375,20.0125 15.8125,20.0125 L22.5,20.0125 C22.9875,20.0125 23.425,20.3 23.625,20.7125 L16.2125,23.0125 Z" id="Shape"></path>
                        </g>
                    </g>
                </g>
            </g>
        </g>
    </g>
</svg>