<?xml version="1.0" encoding="utf-8"?>
<svg width="73.333496px" height="56.666748px" viewBox="0 0 73.333496 56.666748" version="1.1" xmlns:xlink="http://www.w3.org/1999/xlink" xmlns="http://www.w3.org/2000/svg">
  <g id="Group">
    <path d="M66.6667 16.6667C61.8333 16.6667 59.1333 21.4667 60.2333 25.0333L48.4 36.9C47.4 36.6 45.9333 36.6 44.9333 36.9L36.4333 28.4C37.5667 24.8333 34.8667 20 30 20C25.1667 20 22.4333 24.8 23.5667 28.4L8.36667 43.5667C4.8 42.4667 0 45.1667 0 50C0 53.6667 3 56.6667 6.66667 56.6667C11.5 56.6667 14.2 51.8667 13.1 48.3L28.2667 33.1C29.2667 33.4 30.7333 33.4 31.7333 33.1L40.2333 41.6C39.1 45.1667 41.8 50 46.6667 50C51.5 50 54.2333 45.2 53.1 41.6L64.9667 29.7667C68.5333 30.8667 73.3333 28.1667 73.3333 23.3333C73.3333 19.6667 70.3333 16.6667 66.6667 16.6667Z" id="Path" fill="#000091" stroke="none" />
    <path d="M46.6667 20L49.8 13.1L56.6667 10L49.8 6.9L46.6667 0L43.6 6.9L36.6667 10L43.6 13.1L46.6667 20Z" id="Path" fill="#E1000F" stroke="none" />
    <path d="M8.33333 26.6667L10 20L16.6667 18.3333L10 16.6667L8.33333 10L6.66667 16.6667L0 18.3333L6.66667 20L8.33333 26.6667Z" id="Path" fill="#E1000F" stroke="none" />
  </g>
</svg>
